{
.appVersion = "3260";
.formatVersion = 3;
DisplayStrings = (
"/wipfontnote-lksymbol",
"/emdash.039",
"ු",
"/quotedblright.097",
"ධ",
"ඩුු/emdash.038"
);
customParameters = (
{
name = fsType;
value = (
);
},
{
name = "Write Last Change";
value = 0;
}
);
date = "2024-05-05 02:08:05 +0000";
familyName = Pabavathee;
featurePrefixes = (
{
code = "#> languagesystem
languagesystem DFLT dflt;
languagesystem latn dflt;
languagesystem sinh dflt;
#< languagesystem
";
name = xxxx;
}
);
features = (
{
code = " # Above-Base Substitutions
 script sinh; # Sinhala
lookup abvs1 {
    sub quoteright.005 quotedblright.031 by quotedblright.039;
    sub quoteright.005 quotedblright.021 by quotedblright.039;
    sub quoteright.005 quotedblright.023 by bullet.020;
    sub quoteright.005 bullet.012 by endash.020;
    sub quoteright.005 quoteright.015 by quotedblleft.040;
    sub quotedblleft.008 quotedblright.031 by quotedblleft.044;
    sub quotedblleft.008 quotedblright.021 by quotedblleft.044;
    sub quotedblleft.008 quotedblright.023 by quotedblright.044;
    sub quotedblleft.008 quoteright.015 by quotedblleft.172;
    sub quotedblleft.008 bullet.012 by quotedblleft.045;
    sub quotedblright.008 quotedblright.031 by quotedblright.046;
    sub quotedblright.008 quotedblright.021 by quotedblright.046;
    sub quotedblright.008 quotedblright.023 by quotedblleft.047;
    sub quotedblright.008 bullet.012 by quotedblright.047;
    sub quotedblright.008 quoteright.015 by emdash.024;
    sub quotedblleft.009 quotedblright.031 by quotedblright.049;
    sub quotedblleft.009 quotedblright.021 by quotedblright.049;
    sub quotedblleft.009 quotedblright.023 by bullet.025;
    sub quotedblleft.009 bullet.012 by endash.025;
    sub quotedblleft.009 quoteright.015 by quotedblleft.050;
    sub quotedblright.009 quotedblright.031 by bullet.026;
    sub quotedblright.009 quotedblright.021 by bullet.026;
    sub quotedblright.009 quotedblright.023 by endash.026;

glyphs = (
{
color = (166,255,153,255);
glyphname = bullet.002;
lastChange = "2024-05-05 02:07:47 +0000";
layers = (
{
layerId = "B33422F0-91E4-47C9-8809-C0A5C4DE8881";
shapes = (
{
closed = 1;
nodes = (
(100,312,l),
(111,340,o),
(131,362,o),
(161,378,cs),
(186,392,o),
(212,399,o),
(238,399,cs),
(269,399,o),
(293,385,o),
(309,356,cs),
(322,333,o),
(328,305,o),
(328,270,cs),
(328,234,o),
(321,198,o),
(308,162,cs),
(291,117,o),
(266,79,o),
(233,48,cs),
(200,17,o),
(168,0,o),
(135,-2,cs),
(92,-5,o),
(61,3,o),
(40,22,cs),
(16,43,o),
(4,79,o),
(5,130,cs),
(6,218,o),
(37,319,o),
(99,433,cs),
(108,449,o),
(141,501,o),
(200,589,c),
(214,597,o),
(223,601,o),
(227,601,cs),
(230,601,o),
(233,600,o),
(236,597,c),
(208,560,o),
(178,511,o),
(146,449,cs),
(91,344,o),
(64,248,o),
(64,160,cs),
(64,71,o),
(89,27,o),
(139,28,cs),
(161,29,o),
(184,41,o),
(209,65,cs),
(234,90,o),
(253,121,o),
(264,158,cs),
(271,183,o),
(275,208,o),
(275,233,cs),
(275,277,o),
(264,310,o),
(241,333,cs),
(229,345,o),
(215,351,o),
(199,351,cs),
(180,351,o),
(160,344,o),
(141,329,cs),
(122,314,o),
(108,299,o),
(100,282,c)
);
},
{
closed = 1;
nodes = (
(89,613,o),
(81,615,o),
(72,615,cs),
(53,615,o),
(37,605,o),
(23,586,cs),
(12,570,o),
(6,552,o),
(6,532,cs),
(6,508,o),
(15,491,o),
(32,481,cs),
(40,476,o),
(49,474,o),
(58,474,cs),
(87,474,o),
(110,490,o),
(128,522,cs),
(140,543,o),
(146,563,o),
(146,581,cs),
(146,598,o),
(139,609,o),
(125,612,cs),
(115,615,o),
(105,614,o),
(96,610,c)
);
},
{
closed = 1;
nodes = (
(94,587,o),
(101,581,o),
(108,566,cs),
(110,562,o),
(111,557,o),
(111,552,cs),
(111,531,o),
(91,505,o),
(72,505,cs),
(50,505,o),
(39,520,o),
(39,549,cs),
(39,567,o),
(46,580,o),
(60,589,cs),
(69,594,o),
(78,593,o),
(88,585,c)
);
},
{
closed = 1;
nodes = (
(282,554,o),
(274,556,o),
(265,556,cs),
(246,556,o),
(230,546,o),
(216,527,cs),
(205,511,o),
(199,493,o),
(199,473,cs),
(199,449,o),
(208,432,o),
(225,422,cs),
(233,417,o),
(242,415,o),
(251,415,cs),
(280,415,o),
(303,431,o),
(321,463,cs),
(333,484,o),
(339,504,o),
(339,522,cs),
(339,539,o),
(332,550,o),
(318,553,cs),
(308,556,o),
(298,555,o),
(289,551,c)
);
},
{
closed = 1;
nodes = (
(287,528,o),
(294,522,o),
(301,507,cs),
(303,503,o),
(304,498,o),
(304,493,cs),
(304,472,o),
(284,446,o),
(265,446,cs),
(243,446,o),
(232,461,o),
(232,490,cs),
(232,508,o),
(239,521,o),
(253,530,cs),
(262,535,o),
(271,534,o),
(281,526,c)
);
}
);
width = 338;
}
);
unicode = 3466;
},
{
color = (166,255,153,255);
glyphname = bullet.003;
lastChange = "2024-05-05 02:07:47 +0000";
layers = (
{
layerId = "B33422F0-91E4-47C9-8809-C0A5C4DE8881";
shapes = (
{
closed = 1;
nodes = (
(377,652,o),
(360,605,o),
(351,543,cs),
(347,516,o),
(346,485,o),
(348,450,c),
(374,410,o),
(387,362,o),
(387,305,cs),
(387,248,o),
(376,193,o),
(354,140,cs),
(336,95,o),
(308,60,o),
(269,34,cs),
(234,10,o),
(191,-2,o),
(141,-2,cs),
(78,-2,o),
(43,17,o),
(35,55,cs),
(31,74,o),
(34,94,o),
(44,116,c),
(57,133,o),
(72,156,o),
(89,185,c),
(66,168,o),
(47,155,o),
(31,147,cs),
(22,142,o),
(13,140,o),
(5,140,cs),
(-3,140,o),
(-8,143,o),
(-10,150,cs),
(-12,157,o),
(-10,167,o),
(-5,180,cs),
(2,195,o),
(12,208,o),
(25,218,cs),
(42,231,o),
(62,238,o),
(85,238,cs),
(96,238,o),
(105,236,o),
(113,231,c),
(142,255,o),
(159,272,o),
(164,281,cs),
(169,291,o),
(172,301,o),
(172,311,cs),
(172,330,o),
(158,343,o),
(135,343,cs),
(116,343,o),
(96,335,o),
(77,319,cs),
(58,304,o),
(48,287,o),
(47,270,c),
(40,276,o),
(36,288,o),
(36,306,cs),
(36,319,o),
(38,330,o),
(43,339,cs),
(56,363,o),
(77,380,o),
(105,390,cs),
(125,397,o),
(143,400,o),
(159,398,cs),
(207,393,o),
(230,357,o),
(225,312,cs),
(222,283,o),
(190,248,o),
(131,207,c),
(134,194,o),
(129,174,o),
(115,147,cs),
(106,130,o),
(101,112,o),
(101,93,cs),
(101,54,o),
(133,33,o),
(174,33,cs),
(185,33,o),
(196,35,o),
(208,38,cs),
(256,52,o),
(289,84,o),
(308,134,cs),
(323,173,o),
(330,217,o),
(330,266,cs),
(330,359,o),
(306,413,o),
(271,453,cs),
(251,477,o),
(229,495,o),
(204,507,cs),
(183,517,o),
(161,523,o),
(136,525,c),
(139,514,o),
(145,503,o),
(152,493,cs),
(165,476,o),
(180,465,o),
(199,460,cs),
(223,453,o),
(240,454,o),
(251,463,c),
(256,436,o),
(239,423,o),
(199,423,cs),
(187,423,o),
(176,425,o),
(165,428,cs),
(136,436,o),
(113,454,o),
(98,481,cs),
(94,488,o),
(91,501,o),
(90,518,cs),
(89,535,o),
(91,548,o),
(94,557,c),
(115,551,o),
(134,548,o),
(149,547,cs),
(213,544,o),
(261,531,o),
(294,508,c),
(297,537,o),
(305,567,o),
(316,596,cs),
(325,618,o),
(338,638,o),
(355,656,cs),
(373,675,o),
(388,684,o),
(400,683,c)
);
}
);
width = 396;
}
);
unicode = 3474;
},
{
color = (166,255,153,255);
glyphname = bullet.005;
lastChange = "2024-05-05 02:07:47 +0000";
layers = (
{
layerId = "B33422F0-91E4-47C9-8809-C0A5C4DE8881";
shapes = (
{
closed = 1;
nodes = (
(185,360,o),
(174,360,o),
(171,359,c),
(158,358,o),
(147,355,o),
(137,350,cs),
(101,333,o),
(79,302,o),
(70,257,cs),
(63,222,o),
(61,184,o),
(64,144,cs),
(67,99,o),
(82,53,o),
(98,48,cs),
(109,45,o),
(116,51,o),
(120,68,c),
(125,60,o),
(127,52,o),
(127,43,cs),
(127,18,o),
(114,3,o),
(88,0,cs),
(65,-3,o),
(45,9,o),
(29,37,c),
(16,62,o),
(8,91,o),
(5,125,cs),
(0,186,o),
(12,241,o),
(39,289,cs),
(78,357,o),
(147,398,o),
(242,398,cs),
(295,398,o),
(321,386,o),
(321,362,cs),
(321,353,o),
(316,342,o),
(307,329,c),
(293,350,o),
(278,361,o),
(262,361,cs),
(257,361,o),
(251,360,o),
(245,358,cs),
(224,351,o),
(207,330,o),
(196,297,cs),
(187,271,o),
(183,243,o),
(183,214,cs),
(182,163,o),
(189,121,o),
(204,88,cs),
(222,48,o),
(248,29,o),
(281,31,cs),
(300,32,o),
(317,40,o),
(332,55,cs),
(351,73,o),
(362,97,o),
(364,127,cs),
(367,159,o),
(354,191,o),
(321,191,cs),
(304,191,o),
(292,185,o),
(283,173,c),
(282,176,o),
(278,182,o),
(273,189,c),
(276,206,o),
(282,229,o),
(291,260,c),
(304,290,o),
(313,310,o),
(319,320,cs),
(332,341,o),
(349,360,o),
(372,377,cs),
(389,390,o),
(414,397,o),
(445,397,cs),
(458,397,o),
(470,396,o),
(482,393,cs),
(511,387,o),
(535,366,o),
(553,329,cs),
(570,296,o),
(578,258,o),
(578,215,cs),
(578,179,o),
(571,144,o),
(558,109,c),
(543,72,o),
(522,43,o),
(496,22,cs),
(475,5,o),
(452,-3,o),
(427,-2,cs),
(395,-1,o),
(379,8,o),
(379,25,cs),
(379,44,o),
(392,54,o),
(417,55,c),
(414,50,o),
(412,45,o),
(412,41,cs),
(412,30,o),
(420,25,o),
(437,25,cs),
(444,25,o),
(450,26,o),
(455,29,cs),
(495,55,o),
(516,106,o),
(518,183,cs),
(519,220,o),
(513,255,o),
(499,287,cs),
(481,328,o),
(455,348,o),
(421,348,cs),
(391,348,o),
(364,329,o),
(340,291,cs),
(331,277,o),
(323,258,o),
(315,235,c),
(324,240,o),
(335,242,o),
(348,242,cs),
(388,242,o),
(417,211,o),
(417,171,cs),
(417,136,o),
(405,103,o),
(382,71,cs),
(350,26,o),
(309,2,o),
(260,-1,cs),
(205,-5,o),
(164,20,o),
(139,73,cs),
(129,94,o),
(124,121,o),
(124,154,cs),
(124,209,o),
(136,259,o),
(161,303,cs),
(168,316,o),
(174,325,o),
(178,331,cs),
(186,342,o),
(195,352,o),
(205,361,c)
);
}
);
width = 589;
}
);
unicode = 3487;
},
{
color = (166,255,153,255);
glyphname = bullet.006;
lastChange = "2024-05-05 02:07:47 +0000";
layers = (
{
layerId = "B33422F0-91E4-47C9-8809-C0A5C4DE8881";
shapes = (
{
closed = 1;
nodes = (
(91,-2,o),
(45,26,o),
(20,80,cs),
(10,102,o),
(5,131,o),
(5,166,cs),
(5,189,o),
(7,212,o),
(12,233,cs),
(21,270,o),
(38,304,o),
(64,335,cs),
(91,367,o),
(120,387,o),
(152,394,cs),
(161,396,o),
(170,397,o),
(179,397,cs),
(214,397,o),
(235,382,o),
(241,352,cs),
(245,329,o),
(227,307,o),
(199,302,c),
(203,321,o),
(200,337,o),
(189,349,cs),
(180,358,o),
(170,363,o),
(159,363,cs),
(136,363,o),
(116,351,o),
(99,326,cs),
(86,307,o),
(77,284,o),
(71,257,cs),
(67,238,o),
(65,216,o),
(65,191,cs),
(65,136,o),
(77,94,o),
(100,65,cs),
(120,40,o),
(149,28,o),
(187,28,cs),
(215,28,o),
(241,39,o),
(266,60,cs),
(291,81,o),
(308,106,o),
(317,134,cs),
(330,173,o),
(337,215,o),
(337,261,cs),
(337,309,o),
(331,349,o),
(319,380,cs),
(296,438,o),
(265,477,o),
(225,498,cs),
(209,506,o),
(190,510,o),
(168,510,cs),
(148,510,o),
(128,506,o),
(109,497,cs),
(86,486,o),
(74,472,o),
(74,454,cs),
(74,433,o),
(86,422,o),
(109,421,c),
(104,411,o),
(94,404,o),
(80,401,cs),
(73,400,o),
(66,399,o),
(61,399,cs),
(38,399,o),
(26,411,o),
(26,435,cs),
(26,470,o),
(52,498,o),
(103,521,cs),
(126,531,o),
(155,536,o),
(191,536,cs),
(241,536,o),
(280,524,o),
(309,501,cs),
(366,454,o),
(395,385,o),
(395,294,cs),
(395,238,o),
(384,186,o),
(363,139,cs),
(341,89,o),
(310,51,o),
(271,26,cs),
(240,6,o),
(203,-4,o),
(160,-3,cs)
);
}
);
width = 405;
}
);
unicode = 3495;
},
{
color = (166,255,153,255);
glyphname = bullet.007;
lastChange = "2024-05-05 02:07:47 +0000";
layers = (
{
layerId = "B33422F0-91E4-47C9-8809-C0A5C4DE8881";
shapes = (
{
closed = 1;
nodes = (
(188,231,o),
(135,209,o),
(107,177,cs),
(90,158,o),
(82,136,o),
(82,111,cs),
(82,102,o),
(83,93,o),
(86,84,cs),
(96,49,o),
(115,31,o),
(144,31,cs),
(163,31,o),
(182,38,o),
(201,53,cs),
(226,73,o),
(245,86,o),
(258,92,cs),
(279,102,o),
(300,106,o),
(323,104,cs),
(343,103,o),
(355,78,o),
(352,61,c),
(337,65,o),
(314,57,o),
(284,36,cs),
(254,16,o),
(220,1,o),
(183,-8,cs),
(156,-15,o),
(142,-33,o),
(142,-64,cs),
(142,-113,o),
(180,-155,o),
(229,-155,cs),
(235,-155,o),
(241,-154,o),
(248,-153,cs),
(297,-142,o),
(320,-115,o),
(315,-73,cs),
(312,-44,o),
(298,-27,o),
(273,-21,c),
(283,-14,o),
(295,-10,o),
(310,-10,cs),
(339,-10,o),
(366,-27,o),
(369,-52,cs),
(372,-82,o),
(362,-109,o),
(339,-134,cs),
(314,-161,o),
(280,-179,o),
(237,-186,cs),
(224,-188,o),
(210,-189,o),
(197,-189,cs),
(147,-189,o),
(111,-175,o),
(90,-146,cs),
(80,-132,o),
(75,-116,o),
(75,-97,cs),
(75,-56,o),
(93,-24,o),
(129,0,c),
(62,-2,o),
(22,25,o),
(9,80,cs),
(7,89,o),
(6,97,o),
(6,104,cs),
(6,137,o),
(24,167,o),
(59,196,cs),
(73,207,o),
(106,226,o),
(157,251,cs),
(238,290,l),
(249,297,o),
(255,306,o),
(255,317,cs),
(255,338,o),
(241,348,o),
(214,348,cs),
(191,348,o),
(167,340,o),
(141,323,cs),
(116,307,o),
(102,290,o),
(99,272,c),
(88,278,o),
(83,288,o),
(83,302,cs),
(83,319,o),
(89,334,o),
(100,348,cs),
(123,376,o),
(163,392,o),
(219,397,cs),
(276,402,o),
(324,378,o),
(324,338,cs),
(324,319,o),
(313,301,o),
(292,285,c),
(284,280,o),
(265,269,o),
(235,254,cs)
);
}
);
width = 370;
}
);
unicode = 3503;
},
{
color = (166,255,153,255);
glyphname = bullet.008;
lastChange = "2024-05-05 02:07:47 +0000";
layers = (
{
layerId = "B33422F0-91E4-47C9-8809-C0A5C4DE8881";
shapes = (
{
closed = 1;
nodes = (
(184,356,o),
(176,359,o),
(167,359,cs),
(145,359,o),
(127,351,o),
(112,336,cs),
(91,315,o),
(78,289,o),
(72,256,cs),
(69,239,o),
(67,220,o),
(67,199,cs),
(67,141,o),
(79,97,o),
(103,67,cs),
(124,40,o),
(152,27,o),
(186,27,cs),
(195,27,o),
(204,28,o),
(213,31,cs),
(253,44,o),
(284,78,o),
(307,134,cs),
(323,175,o),
(331,222,o),
(331,277,cs),
(331,321,o),
(326,355,o),
(317,380,cs),
(294,441,o),
(264,480,o),
(227,498,cs),
(208,507,o),
(188,511,o),
(165,511,cs),
(144,511,o),
(126,507,o),
(109,499,cs),
(88,489,o),
(78,475,o),
(78,456,cs),
(78,433,o),
(89,422,o),
(111,421,c),
(106,410,o),
(97,404,o),
(84,401,cs),
(77,400,o),
(70,399,o),
(65,399,cs),
(46,399,o),
(35,408,o),
(31,427,cs),
(28,442,o),
(32,457,o),
(41,473,cs),
(52,494,o),
(71,510,o),
(98,522,cs),
(121,533,o),
(151,538,o),
(188,538,cs),
(239,538,o),
(279,526,o),
(310,501,cs),
(364,458,o),
(391,389,o),
(391,294,cs),
(391,237,o),
(380,183,o),
(358,133,cs),
(338,88,o),
(309,53,o),
(272,27,cs),
(248,10,o),
(216,1,o),
(177,-1,cs),
(101,-6,o),
(50,19,o),
(25,73,cs),
(12,101,o),
(5,135,o),
(5,176,cs),
(5,197,o),
(7,217,o),
(12,236,cs),
(22,277,o),
(44,314,o),
(78,345,cs),
(117,381,o),
(158,398,o),
(201,397,cs),
(230,396,o),
(253,383,o),
(269,359,cs),
(282,338,o),
(288,312,o),
(288,281,cs),
(288,246,o),
(279,215,o),
(261,187,cs),
(240,156,o),
(214,140,o),
(181,140,cs),
(158,140,o),
(141,148,o),
(128,164,cs),
(117,177,o),
(112,195,o),
(111,216,cs),
(110,243,o),
(115,268,o),
(126,292,cs),
(141,323,o),
(163,342,o),
(192,351,c)
);
},
{
closed = 1;
nodes = (
(164,263,o),
(163,251,o),
(163,240,cs),
(163,201,o),
(173,180,o),
(193,176,cs),
(208,173,o),
(219,185,o),
(227,213,cs),
(232,230,o),
(234,246,o),
(234,262,cs),
(234,289,o),
(227,313,o),
(214,333,c),
(189,325,o),
(174,306,o),
(167,276,cs)
);
}
);
width = 400;
}
);
unicode = 3512;
},
{
color = (166,255,153,255);
glyphname = bullet.009;
lastChange = "2024-05-05 02:07:47 +0000";
layers = (
{
layerId = "B33422F0-91E4-47C9-8809-C0A5C4DE8881";
shapes = (
{
closed = 1;
nodes = (
(87,189,o),
(73,187,o),
(51,185,cs),
(35,183,o),
(21,177,o),
(9,168,c),
(5,175,o),
(3,181,o),
(3,188,cs),
(3,208,o),
(16,222,o),
(42,229,cs),
(52,232,o),
(74,235,o),
(109,238,cs),
(132,240,o),
(152,248,o),
(168,261,cs),
(177,268,o),
(182,281,o),
(182,300,cs),
(182,331,o),
(165,343,o),
(142,343,cs),
(123,343,o),
(103,335,o),
(84,319,cs),
(65,304,o),
(55,287,o),
(54,270,c),
(47,276,o),
(43,288,o),
(43,306,cs),
(43,319,o),
(45,330,o),
(50,339,cs),
(63,363,o),
(84,380,o),
(112,390,cs),
(132,397,o),
(150,400,o),
(166,398,cs),
(214,393,o),
(237,357,o),
(232,312,cs),
(229,289,o),
(218,266,o),
(198,243,cs),
(179,223,o),
(160,210,o),
(141,204,c),
(142,202,o),
(143,200,o),
(143,199,cs),
(143,198,o),
(138,191,o),
(129,177,cs),
(120,163,o),
(116,145,o),
(115,124,cs),
(113,72,o),
(127,45,o),
(157,42,cs),
(180,40,o),
(206,77,o),
(234,152,cs),
(245,180,o),
(266,194,o),
(299,194,cs),
(305,194,o),
(310,194,o),
(315,193,c),
(304,175,o),
(298,153,o),
(297,127,cs),
(295,92,o),
(302,64,o),
(319,42,cs),
(325,35,o),
(334,31,o),
(345,31,cs),
(360,31,o),
(371,35,o),
(379,43,cs),
(401,65,o),
(412,97,o),
(412,140,cs),
(412,165,o),
(404,197,o),
(387,234,c),
(371,272,o),
(363,301,o),
(363,321,cs),
(363,364,o),
(400,396,o),
(443,396,cs),
(474,396,o),
(493,383,o),
(502,357,c),
(457,348,o),
(435,328,o),
(435,299,cs),
(435,287,o),
(438,271,o),
(444,252,cs),
(454,218,l),
(457,201,o),
(459,185,o),
(459,170,cs),
(459,121,o),
(442,77,o),
(408,36,cs),
(392,17,o),
(373,6,o),
(351,1,cs),
(318,-6,o),
(292,-2,o),
(272,13,cs),
(255,26,o),
(244,44,o),
(237,69,c),
(226,55,o),
(219,45,o),
(214,40,cs),
(205,31,o),
(195,23,o),
(182,14,cs),
(167,4,o),
(149,-1,o),
(127,-1,cs),
(101,-1,o),
(81,9,o),
(68,30,cs),
(57,48,o),
(52,71,o),
(53,99,cs),
(54,126,o),
(62,149,o),
(77,168,cs),
(89,183,o),
(95,191,o),
(94,192,c)
);
}
);
width = 502;
}
);
unicode = 3523;
},
{
color = (166,255,153,255);
glyphname = emdash.002;
lastChange = "2024-05-05 02:07:47 +0000";
layers = (
{
layerId = "B33422F0-91E4-47C9-8809-C0A5C4DE8881";
shapes = (
{
closed = 1;
nodes = (
(166,271,o),
(136,280,o),
(131,296,cs),
(130,301,o),
(129,305,o),
(129,310,cs),
(129,331,o),
(142,349,o),
(169,366,cs),
(190,379,o),
(215,388,o),
(243,393,cs),
(283,400,o),
(325,399,o),
(368,390,cs),
(401,383,o),
(423,370,o),
(434,352,cs),
(440,341,o),
(443,331,o),
(443,320,cs),
(443,301,o),
(434,286,o),
(417,277,cs),
(385,260,o),
(338,243,o),
(276,226,cs),
(187,202,o),
(130,172,o),
(106,137,cs),
(85,106,o),
(74,71,o),
(74,32,cs),
(74,10,o),
(78,-11,o),
(86,-32,cs),
(116,-111,o),
(175,-150,o),
(263,-150,cs),
(317,-150,o),
(359,-136,o),
(389,-108,cs),
(411,-87,o),
(421,-61,o),
(420,-29,c),
(417,1,l),
(415,9,o),
(410,17,o),
(402,25,cs),
(388,40,o),
(370,48,o),
(349,49,c),
(366,68,o),
(386,77,o),
(409,77,cs),
(440,77,o),
(473,59,o),
(473,12,cs),
(473,-15,o),
(465,-43,o),
(450,-74,cs),
(433,-108,o),
(406,-135,o),
(369,-156,cs),
(337,-174,o),
(303,-184,o),
(268,-187,cs),
(257,-188,o),
(245,-188,o),
(234,-188,cs),
(135,-188,o),
(67,-158,o),
(32,-97,cs),
(12,-62,o),
(3,-24,o),
(4,19,cs),
(6,79,o),
(27,127,o),
(67,162,cs),
(96,188,o),
(131,209,o),
(170,224,c),
(300,264,ls),
(350,279,o),
(375,295,o),
(375,311,cs),
(375,315,o),
(374,319,o),
(372,322,cs),
(363,341,o),
(344,355,o),
(317,366,cs),
(304,371,o),
(291,373,o),
(276,373,cs),
(237,373,o),
(211,362,o),
(199,340,cs),
(187,319,o),
(185,297,o),
(194,274,c)
);
},
{
closed = 1;
nodes = (
(606,386,o),
(596,399,o),
(575,399,cs),
(568,399,o),
(559,397,o),
(549,393,cs),
(527,384,o),
(507,360,o),
(490,319,cs),
(480,295,o),
(475,268,o),
(475,238,cs),
(475,191,o),
(486,163,o),
(508,154,cs),
(517,151,o),
(525,149,o),
(534,149,cs),
(559,149,o),
(579,162,o),
(592,188,cs),
(597,199,o),
(607,230,o),
(621,282,cs),
(632,323,o),
(643,345,o),
(654,348,cs),
(657,349,o),
(661,350,o),
(664,350,cs),
(677,350,o),
(687,335,o),
(693,306,cs),
(698,285,o),
(700,261,o),
(700,234,cs),
(700,200,o),
(696,166,o),
(689,133,cs),
(674,66,o),
(631,32,o),
(584,35,cs),
(547,38,o),
(521,64,o),
(507,115,c),
(490,102,o),
(482,86,o),
(482,68,cs),
(482,45,o),
(492,28,o),
(511,15,cs),
(528,4,o),
(548,-1,o),
(571,-1,cs),
(603,-1,o),
(632,8,o),
(657,26,cs),
(688,48,o),
(712,83,o),
(730,131,cs),
(745,174,o),
(753,217,o),
(753,260,cs),
(753,343,o),
(733,388,o),
(692,397,cs),
(687,398,o),
(683,398,o),
(678,398,cs),
(646,398,o),
(620,367,o),
(599,305,c),
(593,284,o),
(587,264,o),
(582,243,c),
(571,210,o),
(562,194,o),
(554,194,cs),
(541,194,o),
(533,202,o),
(528,217,cs),
(523,235,o),
(520,254,o),
(520,275,cs),
(520,310,o),
(526,337,o),
(538,354,cs),
(545,365,o),
(555,370,o),
(567,370,cs),
(576,370,o),
(588,367,o),
(603,360,c)
);
}
);
width = 764;
}
);
unicode = 3468;
},
{
color = (166,255,153,255);
glyphname = emdash.003;
lastChange = "2024-05-05 02:07:47 +0000";
layers = (
{
layerId = "B33422F0-91E4-47C9-8809-C0A5C4DE8881";
shapes = (
{
closed = 1;
nodes = (
(158,235,o),
(170,223,o),
(193,217,cs),
(209,213,o),
(222,223,o),
(231,247,cs),
(235,258,o),
(237,268,o),
(237,278,cs),
(237,295,o),
(229,314,o),
(214,333,c),
(202,330,o),
(190,319,o),
(177,301,cs),
(164,283,o),
(158,267,o),
(158,254,cs)
);
},
{
closed = 1;
nodes = (
(255,-1,o),
(244,-2,o),
(229,-1,cs),
(214,0,o),
(204,3,o),
(197,8,cs),
(185,18,o),
(177,30,o),
(173,44,cs),
(171,54,o),
(169,64,o),
(168,74,c),
(137,7,o),
(120,-10,o),
(80,1,cs),
(47,10,o),
(25,33,o),
(15,69,cs),
(7,98,o),
(3,129,o),
(3,163,cs),
(3,190,o),
(6,215,o),
(12,237,cs),
(23,279,o),
(45,315,o),
(78,345,cs),
(117,381,o),
(158,398,o),
(201,397,cs),
(254,396,o),
(287,348,o),
(287,295,cs),
(287,270,o),
(280,247,o),
(267,226,cs),
(252,201,o),
(229,184,o),
(200,175,cs),
(190,172,o),
(181,170,o),
(173,170,cs),
(154,170,o),
(138,180,o),
(124,199,cs),
(115,211,o),
(111,226,o),
(111,244,cs),
(111,261,o),
(114,276,o),
(121,287,cs),
(141,322,o),
(165,343,o),
(192,351,c),
(184,356,o),
(176,359,o),
(167,359,cs),
(145,359,o),
(127,351,o),
(112,336,cs),
(79,303,o),
(63,247,o),
(63,168,cs),
(63,114,o),
(74,73,o),
(96,46,cs),
(99,43,o),
(102,41,o),
(105,41,cs),
(112,41,o),
(120,50,o),
(129,68,cs),
(157,124,ls),
(166,143,o),
(181,153,o),
(201,153,cs),
(206,153,o),
(215,152,o),
(226,150,c),
(220,133,o),
(217,119,o),
(218,110,cs),
(219,87,o),
(221,62,o),
(230,49,cs),
(236,40,o),
(243,36,o),
(251,36,cs),
(275,36,o),
(301,74,o),
(314,126,cs),
(325,169,o),
(330,218,o),
(330,272,cs),
(330,321,o),
(326,357,o),
(317,380,cs),
(294,441,o),
(264,480,o),
(227,498,cs),
(208,507,o),
(188,511,o),
(165,511,cs),
(144,511,o),
(126,507,o),
(109,499,cs),
(88,489,o),
(78,475,o),
(78,456,cs),
(78,433,o),
(89,422,o),
(111,421,c),
(106,410,o),
(97,404,o),
(84,401,cs),
(77,400,o),
(70,399,o),
(65,399,cs),
(46,399,o),
(35,408,o),
(31,427,cs),
(28,442,o),
(32,457,o),
(41,473,cs),
(52,494,o),
(71,510,o),
(98,522,cs),
(121,533,o),
(151,538,o),
(188,538,cs),
(239,538,o),
(279,526,o),
(310,501,cs),
(365,458,o),
(392,385,o),
(392,283,cs),
(392,223,o),
(382,171,o),
(362,126,cs),
(334,62,o),
(301,21,o),
(263,3,cs)
);
}
);
width = 402;
}
);
unicode = 3476;
},
{
color = (166,255,153,255);
glyphname = emdash.005;
lastChange = "2024-05-05 02:07:47 +0000";
layers = (
{
layerId = "B33422F0-91E4-47C9-8809-C0A5C4DE8881";
shapes = (
{
closed = 1;
nodes = (
(361,390,o),
(379,360,o),
(383,343,cs),
(386,327,o),
(388,311,o),
(388,296,cs),
(388,259,o),
(378,221,o),
(358,183,c),
(361,171,o),
(362,159,o),
(362,148,cs),
(362,60,o),
(295,-2,o),
(176,-2,cs),
(155,-2,o),
(133,0,o),
(110,4,cs),
(80,9,o),
(55,21,o),
(36,40,cs),
(14,61,o),
(3,85,o),
(4,114,cs),
(5,153,o),
(25,189,o),
(65,221,c),
(75,231,o),
(92,246,o),
(115,266,cs),
(129,277,o),
(136,291,o),
(136,308,cs),
(136,329,o),
(118,347,o),
(97,347,cs),
(69,347,o),
(41,320,o),
(36,287,c),
(26,295,o),
(21,308,o),
(21,325,cs),
(21,336,o),
(23,345,o),
(27,353,cs),
(44,383,o),
(69,398,o),
(104,398,cs),
(109,398,o),
(118,397,o),
(132,396,cs),
(175,391,o),
(197,368,o),
(197,326,cs),
(197,319,o),
(196,311,o),
(194,304,cs),
(190,288,o),
(173,268,o),
(144,244,cs),
(111,217,o),
(91,197,o),
(84,184,cs),
(75,168,o),
(71,151,o),
(71,134,cs),
(71,103,o),
(81,79,o),
(100,61,cs),
(121,41,o),
(148,30,o),
(180,29,cs),
(218,28,o),
(251,36,o),
(280,55,cs),
(305,71,o),
(315,98,o),
(311,135,c),
(294,109,o),
(266,96,o),
(228,96,cs),
(215,96,o),
(204,99,o),
(195,104,cs),
(166,121,o),
(152,150,o),
(154,189,cs),
(155,220,o),
(177,252,o),
(218,285,c),
(213,297,o),
(210,310,o),
(210,325,cs),
(210,340,o),
(213,353,o),
(219,362,cs),
(234,387,o),
(260,400,o),
(295,400,cs),
(301,400,o),
(307,400,o),
(314,399,c),
(325,414,o),
(337,435,o),
(350,462,cs),
(355,471,o),
(362,492,o),
(372,524,c),
(379,555,o),
(380,579,o),
(374,598,cs),
(371,607,o),
(363,616,o),
(352,624,c),
(361,629,o),
(370,631,o),
(379,631,cs),
(406,631,o),
(422,618,o),
(428,593,cs),
(431,580,o),
(428,558,o),
(419,528,cs),
(416,520,o),
(407,497,o),
(390,459,cs),
(381,438,o),
(367,416,o),
(350,394,c)
);
},
{
closed = 1;
nodes = (
(219,241,o),
(212,227,o),
(210,210,cs),
(206,177,o),
(224,143,o),
(253,142,cs),
(263,141,o),
(278,149,o),
(298,166,c),
(261,205,o),
(239,234,o),
(232,253,c)
);
},
{
closed = 1;
nodes = (
(268,290,l),
(280,274,o),
(300,251,o),
(328,222,c),
(339,241,o),
(345,264,o),
(344,289,cs),
(343,311,o),
(337,333,o),
(324,356,c),
(321,351,o),
(311,339,o),
(296,321,c)
);
},
{
closed = 1;
nodes = (
(275,343,l),
(295,370,l),
(284,375,o),
(274,375,o),
(266,370,cs),
(255,364,o),
(249,354,o),
(249,340,cs),
(249,333,o),
(250,327,o),
(253,320,c)
);
}
);
width = 391;
}
);
unicode = 3489;
},
{
color = (166,255,153,255);
glyphname = emdash.006;
lastChange = "2024-05-22 12:46:55 +0000";
layers = (
{
anchors = (
{
name = bottom;
pos = (387,102);
}
);
layerId = "B33422F0-91E4-47C9-8809-C0A5C4DE8881";
shapes = (
{
closed = 1;
nodes = (
(151,48,o),
(172,76,o),
(194,133,cs),
(205,161,o),
(227,175,o),
(259,175,cs),
(265,175,o),
(270,175,o),
(275,174,c),
(266,158,o),
(259,136,o),
(256,108,cs),
(252,77,o),
(255,56,o),
(265,43,cs),
(270,36,o),
(277,33,o),
(286,33,cs),
(299,33,o),
(309,38,o),
(317,49,cs),
(340,80,o),
(354,127,o),
(357,191,cs),
(361,268,o),
(356,331,o),
(342,380,cs),
(325,437,o),
(295,477,o),
(252,498,cs),
(233,507,o),
(213,511,o),
(190,511,cs),
(170,511,o),
(152,507,o),
(135,499,cs),
(114,489,o),
(103,475,o),
(103,457,cs),
(103,438,o),
(114,428,o),
(136,427,c),
(131,416,o),
(122,410,o),
(109,407,cs),
(102,406,o),
(95,405,o),
(90,405,cs),
(71,405,o),
(60,414,o),
(56,433,cs),
(49,468,o),
(71,498,o),
(123,522,cs),
(146,533,o),
(176,538,o),
(213,538,cs),
(264,538,o),
(304,526,o),
(335,501,cs),
(390,457,o),
(418,386,o),
(418,289,cs),
(418,240,o),
(412,192,o),
(401,144,cs),
(392,106,o),
(377,71,o),
(354,39,cs),
(339,18,o),
(320,6,o),
(297,1,cs),
(265,-6,o),
(240,-1,o),
(221,15,cs),
(205,28,o),
(197,48,o),
(197,73,c),
(182,43,o),
(165,22,o),
(148,10,cs),
(137,2,o),
(122,-2,o),
(105,-1,cs),
(64,0,o),
(27,21,o),
(27,90,cs),
(27,120,o),
(41,151,o),
(68,183,c),
(80,194,o),
(95,210,o),
(114,229,c),
(97,219,o),
(74,209,o),
(43,199,cs),
(28,194,o),
(18,192,o),
(11,192,cs),
(2,192,o),
(-4,195,o),
(-6,202,cs),
(-11,221,o),
(15,252,o),
(46,265,cs),
(66,274,o),
(86,278,o),
(105,278,cs),
(117,278,o),
(127,276,o),
(134,272,c),
(149,277,o),
(164,286,o),
(180,297,cs),
(189,304,o),
(194,313,o),
(194,324,cs),
(194,341,o),
(183,349,o),
(161,349,cs),
(132,349,o),
(97,327,o),
(89,300,c),
(76,305,o),
(70,316,o),
(70,332,cs),
(70,344,o),
(74,355,o),
(83,365,cs),
(102,387,o),
(137,398,o),
(189,398,cs),
(228,398,o),
(253,374,o),
(253,343,cs),
(253,336,o),
(251,328,o),
(248,321,cs),
(235,292,o),
(204,267,o),
(153,246,c),
(153,241,o),
(148,232,o),
(139,218,cs),
(103,165,ls),
(94,151,o),
(90,134,o),
(90,113,cs),
(90,70,o),
(104,48,o),
(131,48,cs)
);
}
);
width = 429;
}
);
unicode = 3497;
},
{
color = (166,255,153,255);
glyphname = emdash.007;
lastChange = "2024-05-05 02:07:47 +0000";
layers = (
{
layerId = "B33422F0-91E4-47C9-8809-C0A5C4DE8881";
shapes = (
{
closed = 1;
nodes = (
(77,54,o),
(106,33,o),
(146,32,cs),
(199,30,o),
(233,56,o),
(247,109,cs),
(254,138,o),
(255,166,o),
(250,193,cs),
(242,230,o),
(228,249,o),
(207,249,cs),
(202,249,o),
(197,248,o),
(192,246,c),
(179,214,o),
(156,179,o),
(122,142,cs),
(102,120,o),
(81,104,o),
(60,94,c)
);
},
{
closed = 1;
nodes = (
(271,0,o),
(255,9,o),
(255,25,cs),
(255,44,o),
(268,54,o),
(293,55,c),
(289,49,o),
(287,44,o),
(287,39,cs),
(287,30,o),
(293,25,o),
(305,25,cs),
(312,25,o),
(317,27,o),
(322,30,cs),
(355,52,o),
(376,103,o),
(385,183,cs),
(386,193,o),
(387,203,o),
(387,213,cs),
(387,281,o),
(363,339,o),
(324,354,cs),
(317,357,o),
(311,358,o),
(304,358,cs),
(277,358,o),
(253,343,o),
(230,312,cs),
(227,307,o),
(222,299,o),
(214,288,c),
(221,289,o),
(228,290,o),
(234,290,cs),
(275,290,o),
(299,266,o),
(308,217,cs),
(309,209,o),
(310,201,o),
(310,192,cs),
(310,146,o),
(297,105,o),
(270,68,cs),
(243,31,o),
(209,9,o),
(168,1,cs),
(154,-2,o),
(140,-3,o),
(127,-3,cs),
(96,-3,o),
(70,4,o),
(49,17,cs),
(35,26,o),
(24,39,o),
(15,56,cs),
(4,77,o),
(1,102,o),
(6,131,c),
(6,131,o),
(27,144,o),
(30,141,c),
(34,127,o),
(42,123,o),
(54,128,cs),
(89,144,o),
(119,175,o),
(144,220,cs),
(166,259,o),
(177,292,o),
(177,317,cs),
(177,326,o),
(176,334,o),
(174,341,cs),
(171,355,o),
(161,362,o),
(146,362,cs),
(132,362,o),
(120,355,o),
(109,340,cs),
(103,332,o),
(100,323,o),
(100,312,cs),
(100,299,o),
(104,286,o),
(111,275,c),
(100,269,o),
(90,266,o),
(81,266,cs),
(58,266,o),
(47,280,o),
(47,308,cs),
(47,320,o),
(50,331,o),
(56,342,cs),
(77,379,o),
(106,397,o),
(143,397,cs),
(151,397,o),
(159,396,o),
(166,394,cs),
(182,389,o),
(193,378,o),
(199,361,cs),
(204,347,o),
(205,334,o),
(203,322,c),
(216,341,o),
(229,363,o),
(258,380,cs),
(277,391,o),
(301,397,o),
(332,397,cs),
(349,397,o),
(363,395,o),
(374,391,cs),
(423,373,o),
(447,321,o),
(447,234,cs),
(447,215,o),
(445,196,o),
(442,177,cs),
(430,104,o),
(402,51,o),
(359,19,cs),
(339,4,o),
(320,-3,o),
(302,-2,cs)
);
}
);
width = 456;
}
);
unicode = 3505;
},
{
color = (166,255,153,255);
glyphname = emdash.008;
lastChange = "2024-05-05 02:07:47 +0000";
layers = (
{
layerId = "B33422F0-91E4-47C9-8809-C0A5C4DE8881";
shapes = (
{
closed = 1;
nodes = (
(204,342,o),
(181,370,o),
(154,370,cs),
(147,370,o),
(139,368,o),
(132,364,cs),
(115,355,o),
(100,335,o),
(87,306,cs),
(72,273,o),
(65,235,o),
(65,193,cs),
(65,91,o),
(81,41,o),
(114,43,cs),
(128,44,o),
(140,54,o),
(151,75,c),
(181,152,ls),
(192,180,o),
(213,194,o),
(246,194,cs),
(252,194,o),
(257,194,o),
(262,193,c),
(251,174,o),
(244,152,o),
(243,127,c),
(240,88,o),
(247,60,o),
(264,43,cs),
(271,36,o),
(281,32,o),
(294,32,cs),
(308,32,o),
(319,36,o),
(328,44,cs),
(350,63,o),
(361,96,o),
(360,143,cs),
(359,173,o),
(353,201,o),
(340,228,cs),
(321,266,o),
(312,297,o),
(312,321,cs),
(312,365,o),
(349,397,o),
(394,397,cs),
(423,397,o),
(442,384,o),
(451,357,c),
(406,352,o),
(383,334,o),
(383,303,cs),
(383,290,o),
(386,274,o),
(392,253,c),
(396,242,o),
(400,230,o),
(403,218,cs),
(406,201,o),
(408,185,o),
(408,170,cs),
(408,121,o),
(391,77,o),
(357,36,cs),
(342,19,o),
(323,7,o),
(300,1,cs),
(292,-1,o),
(283,-2,o),
(274,-2,cs),
(251,-2,o),
(233,4,o),
(220,15,cs),
(203,30,o),
(191,50,o),
(184,76,c),
(152,9,o),
(124,-3,o),
(95,-2,cs),
(70,-1,o),
(49,9,o),
(33,30,cs),
(14,54,o),
(5,91,o),
(5,142,cs),
(5,196,o),
(17,248,o),
(40,298,cs),
(69,361,o),
(111,394,o),
(166,397,cs),
(196,399,o),
(217,390,o),
(230,370,cs),
(233,365,o),
(235,359,o),
(235,353,cs),
(235,330,o),
(226,316,o),
(208,310,c)
);
}
);
width = 442;
}
);
unicode = 3514;
},
{
color = (166,255,153,255);
glyphname = emdash.009;
lastChange = "2024-05-05 02:07:47 +0000";
layers = (
{
layerId = "B33422F0-91E4-47C9-8809-C0A5C4DE8881";
shapes = (
{
closed = 1;
nodes = (
(87,249,o),
(87,257,o),
(87,265,cs),
(87,334,o),
(129,391,o),
(194,398,cs),
(237,403,o),
(267,387,o),
(282,350,c),
(297,382,o),
(323,398,o),
(360,398,cs),
(411,398,o),
(444,354,o),
(444,303,cs),
(444,276,o),
(437,249,o),
(422,222,c),
(398,251,o),
(361,268,o),
(310,274,cs),
(295,276,o),
(281,277,o),
(267,277,cs),
(216,277,o),
(177,265,o),
(150,242,c),
(155,206,o),
(169,173,o),
(192,143,cs),
(221,104,o),
(257,84,o),
(302,82,cs),
(342,81,o),
(375,108,o),
(372,144,cs),
(370,170,o),
(356,187,o),
(330,194,c),
(341,206,o),
(355,211,o),
(374,210,cs),
(403,209,o),
(423,183,o),
(424,152,cs),
(425,123,o),
(409,98,o),
(377,79,cs),
(348,62,o),
(313,54,o),
(273,54,cs),
(243,54,o),
(217,59,o),
(194,70,cs),
(143,95,o),
(111,135,o),
(100,190,c),
(87,174,o),
(71,129,o),
(70,97,cs),
(69,64,o),
(71,36,o),
(77,13,cs),
(86,-20,o),
(100,-47,o),
(119,-68,cs),
(142,-94,o),
(171,-111,o),
(206,-120,cs),
(243,-129,o),
(276,-131,o),
(303,-126,cs),
(357,-116,o),
(384,-93,o),
(383,-58,c),
(383,-39,o),
(373,-21,o),
(352,-5,c),
(366,4,o),
(380,8,o),
(393,8,cs),
(424,8,o),
(440,-9,o),
(439,-42,cs),
(438,-67,o),
(422,-93,o),
(389,-118,cs),
(356,-143,o),
(313,-158,o),
(260,-161,cs),
(159,-168,o),
(70,-132,o),
(29,-55,cs),
(13,-24,o),
(5,12,o),
(5,54,cs),
(5,88,o),
(11,120,o),
(22,150,c),
(37,187,o),
(59,218,o),
(88,242,c)
);
},
{
closed = 1;
nodes = (
(163,286,o),
(179,293,o),
(195,297,cs),
(220,303,o),
(241,306,o),
(260,306,c),
(263,334,o),
(241,374,o),
(212,374,cs),
(167,374,o),
(144,350,o),
(144,302,cs),
(144,294,o),
(145,286,o),
(146,277,c)
);
},
{
closed = 1;
nodes = (
(352,298,ls),
(364,296,o),
(375,293,o),
(384,288,c),
(393,300,o),
(397,314,o),
(397,329,cs),
(397,350,o),
(390,364,o),
(376,370,cs),
(371,372,o),
(366,373,o),
(361,373,cs),
(336,373,o),
(319,350,o),
(310,304,c)
);
}
);
width = 454;
}
);
unicode = 3525;
},
{
color = (166,255,153,255);
glyphname = endash.002;
lastChange = "2024-05-05 02:07:47 +0000";
layers = (
{
layerId = "B33422F0-91E4-47C9-8809-C0A5C4DE8881";
shapes = (
{
closed = 1;
nodes = (
(166,271,o),
(136,280,o),
(131,296,cs),
(130,301,o),
(129,305,o),
(129,310,cs),
(129,331,o),
(142,349,o),
(169,366,cs),
(190,379,o),
(215,388,o),
(243,393,cs),
(283,400,o),
(325,399,o),
(368,390,cs),
(401,383,o),
(423,370,o),
(434,352,cs),
(440,341,o),
(443,331,o),
(443,320,cs),
(443,301,o),
(434,286,o),
(417,277,cs),
(385,260,o),
(338,243,o),
(276,226,cs),
(187,202,o),
(130,172,o),
(106,137,cs),
(85,106,o),
(74,71,o),
(74,32,cs),
(74,10,o),
(78,-11,o),
(86,-32,cs),
(116,-111,o),
(175,-150,o),
(263,-150,cs),
(317,-150,o),
(359,-136,o),
(389,-108,cs),
(411,-87,o),
(421,-61,o),
(420,-29,c),
(417,1,l),
(415,9,o),
(410,17,o),
(402,25,cs),
(388,40,o),
(370,48,o),
(349,49,c),
(366,68,o),
(386,77,o),
(409,77,cs),
(440,77,o),
(473,59,o),
(473,12,cs),
(473,-15,o),
(465,-43,o),
(450,-74,cs),
(433,-108,o),
(406,-135,o),
(369,-156,cs),
(337,-174,o),
(303,-184,o),
(268,-187,cs),
(257,-188,o),
(245,-188,o),
(234,-188,cs),
(135,-188,o),
(67,-158,o),
(32,-97,cs),
(12,-62,o),
(3,-24,o),
(4,19,cs),
(6,79,o),
(27,127,o),
(67,162,cs),
(96,188,o),
(131,209,o),
(170,224,c),
(300,264,ls),
(350,279,o),
(375,295,o),
(375,311,cs),
(375,315,o),
(374,319,o),
(372,322,cs),
(363,341,o),
(344,355,o),
(317,366,cs),
(304,371,o),
(291,373,o),
(276,373,cs),
(237,373,o),
(211,362,o),
(199,340,cs),
(187,319,o),
(185,297,o),
(194,274,c)
);
}
);
width = 479;
}
);
unicode = 3467;
},
{
color = (166,255,153,255);
glyphname = endash.003;
lastChange = "2024-05-05 02:07:47 +0000";
layers = (
{
layerId = "B33422F0-91E4-47C9-8809-C0A5C4DE8881";
shapes = (
{
closed = 1;
nodes = (
(341,285,o),
(353,303,o),
(353,328,cs),
(353,335,o),
(352,342,o),
(349,349,cs),
(337,378,o),
(288,397,o),
(235,397,cs),
(220,397,o),
(206,396,o),
(193,393,cs),
(141,383,o),
(97,356,o),
(62,313,cs),
(21,263,o),
(3,206,o),
(6,143,cs),
(10,59,o),
(67,-2,o),
(150,-2,cs),
(187,-2,o),
(221,8,o),
(252,28,cs),
(285,49,o),
(308,78,o),
(319,114,cs),
(326,137,o),
(330,159,o),
(330,179,cs),
(330,224,o),
(312,259,o),
(276,283,cs),
(263,292,o),
(247,296,o),
(228,296,cs),
(205,296,o),
(183,290,o),
(164,278,cs),
(143,265,o),
(128,248,o),
(120,226,cs),
(116,215,o),
(114,204,o),
(114,193,cs),
(114,156,o),
(138,130,o),
(174,130,cs),
(203,130,o),
(222,143,o),
(232,168,c),
(203,161,o),
(171,178,o),
(171,218,cs),
(171,247,o),
(182,265,o),
(203,270,cs),
(218,273,o),
(231,266,o),
(244,249,cs),
(253,237,o),
(260,223,o),
(265,206,cs),
(270,187,o),
(273,168,o),
(273,147,cs),
(273,86,o),
(253,50,o),
(212,38,cs),
(201,35,o),
(190,33,o),
(179,33,cs),
(150,33,o),
(124,45,o),
(100,69,c),
(77,94,o),
(65,131,o),
(65,182,cs),
(65,197,o),
(66,212,o),
(69,227,cs),
(76,265,o),
(92,297,o),
(118,324,cs),
(147,353,o),
(179,368,o),
(216,368,cs),
(275,368,o),
(315,334,o),
(318,273,c)
);
},
{
closed = 1;
nodes = (
(411,133,o),
(426,156,o),
(443,185,c),
(420,168,o),
(401,155,o),
(385,147,cs),
(376,142,o),
(367,140,o),
(359,140,cs),
(351,140,o),
(346,143,o),
(344,150,cs),
(342,157,o),
(344,167,o),
(349,180,cs),
(356,195,o),
(366,208,o),
(379,218,cs),
(396,231,o),
(416,238,o),
(439,238,cs),
(450,238,o),
(459,236,o),
(467,231,c),
(496,255,o),
(513,272,o),
(518,281,cs),
(523,291,o),
(526,301,o),
(526,311,cs),
(526,330,o),
(512,343,o),
(489,343,cs),
(470,343,o),
(450,335,o),
(431,319,cs),
(412,304,o),
(402,287,o),
(401,270,c),
(394,276,o),
(390,288,o),
(390,306,cs),
(390,319,o),
(392,330,o),
(397,339,cs),
(410,363,o),
(431,380,o),
(459,390,cs),
(479,397,o),
(497,400,o),
(513,398,cs),
(561,393,o),
(584,357,o),
(579,312,cs),
(576,283,o),
(544,248,o),
(485,207,c),
(488,194,o),
(483,174,o),
(469,147,cs),
(460,130,o),
(455,112,o),
(455,93,cs),
(455,54,o),
(487,33,o),
(528,33,cs),
(539,33,o),
(550,35,o),
(562,38,cs),
(610,52,o),
(643,84,o),
(662,134,cs),
(677,173,o),
(684,217,o),
(684,266,cs),
(684,359,o),
(660,413,o),
(625,453,cs),
(605,477,o),
(583,495,o),
(558,507,cs),
(537,517,o),
(515,523,o),
(490,525,c),
(493,514,o),
(499,503,o),
(506,493,cs),
(519,476,o),
(534,465,o),
(553,460,cs),
(577,453,o),
(594,454,o),
(605,463,c),
(610,436,o),
(593,423,o),
(553,423,cs),
(541,423,o),
(530,425,o),
(519,428,cs),
(490,436,o),
(467,454,o),
(452,481,cs),
(448,488,o),
(445,501,o),
(444,518,cs),
(443,535,o),
(445,548,o),
(448,557,c),
(469,551,o),
(488,548,o),
(504,547,cs),
(521,546,o),
(545,544,o),
(577,539,c),
(612,529,o),
(639,516,o),
(657,501,cs),
(713,453,o),
(741,388,o),
(741,305,cs),
(741,248,o),
(730,193,o),
(708,140,cs),
(690,95,o),
(662,60,o),
(623,34,cs),
(588,10,o),
(545,-2,o),
(495,-2,cs),
(432,-2,o),
(397,17,o),
(389,55,cs),
(385,74,o),
(388,94,o),
(398,116,c)
);
}
);
width = 751;
}
);
unicode = 3475;
},
{
color = (166,255,153,255);
glyphname = endash.005;
lastChange = "2024-05-05 02:07:47 +0000";
layers = (
{
layerId = "B33422F0-91E4-47C9-8809-C0A5C4DE8881";
shapes = (
{
closed = 1;
nodes = (
(30,71,o),
(28,84,o),
(28,95,cs),
(28,115,o),
(34,133,o),
(46,148,cs),
(54,159,o),
(67,172,o),
(84,188,cs),
(101,204,o),
(112,217,o),
(117,227,c),
(110,224,o),
(83,214,o),
(36,199,cs),
(23,195,o),
(14,193,o),
(9,193,cs),
(1,193,o),
(-4,196,o),
(-5,202,cs),
(-11,225,o),
(3,244,o),
(37,259,cs),
(62,270,o),
(86,276,o),
(109,276,cs),
(123,276,o),
(134,273,o),
(143,268,c),
(172,279,o),
(192,298,o),
(192,317,cs),
(192,322,o),
(190,328,o),
(186,333,cs),
(180,342,o),
(169,346,o),
(153,346,cs),
(134,346,o),
(117,341,o),
(100,330,cs),
(81,319,o),
(71,305,o),
(70,290,c),
(62,296,o),
(58,308,o),
(58,325,cs),
(58,337,o),
(61,347,o),
(66,355,cs),
(76,370,o),
(93,381,o),
(118,389,cs),
(141,397,o),
(162,400,o),
(182,398,cs),
(222,394,o),
(249,370,o),
(249,338,cs),
(249,331,o),
(248,325,o),
(246,318,cs),
(240,300,o),
(226,283,o),
(203,268,c),
(188,261,o),
(174,253,o),
(159,245,c),
(158,235,o),
(145,213,o),
(119,178,cs),
(103,157,o),
(95,134,o),
(95,109,cs),
(95,89,o),
(99,74,o),
(108,65,cs),
(127,44,o),
(154,33,o),
(189,33,cs),
(202,33,o),
(216,35,o),
(231,38,c),
(274,49,o),
(315,90,o),
(331,134,cs),
(346,173,o),
(353,217,o),
(353,266,cs),
(353,313,o),
(347,351,o),
(336,380,cs),
(313,439,o),
(283,479,o),
(244,498,cs),
(224,508,o),
(202,513,o),
(177,513,cs),
(156,513,o),
(138,509,o),
(122,501,c),
(101,492,o),
(91,478,o),
(91,460,cs),
(91,435,o),
(102,422,o),
(125,421,c),
(118,406,o),
(103,399,o),
(81,399,cs),
(55,399,o),
(42,413,o),
(42,441,cs),
(42,477,o),
(65,505,o),
(110,526,cs),
(133,537,o),
(164,542,o),
(201,542,cs),
(254,542,o),
(296,529,o),
(328,504,cs),
(382,461,o),
(409,391,o),
(409,294,cs),
(409,179,o),
(369,86,o),
(292,34,cs),
(257,10,o),
(212,-2,o),
(158,-2,cs),
(89,-2,o),
(48,18,o),
(35,58,c)
);
}
);
width = 419;
}
);
unicode = 3488;
},
{
color = (166,255,153,255);
glyphname = endash.006;
lastChange = "2024-05-05 02:07:47 +0000";
layers = (
{
layerId = "B33422F0-91E4-47C9-8809-C0A5C4DE8881";
shapes = (
{
closed = 1;
nodes = (
(391,223,o),
(381,171,o),
(362,126,cs),
(334,62,o),
(301,21,o),
(263,3,cs),
(255,-1,o),
(244,-2,o),
(229,-1,cs),
(214,0,o),
(204,3,o),
(197,8,cs),
(185,18,o),
(177,30,o),
(173,44,cs),
(171,54,o),
(169,64,o),
(168,74,c),
(137,7,o),
(120,-10,o),
(80,1,cs),
(47,10,o),
(25,33,o),
(15,69,cs),
(7,98,o),
(3,129,o),
(3,163,cs),
(3,190,o),
(6,215,o),
(12,237,cs),
(21,272,o),
(39,305,o),
(65,336,cs),
(92,367,o),
(121,387,o),
(152,394,cs),
(161,396,o),
(170,397,o),
(179,397,cs),
(214,397,o),
(235,382,o),
(241,352,cs),
(245,329,o),
(227,307,o),
(199,302,c),
(207,341,o),
(181,365,o),
(157,365,cs),
(134,365,o),
(115,352,o),
(99,325,c),
(86,306,o),
(77,283,o),
(72,256,cs),
(66,226,o),
(63,197,o),
(63,168,cs),
(63,114,o),
(74,73,o),
(96,46,cs),
(99,43,o),
(102,41,o),
(105,41,cs),
(112,41,o),
(120,50,o),
(129,68,cs),
(157,124,ls),
(166,143,o),
(181,153,o),
(201,153,cs),
(206,153,o),
(215,152,o),
(226,150,c),
(220,133,o),
(217,119,o),
(218,110,cs),
(219,87,o),
(221,62,o),
(230,49,cs),
(236,40,o),
(243,36,o),
(251,36,cs),
(275,36,o),
(301,74,o),
(314,126,cs),
(325,167,o),
(330,214,o),
(330,267,cs),
(330,316,o),
(326,354,o),
(317,380,cs),
(308,409,o),
(295,433,o),
(278,453,cs),
(258,477,o),
(236,495,o),
(211,507,cs),
(190,517,o),
(168,523,o),
(143,525,c),
(146,514,o),
(152,503,o),
(159,493,cs),
(172,476,o),
(187,465,o),
(206,460,cs),
(230,453,o),
(247,454,o),
(258,463,c),
(263,436,o),
(246,423,o),
(206,423,cs),
(194,423,o),
(183,425,o),
(172,428,cs),
(143,436,o),
(120,454,o),
(105,481,cs),
(101,488,o),
(98,501,o),
(97,518,cs),
(96,535,o),
(98,548,o),
(101,557,c),
(122,551,o),
(141,548,o),
(157,547,cs),
(174,546,o),
(198,544,o),
(230,539,c),
(265,529,o),
(292,516,o),
(310,501,cs),
(364,454,o),
(391,382,o),
(391,283,cs)
);
}
);
width = 400;
}
);
unicode = 3496;
},
{
color = (166,255,153,255);
glyphname = endash.007;
lastChange = "2024-05-22 12:44:53 +0000";
layers = (
{
anchors = (
{
name = bottom;
pos = (372,182);
}
);
layerId = "B33422F0-91E4-47C9-8809-C0A5C4DE8881";
shapes = (
{
closed = 1;
nodes = (
(99,43,o),
(102,41,o),
(105,41,cs),
(112,41,o),
(120,50,o),
(129,68,cs),
(157,124,ls),
(166,143,o),
(181,153,o),
(201,153,cs),
(206,153,o),
(215,152,o),
(226,150,c),
(220,133,o),
(217,119,o),
(218,110,cs),
(219,87,o),
(221,62,o),
(230,49,cs),
(236,40,o),
(243,36,o),
(251,36,cs),
(275,36,o),
(301,74,o),
(314,126,cs),
(325,169,o),
(330,218,o),
(330,272,cs),
(330,321,o),
(326,357,o),
(317,380,cs),
(294,441,o),
(264,480,o),
(227,498,cs),
(208,507,o),
(188,511,o),
(165,511,cs),
(144,511,o),
(126,507,o),
(109,499,cs),
(88,489,o),
(78,475,o),
(78,456,cs),
(78,433,o),
(89,422,o),
(111,421,c),
(106,410,o),
(97,404,o),
(84,401,cs),
(77,400,o),
(70,399,o),
(65,399,cs),
(46,399,o),
(35,408,o),
(31,427,cs),
(28,442,o),
(32,457,o),
(41,473,cs),
(52,494,o),
(71,510,o),
(98,522,cs),
(121,533,o),
(151,538,o),
(188,538,cs),
(239,538,o),
(279,526,o),
(310,501,cs),
(365,458,o),
(392,385,o),
(392,283,cs),
(392,223,o),
(382,171,o),
(362,126,cs),
(334,62,o),
(301,21,o),
(263,3,cs),
(255,-1,o),
(244,-2,o),
(229,-1,cs),
(214,0,o),
(204,3,o),
(197,8,cs),
(185,18,o),
(177,30,o),
(173,44,cs),
(171,54,o),
(169,64,o),
(168,74,c),
(137,7,o),
(120,-10,o),
(80,1,cs),
(47,10,o),
(25,33,o),
(15,69,cs),
(7,98,o),
(3,129,o),
(3,163,cs),
(3,190,o),
(6,215,o),
(12,237,cs),
(21,272,o),
(39,305,o),
(65,336,cs),
(92,367,o),
(121,387,o),
(152,394,cs),
(161,396,o),
(170,397,o),
(179,397,cs),
(214,397,o),
(235,382,o),
(241,352,cs),
(245,329,o),
(227,307,o),
(199,302,c),
(207,341,o),
(181,365,o),
(157,365,cs),
(134,365,o),
(115,352,o),
(99,325,c),
(86,306,o),
(77,283,o),
(72,256,cs),
(66,226,o),
(63,197,o),
(63,168,cs),
(63,114,o),
(74,73,o),
(96,46,cs)
);
}
);
width = 401;
}
);
unicode = 3504;
},
{
color = (166,255,153,255);
glyphname = endash.008;
lastChange = "2024-05-05 02:07:47 +0000";
layers = (
{
layerId = "B33422F0-91E4-47C9-8809-C0A5C4DE8881";
shapes = (
{
closed = 1;
nodes = (
(158,297,o),
(157,293,o),
(157,288,cs),
(157,271,o),
(169,259,o),
(193,253,cs),
(212,249,o),
(232,274,o),
(231,289,cs),
(230,308,o),
(224,323,o),
(214,333,c),
(183,324,o),
(165,314,o),
(160,302,cs)
);
},
{
closed = 1;
nodes = (
(325,172,o),
(330,222,o),
(330,276,cs),
(330,323,o),
(326,358,o),
(317,380,cs),
(294,441,o),
(264,480,o),
(227,498,cs),
(208,507,o),
(188,511,o),
(165,511,cs),
(144,511,o),
(126,507,o),
(109,499,cs),
(88,489,o),
(78,475,o),
(78,456,cs),
(78,433,o),
(89,422,o),
(111,421,c),
(106,410,o),
(97,404,o),
(84,401,cs),
(77,400,o),
(70,399,o),
(65,399,cs),
(46,399,o),
(35,408,o),
(31,427,cs),
(28,442,o),
(32,457,o),
(41,473,cs),
(52,494,o),
(71,510,o),
(98,522,cs),
(121,533,o),
(151,538,o),
(188,538,cs),
(239,538,o),
(279,526,o),
(310,501,cs),
(365,458,o),
(392,385,o),
(392,283,cs),
(392,223,o),
(382,171,o),
(362,126,cs),
(332,57,o),
(299,16,o),
(262,3,cs),
(237,-6,o),
(218,-5,o),
(203,7,cs),
(184,22,o),
(175,42,o),
(175,67,cs),
(175,86,o),
(188,104,o),
(213,121,cs),
(218,125,o),
(221,130,o),
(221,135,cs),
(221,152,o),
(199,171,o),
(180,167,cs),
(167,164,o),
(160,158,o),
(160,147,cs),
(160,140,o),
(169,109,o),
(169,93,cs),
(169,82,o),
(167,72,o),
(163,63,cs),
(152,38,o),
(139,20,o),
(123,10,cs),
(105,-1,o),
(89,-4,o),
(74,-1,cs),
(46,5,o),
(26,28,o),
(15,69,cs),
(7,98,o),
(3,129,o),
(3,163,cs),
(3,190,o),
(6,215,o),
(12,237,cs),
(23,279,o),
(45,315,o),
(78,345,cs),
(117,381,o),
(158,398,o),
(201,397,cs),
(249,396,o),
(284,359,o),
(284,311,cs),
(284,266,o),
(256,235,o),
(200,217,cs),
(193,215,o),
(185,214,o),
(178,214,cs),
(143,214,o),
(115,238,o),
(115,273,cs),
(115,282,o),
(117,292,o),
(122,302,cs),
(132,322,o),
(155,338,o),
(192,351,c),
(184,356,o),
(176,359,o),
(167,359,cs),
(145,359,o),
(127,351,o),
(112,336,cs),
(81,304,o),
(65,251,o),
(65,178,cs),
(65,119,o),
(75,75,o),
(95,46,cs),
(98,41,o),
(102,38,o),
(106,38,cs),
(115,38,o),
(122,57,o),
(121,73,c),
(116,99,l),
(113,110,o),
(112,120,o),
(112,127,cs),
(112,136,o),
(113,143,o),
(116,150,cs),
(125,174,o),
(167,194,o),
(204,194,cs),
(234,194,o),
(252,184,o),
(258,163,cs),
(259,158,o),
(260,153,o),
(260,149,cs),
(260,140,o),
(257,130,o),
(250,121,cs),
(235,102,l),
(230,93,o),
(229,82,o),
(234,68,cs),
(240,51,o),
(248,42,o),
(257,42,cs),
(276,42,o),
(302,73,o),
(314,126,cs)
);
}
);
width = 401;
}
);
unicode = 3513;
},
{
color = (166,255,153,255);
glyphname = endash.009;
lastChange = "2024-05-05 02:07:47 +0000";
layers = (
{
layerId = "B33422F0-91E4-47C9-8809-C0A5C4DE8881";
shapes = (
{
closed = 1;
nodes = (
(179,32,o),
(196,40,o),
(211,55,cs),
(230,73,o),
(241,97,o),
(243,127,cs),
(246,159,o),
(233,191,o),
(200,191,cs),
(183,191,o),
(171,185,o),
(162,173,c),
(161,176,o),
(157,182,o),
(152,189,c),
(155,206,o),
(161,229,o),
(170,260,c),
(183,290,o),
(192,310,o),
(198,320,cs),
(211,341,o),
(228,360,o),
(251,377,cs),
(268,390,o),
(293,397,o),
(324,397,cs),
(337,397,o),
(349,396,o),
(361,393,cs),
(390,387,o),
(414,366,o),
(432,329,cs),
(449,296,o),
(457,258,o),
(457,215,cs),
(457,179,o),
(450,144,o),
(437,109,c),
(422,72,o),
(401,43,o),
(375,22,cs),
(354,5,o),
(331,-3,o),
(306,-2,cs),
(274,-1,o),
(258,8,o),
(258,25,cs),
(258,44,o),
(271,54,o),
(296,55,c),
(293,50,o),
(291,45,o),
(291,41,cs),
(291,30,o),
(299,25,o),
(316,25,cs),
(323,25,o),
(329,26,o),
(334,29,cs),
(374,55,o),
(395,106,o),
(397,183,cs),
(398,220,o),
(392,255,o),
(378,287,cs),
(360,328,o),
(334,348,o),
(300,348,cs),
(270,348,o),
(243,329,o),
(219,291,cs),
(210,277,o),
(202,258,o),
(194,235,c),
(203,240,o),
(214,242,o),
(227,242,cs),
(267,242,o),
(296,211,o),
(296,171,cs),
(296,136,o),
(284,103,o),
(261,71,cs),
(229,26,o),
(188,2,o),
(139,-1,cs),
(74,-6,o),
(33,16,o),
(14,65,cs),
(8,81,o),
(5,97,o),
(5,113,cs),
(5,157,o),
(25,194,o),
(64,225,cs),
(109,259,o),
(131,286,o),
(131,307,cs),
(131,332,o),
(120,344,o),
(97,344,cs),
(69,344,o),
(41,320,o),
(36,287,c),
(25,295,o),
(20,309,o),
(20,329,cs),
(20,340,o),
(22,349,o),
(27,356,cs),
(45,383,o),
(76,397,o),
(119,397,cs),
(138,397,o),
(154,390,o),
(166,377,cs),
(176,366,o),
(181,351,o),
(181,334,cs),
(181,311,o),
(168,287,o),
(143,260,cs),
(104,219,o),
(84,198,o),
(83,196,cs),
(72,180,o),
(67,161,o),
(67,140,cs),
(67,111,o),
(76,86,o),
(94,63,cs),
(112,40,o),
(134,30,o),
(160,31,cs)
);
}
);
width = 467;
}
);
unicode = 3524;
},
{
color = (166,255,153,255);
glyphname = quotedblleft.001;
lastChange = "2024-05-05 02:07:47 +0000";
layers = (
{
guides = (
{
angle = 90;
pos = (34,0);
}
);
layerId = "B33422F0-91E4-47C9-8809-C0A5C4DE8881";
shapes = (
{
closed = 1;
nodes = (
(47,10,o),
(4,55,o),
(5,114,cs),
(6,157,o),
(28,193,o),
(72,220,c),
(102,233,o),
(139,250,o),
(183,272,c),
(198,283,o),
(205,296,o),
(205,311,cs),
(205,319,o),
(203,326,o),
(198,332,cs),
(191,342,o),
(178,347,o),
(160,347,cs),
(139,347,o),
(117,341,o),
(96,328,cs),
(75,316,o),
(64,302,o),
(61,285,c),
(51,293,o),
(46,306,o),
(46,325,cs),
(46,336,o),
(48,345,o),
(52,353,cs),
(69,384,o),
(104,399,o),
(159,399,cs),
(172,399,o),
(184,398,o),
(196,396,cs),
(237,390,o),
(257,368,o),
(257,331,cs),
(257,325,o),
(256,319,o),
(255,312,c),
(249,288,o),
(224,264,o),
(180,239,c),
(147,222,o),
(109,204,o),
(93,184,cs),
(82,169,o),
(76,151,o),
(76,128,cs),
(76,98,o),
(84,76,o),
(99,61,cs),
(120,41,o),
(149,30,o),
(186,29,cs),
(203,28,o),
(225,33,o),
(254,42,c),
(254,84,o),
(257,142,o),
(262,216,cs),
(268,295,o),
(283,348,o),
(306,374,cs),
(318,387,o),
(333,395,o),
(350,397,cs),
(360,398,o),
(369,396,o),
(376,391,cs),
(386,384,o),
(391,372,o),
(390,355,c),
(377,360,o),
(366,359,o),
(357,353,cs),
(346,346,o),
(338,330,o),
(331,305,cs),
(324,276,o),
(318,226,o),
(314,154,cs),
(309,56,l),
(325,58,o),
(336,58,o),
(342,57,cs),
(355,54,o),
(363,47,o),
(365,37,c),
(333,22,o),
(317,0,o),
(313,-39,cs),
(310,-66,o),
(307,-82,o),
(305,-89,cs),
(296,-116,o),
(285,-135,o),
(271,-146,cs),
(262,-153,o),
(251,-157,o),
(240,-157,cs),
(231,-157,o),
(223,-154,o),
(216,-149,c),
(222,-142,o),
(230,-130,o),
(240,-111,c),
(248,-88,o),
(252,-65,o),
(252,-42,cs),
(252,-9,o),
(252,8,o),
(252,8,c),
(230,1,o),
(203,-3,o),
(171,-3,cs),
(152,-3,o),
(130,-1,o),
(106,2,cs)
);
},
{
closed = 1;
nodes = (
(406,319,o),
(405,325,o),
(405,332,cs),
(405,350,o),
(410,364,o),
(419,374,cs),
(434,389,o),
(455,397,o),
(484,397,cs),
(513,397,o),
(539,383,o),
(561,354,cs),
(581,327,o),
(593,296,o),
(596,260,cs),
(599,233,o),
(597,202,o),
(592,168,cs),
(585,127,o),
(575,95,o),
(561,71,cs),
(534,24,o),
(499,0,o),
(456,-1,cs),
(407,-2,o),
(381,15,o),
(379,52,cs),
(378,73,o),
(396,93,o),
(423,93,c),
(419,76,o),
(419,62,o),
(423,51,cs),
(430,33,o),
(442,24,o),
(461,24,cs),
(480,24,o),
(497,36,o),
(510,59,cs),
(517,72,o),
(524,89,o),
(529,111,cs),
(535,136,o),
(538,163,o),
(539,192,cs),
(540,229,o),
(536,260,o),
(527,287,cs),
(516,322,o),
(495,343,o),
(466,348,cs),
(454,350,o),
(442,346,o),
(429,337,cs),
(419,329,o),
(412,321,o),
(408,312,c)
);
}
);
width = 609;
}
);
unicode = 3462;
},
{
color = (166,255,153,255);
glyphname = quotedblleft.003;
lastChange = "2024-05-05 02:07:47 +0000";
layers = (
{
layerId = "B33422F0-91E4-47C9-8809-C0A5C4DE8881";
shapes = (
{
closed = 1;
nodes = (
(47,10,o),
(4,55,o),
(5,114,cs),
(6,157,o),
(28,193,o),
(72,220,c),
(102,233,o),
(139,250,o),
(183,272,c),
(198,283,o),
(205,296,o),
(205,311,cs),
(205,319,o),
(203,326,o),
(198,332,cs),
(191,342,o),
(178,347,o),
(160,347,cs),
(139,347,o),
(117,341,o),
(96,328,cs),
(75,316,o),
(64,302,o),
(61,285,c),
(51,293,o),
(46,306,o),
(46,325,cs),
(46,336,o),
(48,345,o),
(52,353,cs),
(69,384,o),
(104,399,o),
(159,399,cs),
(172,399,o),
(184,398,o),
(196,396,cs),
(237,390,o),
(257,368,o),
(257,331,cs),
(257,325,o),
(256,319,o),
(255,312,c),
(249,288,o),
(224,264,o),
(180,239,c),
(147,222,o),
(109,204,o),
(93,184,cs),
(82,169,o),
(76,151,o),
(76,128,cs),
(76,98,o),
(84,76,o),
(99,61,cs),
(120,41,o),
(149,30,o),
(186,29,cs),
(203,28,o),
(225,33,o),
(254,42,c),
(254,84,o),
(257,142,o),
(262,216,cs),
(268,295,o),
(283,348,o),
(306,374,cs),
(318,387,o),
(333,395,o),
(350,397,cs),
(360,398,o),
(369,396,o),
(376,391,cs),
(386,384,o),
(391,372,o),
(390,355,c),
(377,360,o),
(366,359,o),
(357,353,cs),
(346,346,o),
(338,330,o),
(331,305,cs),
(324,276,o),
(318,226,o),
(314,154,cs),
(309,56,l),
(325,58,o),
(336,58,o),
(342,57,cs),
(355,54,o),
(363,47,o),
(365,37,c),
(333,22,o),
(317,0,o),
(313,-39,cs),
(310,-66,o),
(307,-82,o),
(305,-89,cs),
(296,-116,o),
(285,-135,o),
(271,-146,cs),
(262,-153,o),
(251,-157,o),
(240,-157,cs),
(231,-157,o),
(223,-154,o),
(216,-149,c),
(222,-142,o),
(230,-130,o),
(240,-111,c),
(248,-88,o),
(252,-65,o),
(252,-42,cs),
(252,-9,o),
(252,8,o),
(252,8,c),
(230,1,o),
(203,-3,o),
(171,-3,cs),
(152,-3,o),
(130,-1,o),
(106,2,cs)
);
},
{
closed = 1;
nodes = (
(434,387,o),
(449,380,o),
(465,379,cs),
(485,377,o),
(514,379,o),
(553,386,c),
(599,393,o),
(625,396,o),
(631,393,c),
(608,354,o),
(564,316,o),
(499,279,c),
(516,278,o),
(539,277,o),
(566,278,c),
(613,284,o),
(633,287,o),
(626,287,c),
(626,276,o),
(612,261,o),
(584,242,cs),
(543,215,o),
(516,194,o),
(501,180,cs),
(476,155,o),
(463,129,o),
(463,102,cs),
(463,92,o),
(465,83,o),
(468,74,cs),
(477,50,o),
(502,24,o),
(526,24,cs),
(553,24,o),
(575,49,o),
(575,76,cs),
(575,89,o),
(571,101,o),
(562,110,c),
(557,117,o),
(549,121,o),
(538,124,c),
(547,138,o),
(561,145,o),
(580,145,cs),
(607,145,o),
(622,132,o),
(622,104,cs),
(622,87,o),
(619,74,o),
(613,63,cs),
(597,34,o),
(576,15,o),
(551,5,cs),
(523,-6,o),
(495,-8,o),
(466,-1,cs),
(422,10,o),
(400,38,o),
(400,83,cs),
(400,120,o),
(420,156,o),
(461,191,cs),
(491,216,o),
(514,232,o),
(531,238,c),
(526,237,o),
(517,238,o),
(504,239,cs),
(489,240,o),
(479,240,o),
(473,240,cs),
(464,240,o),
(453,238,o),
(441,235,cs),
(426,232,o),
(419,230,o),
(419,230,c),
(422,255,o),
(446,281,o),
(490,308,cs),
(521,327,o),
(541,344,o),
(550,359,c),
(547,358,o),
(532,353,o),
(506,342,cs),
(488,335,o),
(471,331,o),
(454,331,cs),
(431,331,o),
(416,338,o),
(411,351,cs),
(409,356,o),
(408,361,o),
(408,366,cs),
(408,380,o),
(412,391,o),
(420,399,c)
);
}
);
width = 642;
}
);
unicode = 3464;
},
{
color = (166,255,153,255);
glyphname = quotedblleft.004;
lastChange = "2024-05-05 02:07:47 +0000";
layers = (
{
layerId = "B33422F0-91E4-47C9-8809-C0A5C4DE8881";
shapes = (
{
closed = 1;
nodes = (
(10,276,o),
(6,288,o),
(6,306,cs),
(6,319,o),
(8,330,o),
(13,339,cs),
(26,363,o),
(47,380,o),
(75,390,cs),
(95,397,o),
(113,400,o),
(129,398,cs),
(177,393,o),
(200,357,o),
(195,312,c),
(192,292,o),
(181,274,o),
(161,257,cs),
(103,209,l),
(84,190,o),
(74,165,o),
(71,133,cs),
(69,109,o),
(71,86,o),
(77,63,cs),
(84,40,o),
(92,29,o),
(103,29,cs),
(117,29,o),
(134,47,o),
(154,82,cs),
(167,106,o),
(178,129,o),
(187,152,cs),
(198,180,o),
(219,194,o),
(252,194,cs),
(258,194,o),
(263,194,o),
(268,193,c),
(257,175,o),
(251,153,o),
(250,127,cs),
(248,92,o),
(255,64,o),
(272,42,cs),
(278,35,o),
(285,31,o),
(294,31,cs),
(305,31,o),
(314,35,o),
(322,43,cs),
(344,65,o),
(355,97,o),
(355,140,cs),
(355,165,o),
(347,197,o),
(330,234,c),
(314,272,o),
(306,301,o),
(306,321,cs),
(306,364,o),
(343,396,o),
(386,396,cs),
(417,396,o),
(436,383,o),
(445,357,c),
(400,348,o),
(378,328,o),
(378,299,cs),
(378,287,o),
(381,271,o),
(387,252,cs),
(397,218,l),
(400,201,o),
(402,185,o),
(402,170,cs),
(402,121,o),
(385,77,o),
(351,36,cs),
(337,19,o),
(318,8,o),
(294,1,cs),
(285,-2,o),
(273,-2,o),
(259,-1,cs),
(245,1,o),
(235,5,o),
(228,10,cs),
(211,24,o),
(198,44,o),
(190,69,c),
(172,48,o),
(154,29,o),
(136,13,cs),
(125,3,o),
(108,-2,o),
(86,-2,cs),
(70,-2,o),
(57,2,o),
(46,11,cs),
(19,33,o),
(6,64,o),
(6,105,cs),
(6,146,o),
(20,176,o),
(79,224,cs),
(131,268,l),
(140,278,o),
(144,290,o),
(144,305,cs),
(144,329,o),
(128,343,o),
(105,343,cs),
(86,343,o),
(66,335,o),
(47,319,cs),
(28,304,o),
(18,287,o),
(17,270,c)
);
},
{
closed = 1;
nodes = (
(453,307,o),
(449,319,o),
(449,332,cs),
(449,343,o),
(452,354,o),
(458,364,cs),
(473,389,o),
(504,401,o),
(552,398,cs),
(607,395,o),
(644,350,o),
(648,291,cs),
(650,264,o),
(645,229,o),
(633,186,cs),
(620,141,o),
(613,105,o),
(613,79,cs),
(613,43,o),
(614,16,o),
(617,-3,c),
(613,-2,o),
(604,2,o),
(590,9,cs),
(579,15,o),
(569,18,o),
(560,18,cs),
(547,18,o),
(532,14,o),
(517,5,cs),
(508,0,o),
(497,-3,o),
(485,-3,cs),
(468,-3,o),
(453,1,o),
(442,9,cs),
(416,26,o),
(403,56,o),
(403,98,cs),
(403,112,o),
(405,126,o),
(408,140,cs),
(421,195,o),
(463,231,o),
(518,231,cs),
(552,231,o),
(570,223,o),
(572,207,c),
(545,212,o),
(520,209,o),
(496,198,cs),
(472,187,o),
(460,165,o),
(460,131,cs),
(460,122,o),
(461,112,o),
(463,102,cs),
(468,78,o),
(476,60,o),
(489,49,cs),
(495,44,o),
(502,41,o),
(510,41,cs),
(512,41,o),
(522,43,o),
(540,46,cs),
(553,49,o),
(566,49,o),
(577,46,c),
(572,101,o),
(572,144,o),
(577,176,cs),
(588,243,o),
(593,284,o),
(592,299,cs),
(589,348,o),
(572,372,o),
(540,372,cs),
(522,372,o),
(505,364,o),
(490,347,cs),
(477,333,o),
(468,316,o),
(462,296,c)
);
},
{
closed = 1;
nodes = (
(681,307,o),
(677,319,o),
(677,332,cs),
(677,343,o),
(680,354,o),
(686,364,cs),
(701,389,o),
(732,401,o),
(780,398,cs),
(835,395,o),
(872,350,o),
(876,291,cs),
(878,264,o),
(873,229,o),
(861,186,cs),
(848,141,o),
(841,105,o),
(841,79,cs),
(841,43,o),
(842,16,o),
(845,-3,c),
(841,-2,o),
(832,2,o),
(818,9,cs),
(807,15,o),
(797,18,o),
(788,18,cs),
(775,18,o),
(760,14,o),
(745,5,cs),
(736,0,o),
(725,-3,o),
(713,-3,cs),
(696,-3,o),
(681,1,o),
(670,9,cs),
(644,26,o),
(631,56,o),
(631,98,cs),
(631,112,o),
(633,126,o),
(636,140,cs),
(649,195,o),
(691,231,o),
(746,231,cs),
(780,231,o),
(798,223,o),
(800,207,c),
(773,212,o),
(748,209,o),
(724,198,cs),
(700,187,o),
(688,165,o),
(688,131,cs),
(688,122,o),
(689,112,o),
(691,102,cs),
(696,78,o),
(704,60,o),
(717,49,cs),
(723,44,o),
(730,41,o),
(738,41,cs),
(740,41,o),
(750,43,o),
(768,46,cs),
(781,49,o),
(794,49,o),
(805,46,c),
(800,101,o),
(800,144,o),
(805,176,cs),
(816,243,o),
(821,284,o),
(820,299,cs),
(817,348,o),
(800,372,o),
(768,372,cs),
(750,372,o),
(733,364,o),
(718,347,cs),
(705,333,o),
(696,316,o),
(690,296,c)
);
}
);
width = 885;
}
);
unicode = 3470;
},
{
color = (166,255,153,255);
glyphname = quotedblleft.005;
lastChange = "2024-05-05 02:07:47 +0000";
layers = (
{
layerId = "B33422F0-91E4-47C9-8809-C0A5C4DE8881";
shapes = (
{
closed = 1;
nodes = (
(394,403,o),
(382,420,o),
(382,443,cs),
(382,465,o),
(397,476,o),
(428,476,cs),
(461,476,o),
(488,467,o),
(511,450,c),
(542,425,o),
(566,397,o),
(583,366,c),
(606,321,o),
(618,263,o),
(618,191,cs),
(618,177,o),
(617,164,o),
(616,152,cs),
(612,115,o),
(604,83,o),
(592,57,cs),
(577,25,o),
(557,10,o),
(534,12,cs),
(504,15,o),
(489,32,o),
(489,63,cs),
(489,74,o),
(491,86,o),
(494,100,cs),
(496,109,o),
(501,117,o),
(508,124,cs),
(517,134,o),
(527,139,o),
(538,139,cs),
(545,139,o),
(553,137,o),
(560,132,c),
(565,171,ls),
(570,213,o),
(566,267,o),
(552,334,cs),
(541,387,o),
(516,418,o),
(477,428,cs),
(474,429,o),
(472,429,o),
(469,429,cs),
(460,429,o),
(455,425,o),
(455,416,cs),
(455,410,o),
(458,404,o),
(464,397,c),
(489,393,o),
(510,367,o),
(509,346,c),
(500,347,o),
(492,348,o),
(485,348,cs),
(460,348,o),
(446,336,o),
(443,313,cs),
(442,301,o),
(452,268,o),
(474,213,cs),
(483,191,o),
(487,169,o),
(487,148,cs),
(487,60,o),
(420,-1,o),
(301,-1,cs),
(280,-1,o),
(258,1,o),
(235,4,cs),
(205,9,o),
(180,21,o),
(161,40,cs),
(139,61,o),
(128,85,o),
(129,114,cs),
(130,153,o),
(150,189,o),
(190,221,c),
(252,266,l),
(266,277,o),
(273,291,o),
(273,308,cs),
(273,317,o),
(270,326,o),
(264,333,cs),
(256,342,o),
(245,347,o),
(231,347,cs),
(200,347,o),
(166,320,o),
(161,287,c),
(151,295,o),
(146,308,o),
(146,325,cs),
(146,344,o),
(154,361,o),
(170,375,c),
(172,386,o),
(173,396,o),
(173,403,cs),
(173,420,o),
(167,429,o),
(154,429,cs),
(151,429,o),
(148,429,o),
(145,428,cs),
(106,418,o),
(81,387,o),
(70,334,cs),
(56,267,o),
(52,213,o),
(57,171,cs),
(58,162,o),
(59,149,o),
(62,132,c),
(69,137,o),
(77,139,o),
(84,139,cs),
(107,139,o),
(124,117,o),
(128,100,cs),
(131,87,o),
(133,75,o),
(133,64,cs),
(133,32,o),
(118,15,o),
(88,12,cs),
(65,10,o),
(45,25,o),
(30,58,cs),
(18,83,o),
(10,115,o),
(6,152,cs),
(5,164,o),
(4,177,o),
(4,192,cs),
(4,263,o),
(16,321,o),
(39,366,cs),
(56,398,o),
(80,426,o),
(111,450,cs),
(134,467,o),
(161,476,o),
(194,476,cs),
(225,476,o),
(240,465,o),
(240,443,cs),
(240,426,o),
(234,411,o),
(221,397,c),
(232,398,o),
(248,398,o),
(269,396,cs),
(312,391,o),
(334,368,o),
(334,326,cs),
(334,319,o),
(333,311,o),
(331,304,cs),
(327,288,o),
(308,268,o),
(275,244,cs),
(238,218,o),
(216,198,o),
(209,184,cs),
(200,168,o),
(196,151,o),
(196,134,cs),
(196,103,o),
(206,79,o),
(225,61,cs),
(246,41,o),
(273,30,o),
(305,29,cs),
(343,28,o),
(376,36,o),
(405,55,cs),
(426,68,o),
(437,92,o),
(437,125,cs),
(437,154,o),
(428,182,o),
(410,210,cs),
(384,251,o),
(371,286,o),
(371,315,cs),
(371,330,o),
(375,344,o),
(382,357,cs),
(391,374,o),
(403,385,o),
(418,391,c)
);
},
{
closed = 1;
nodes = (
(72,50,o),
(79,41,o),
(89,44,cs),
(99,46,o),
(102,57,o),
(97,78,cs),
(92,99,o),
(85,108,o),
(75,106,cs),
(65,104,o),
(62,92,o),
(67,71,cs)
);
},
{
closed = 1;
nodes = (
(560,92,o),
(557,103,o),
(547,106,cs),
(537,108,o),
(530,99,o),
(525,78,cs),
(520,57,o),
(523,46,o),
(533,43,cs),
(543,41,o),
(550,50,o),
(555,71,cs)
);
},
{
closed = 1;
nodes = (
(764,386,o),
(754,399,o),
(733,399,cs),
(726,399,o),
(717,397,o),
(707,393,cs),
(685,384,o),
(665,360,o),
(648,319,cs),
(638,295,o),
(633,268,o),
(633,238,cs),
(633,191,o),
(644,163,o),
(666,154,cs),
(675,151,o),
(683,149,o),
(692,149,cs),
(717,149,o),
(737,162,o),
(750,188,cs),
(755,199,o),
(765,230,o),
(779,282,cs),
(790,323,o),
(801,345,o),
(812,348,cs),
(815,349,o),
(819,350,o),
(822,350,cs),
(835,350,o),
(845,335,o),
(851,306,cs),
(856,285,o),
(858,261,o),
(858,234,cs),
(858,200,o),
(854,166,o),
(847,133,cs),
(832,66,o),
(789,32,o),
(742,35,cs),
(705,38,o),
(679,64,o),
(665,115,c),
(648,102,o),
(640,86,o),
(640,68,cs),
(640,45,o),
(650,28,o),
(669,15,cs),
(686,4,o),
(706,-1,o),
(729,-1,cs),
(761,-1,o),
(790,8,o),
(815,26,cs),
(846,48,o),
(870,83,o),
(888,131,cs),
(903,174,o),
(911,217,o),
(911,260,cs),
(911,343,o),
(891,388,o),
(850,397,cs),
(845,398,o),
(841,398,o),
(836,398,cs),
(804,398,o),
(778,367,o),
(757,305,c),
(751,284,o),
(745,264,o),
(740,243,c),
(729,210,o),
(720,194,o),
(712,194,cs),
(699,194,o),
(691,202,o),
(686,217,cs),
(681,235,o),
(678,254,o),
(678,275,cs),
(678,310,o),
(684,337,o),
(696,354,cs),
(703,365,o),
(713,370,o),
(725,370,cs),
(734,370,o),
(746,367,o),
(761,360,c)
);
}
);
width = 922;
}
);
unicode = 3472;
},
{
color = (166,255,153,255);
glyphname = quotedblleft.006;
lastChange = "2024-05-05 02:07:47 +0000";
layers = (
{
layerId = "B33422F0-91E4-47C9-8809-C0A5C4DE8881";
shapes = (
{
closed = 1;
nodes = (
(158,235,o),
(170,223,o),
(193,217,cs),
(209,213,o),
(222,223,o),
(231,247,cs),
(235,258,o),
(237,268,o),
(237,278,cs),
(237,295,o),
(229,314,o),
(214,333,c),
(202,330,o),
(190,319,o),
(177,301,cs),
(164,283,o),
(158,267,o),
(158,254,cs)
);
},
{
closed = 1;
nodes = (
(255,-1,o),
(244,-2,o),
(229,-1,cs),
(214,0,o),
(204,3,o),
(197,8,cs),
(185,18,o),
(177,30,o),
(173,44,cs),
(171,54,o),
(169,64,o),
(168,74,c),
(137,7,o),
(120,-10,o),
(80,1,cs),
(47,10,o),
(25,33,o),
(15,69,cs),
(7,98,o),
(3,129,o),
(3,163,cs),
(3,190,o),
(6,215,o),
(12,237,cs),
(23,279,o),
(45,315,o),
(78,345,cs),
(117,381,o),
(158,398,o),
(201,397,cs),
(254,396,o),
(287,348,o),
(287,295,cs),
(287,270,o),
(280,247,o),
(267,226,cs),
(252,201,o),
(229,184,o),
(200,175,cs),
(190,172,o),
(181,170,o),
(173,170,cs),
(154,170,o),
(138,180,o),
(124,199,cs),
(115,211,o),
(111,226,o),
(111,244,cs),
(111,261,o),
(114,276,o),
(121,287,cs),
(141,322,o),
(165,343,o),
(192,351,c),
(184,356,o),
(176,359,o),
(167,359,cs),
(145,359,o),
(127,351,o),
(112,336,cs),
(79,303,o),
(63,247,o),
(63,168,cs),
(63,114,o),
(74,73,o),
(96,46,cs),
(99,43,o),
(102,41,o),
(105,41,cs),
(112,41,o),
(120,50,o),
(129,68,cs),
(157,124,ls),
(166,143,o),
(181,153,o),
(201,153,cs),
(206,153,o),
(215,152,o),
(226,150,c),
(220,133,o),
(217,119,o),
(218,110,cs),
(219,87,o),
(221,62,o),
(230,49,cs),
(236,40,o),
(243,36,o),
(251,36,cs),
(275,36,o),
(301,74,o),
(314,126,cs),
(325,169,o),
(330,218,o),
(330,272,cs),
(330,321,o),
(326,357,o),
(317,380,cs),
(294,441,o),
(264,480,o),
(227,498,cs),
(208,507,o),
(188,511,o),
(165,511,cs),
(144,511,o),
(126,507,o),
(109,499,cs),
(88,489,o),
(78,475,o),
(78,456,cs),
(78,433,o),
(89,422,o),
(111,421,c),
(106,410,o),
(97,404,o),
(84,401,cs),
(77,400,o),
(70,399,o),
(65,399,cs),
(46,399,o),
(35,408,o),
(31,427,cs),
(28,442,o),
(32,457,o),
(41,473,cs),
(52,494,o),
(71,510,o),
(98,522,cs),
(121,533,o),
(151,538,o),
(188,538,cs),
(239,538,o),
(279,526,o),
(310,501,cs),
(365,458,o),
(392,385,o),
(392,283,cs),
(392,223,o),
(382,171,o),
(362,126,cs),
(334,62,o),
(301,21,o),
(263,3,cs)
);
},
{
closed = 1;
nodes = (
(536,386,o),
(526,399,o),
(505,399,cs),
(498,399,o),
(489,397,o),
(479,393,cs),
(457,384,o),
(437,360,o),
(420,319,cs),
(410,295,o),
(405,268,o),
(405,238,cs),
(405,191,o),
(416,163,o),
(438,154,cs),
(447,151,o),
(455,149,o),
(464,149,cs),
(489,149,o),
(509,162,o),
(522,188,cs),
(527,199,o),
(537,230,o),
(551,282,cs),
(562,323,o),
(573,345,o),
(584,348,cs),
(587,349,o),
(591,350,o),
(594,350,cs),
(607,350,o),
(617,335,o),
(623,306,cs),
(628,285,o),
(630,261,o),
(630,234,cs),
(630,200,o),
(626,166,o),
(619,133,cs),
(604,66,o),
(561,32,o),
(514,35,cs),
(477,38,o),
(451,64,o),
(437,115,c),
(420,102,o),
(412,86,o),
(412,68,cs),
(412,45,o),
(422,28,o),
(441,15,cs),
(458,4,o),
(478,-1,o),
(501,-1,cs),
(533,-1,o),
(562,8,o),
(587,26,cs),
(618,48,o),
(642,83,o),
(660,131,cs),
(675,174,o),
(683,217,o),
(683,260,cs),
(683,343,o),
(663,388,o),
(622,397,cs),
(617,398,o),
(613,398,o),
(608,398,cs),
(576,398,o),
(550,367,o),
(529,305,c),
(523,284,o),
(517,264,o),
(512,243,c),
(501,210,o),
(492,194,o),
(484,194,cs),
(471,194,o),
(463,202,o),
(458,217,cs),
(453,235,o),
(450,254,o),
(450,275,cs),
(450,310,o),
(456,337,o),
(468,354,cs),
(475,365,o),
(485,370,o),
(497,370,cs),
(506,370,o),
(518,367,o),
(533,360,c)
);
}
);
width = 692;
}
);
unicode = 3478;
},
{
color = (166,255,153,255);
glyphname = quotedblleft.008;
lastChange = "2024-05-05 02:07:47 +0000";
layers = (
{
layerId = "B33422F0-91E4-47C9-8809-C0A5C4DE8881";
shapes = (
{
closed = 1;
nodes = (
(102,78,o),
(109,63,o),
(109,39,cs),
(109,16,o),
(94,-3,o),
(73,-3,cs),
(56,-3,o),
(41,7,o),
(29,27,cs),
(10,58,o),
(2,100,o),
(4,155,cs),
(8,263,o),
(56,343,o),
(127,382,cs),
(145,392,o),
(169,397,o),
(198,397,cs),
(215,397,o),
(229,395,o),
(239,390,cs),
(268,377,o),
(283,356,o),
(283,327,cs),
(283,296,o),
(261,267,o),
(217,242,cs),
(192,227,o),
(176,202,o),
(169,165,cs),
(166,148,o),
(165,130,o),
(167,113,c),
(172,117,o),
(178,119,o),
(184,119,cs),
(201,119,o),
(213,107,o),
(221,84,cs),
(233,49,o),
(245,33,o),
(257,34,cs),
(283,36,o),
(304,58,o),
(320,101,cs),
(333,134,o),
(339,178,o),
(339,233,cs),
(339,294,o),
(332,342,o),
(319,376,cs),
(295,437,o),
(266,477,o),
(231,494,cs),
(211,504,o),
(189,509,o),
(165,509,cs),
(124,509,o),
(98,496,o),
(85,471,cs),
(82,465,o),
(80,458,o),
(80,450,cs),
(80,431,o),
(90,422,o),
(109,421,c),
(102,406,o),
(89,398,o),
(70,398,cs),
(45,398,o),
(33,412,o),
(33,441,cs),
(33,473,o),
(54,499,o),
(97,519,cs),
(120,530,o),
(150,535,o),
(188,535,cs),
(240,535,o),
(281,523,o),
(312,498,cs),
(355,463,o),
(382,411,o),
(391,341,cs),
(394,321,o),
(395,301,o),
(395,280,cs),
(395,222,o),
(386,169,o),
(367,120,cs),
(352,81,o),
(336,53,o),
(318,35,cs),
(293,10,o),
(271,-2,o),
(252,-2,cs),
(248,-2,o),
(243,-2,o),
(238,-1,cs),
(225,1,o),
(212,10,o),
(199,27,cs),
(186,44,o),
(177,52,o),
(172,52,c),
(165,53,o),
(161,42,o),
(160,21,cs),
(159,0,o),
(156,-11,o),
(149,-13,c),
(134,-7,o),
(122,15,o),
(113,52,cs),
(108,75,o),
(107,100,o),
(111,127,cs),
(120,187,o),
(150,233,o),
(200,264,cs),
(215,273,o),
(223,286,o),
(223,302,cs),
(223,308,o),
(222,314,o),
(219,321,cs),
(209,347,o),
(192,360,o),
(168,360,cs),
(161,360,o),
(152,359,o),
(142,356,c),
(118,351,o),
(86,322,o),
(74,295,cs),
(57,256,o),
(50,210,o),
(55,157,cs),
(58,130,o),
(63,109,o),
(70,94,cs),
(75,83,o),
(80,78,o),
(85,78,cs),
(87,78,o),
(88,80,o),
(88,83,c)
);
}
);
width = 404;
}
);
unicode = 3483;
},
{
color = (166,255,153,255);
glyphname = quotedblleft.009;
lastChange = "2024-05-05 02:07:47 +0000";
layers = (
{
layerId = "B33422F0-91E4-47C9-8809-C0A5C4DE8881";
shapes = (
{
closed = 1;
nodes = (
(87,189,o),
(73,187,o),
(51,185,cs),
(35,183,o),
(21,177,o),
(9,168,c),
(5,175,o),
(3,181,o),
(3,188,cs),
(3,208,o),
(16,222,o),
(42,229,cs),
(52,232,o),
(74,235,o),
(109,238,cs),
(132,240,o),
(152,248,o),
(168,261,cs),
(177,268,o),
(182,281,o),
(182,300,cs),
(182,331,o),
(165,343,o),
(142,343,cs),
(123,343,o),
(103,335,o),
(84,319,cs),
(65,304,o),
(55,287,o),
(54,270,c),
(47,276,o),
(43,288,o),
(43,306,cs),
(43,319,o),
(45,330,o),
(50,339,cs),
(63,363,o),
(84,380,o),
(112,390,cs),
(132,397,o),
(150,400,o),
(166,398,cs),
(214,393,o),
(237,357,o),
(232,312,cs),
(229,288,o),
(219,265,o),
(200,244,cs),
(182,223,o),
(163,209,o),
(143,204,c),
(123,187,o),
(114,160,o),
(115,125,cs),
(116,74,o),
(129,42,o),
(154,31,c),
(159,28,o),
(164,27,o),
(168,27,cs),
(184,27,o),
(194,42,o),
(198,73,cs),
(199,79,o),
(198,91,o),
(195,108,cs),
(192,128,o),
(190,142,o),
(190,151,cs),
(190,160,o),
(191,167,o),
(193,173,cs),
(202,197,o),
(248,217,o),
(289,217,cs),
(322,217,o),
(342,207,o),
(348,186,cs),
(349,181,o),
(350,177,o),
(350,173,cs),
(350,165,o),
(347,156,o),
(340,147,cs),
(331,135,o),
(326,125,o),
(324,117,cs),
(319,99,o),
(319,83,o),
(324,68,cs),
(326,61,o),
(332,53,o),
(341,44,cs),
(347,38,o),
(353,35,o),
(360,35,cs),
(376,35,o),
(389,50,o),
(399,79,cs),
(407,102,o),
(411,123,o),
(411,142,cs),
(411,167,o),
(403,198,o),
(387,235,cs),
(371,272,o),
(363,301,o),
(363,321,cs),
(363,364,o),
(400,396,o),
(443,396,cs),
(474,396,o),
(493,383,o),
(502,357,c),
(457,348,o),
(435,328,o),
(435,299,cs),
(435,287,o),
(438,271,o),
(444,252,cs),
(454,218,l),
(457,201,o),
(459,185,o),
(459,170,cs),
(459,121,o),
(442,77,o),
(408,36,cs),
(394,19,o),
(376,8,o),
(353,2,cs),
(306,-11,o),
(278,18,o),
(269,50,cs),
(266,59,o),
(265,67,o),
(265,76,cs),
(265,104,o),
(278,127,o),
(303,144,cs),
(308,148,o),
(311,153,o),
(311,158,cs),
(311,174,o),
(289,192,o),
(270,191,cs),
(253,190,o),
(244,179,o),
(244,157,cs),
(244,148,o),
(247,117,o),
(247,104,cs),
(247,62,o),
(231,31,o),
(199,12,cs),
(186,4,o),
(167,0,o),
(144,0,cs),
(115,0,o),
(92,11,o),
(75,33,cs),
(63,50,o),
(56,70,o),
(54,93,cs),
(51,130,o),
(65,163,o),
(94,192,c)
);
}
);
width = 499;
}
);
unicode = 3485;
},
{
color = (166,255,153,255);
glyphname = quotedblleft.010;
lastChange = "2024-05-05 02:07:47 +0000";
layers = (
{
layerId = "B33422F0-91E4-47C9-8809-C0A5C4DE8881";
shapes = (
{
closed = 1;
nodes = (
(62,99,o),
(67,101,o),
(72,101,cs),
(85,101,o),
(93,92,o),
(98,75,cs),
(103,56,o),
(109,46,o),
(116,46,cs),
(119,46,o),
(128,58,o),
(142,82,cs),
(158,109,o),
(168,125,o),
(173,130,cs),
(183,140,o),
(204,143,o),
(236,139,c),
(219,121,o),
(211,97,o),
(211,68,cs),
(211,47,o),
(219,36,o),
(235,36,cs),
(258,36,o),
(274,59,o),
(283,104,cs),
(290,139,o),
(290,169,o),
(283,196,cs),
(269,251,o),
(239,279,o),
(192,279,cs),
(186,279,o),
(180,278,o),
(174,277,c),
(161,264,o),
(144,241,o),
(121,207,cs),
(94,167,o),
(73,130,o),
(57,96,c)
);
},
{
closed = 1;
nodes = (
(279,19,o),
(249,-1,o),
(218,-1,cs),
(179,-1,o),
(159,18,o),
(159,55,c),
(140,26,o),
(126,9,o),
(115,4,cs),
(105,0,o),
(96,-2,o),
(88,-2,cs),
(67,-2,o),
(53,10,o),
(46,34,cs),
(44,41,o),
(40,45,o),
(34,45,cs),
(29,45,o),
(23,41,o),
(16,32,c),
(13,31,o),
(9,38,o),
(8,38,c),
(5,36,l),
(17,89,o),
(51,157,o),
(107,240,cs),
(124,266,o),
(142,290,o),
(161,312,c),
(165,325,o),
(167,334,o),
(166,341,cs),
(165,354,o),
(158,360,o),
(143,360,cs),
(130,360,o),
(119,353,o),
(109,339,cs),
(104,332,o),
(101,322,o),
(101,310,cs),
(101,295,o),
(104,284,o),
(111,275,c),
(100,269,o),
(90,266,o),
(81,266,cs),
(58,266,o),
(47,280,o),
(47,308,cs),
(47,320,o),
(50,331,o),
(56,342,cs),
(77,379,o),
(106,397,o),
(143,397,cs),
(150,397,o),
(157,396,o),
(164,395,cs),
(176,392,o),
(185,384,o),
(191,370,cs),
(196,359,o),
(197,348,o),
(195,337,c),
(214,354,o),
(241,367,o),
(274,378,cs),
(305,388,o),
(336,394,o),
(365,395,cs),
(393,396,o),
(418,396,o),
(441,394,cs),
(491,390,o),
(519,375,o),
(524,348,cs),
(529,323,o),
(516,308,o),
(486,302,c),
(494,341,o),
(468,365,o),
(444,365,cs),
(421,365,o),
(402,352,o),
(386,325,c),
(373,306,o),
(364,283,o),
(359,256,cs),
(353,226,o),
(350,197,o),
(350,168,cs),
(350,114,o),
(361,73,o),
(383,46,cs),
(386,43,o),
(389,41,o),
(392,41,cs),
(399,41,o),
(407,50,o),
(416,68,cs),
(444,124,ls),
(453,143,o),
(468,153,o),
(488,153,cs),
(493,153,o),
(502,152,o),
(513,150,c),
(507,133,o),
(504,119,o),
(505,110,cs),
(506,87,o),
(508,62,o),
(517,49,cs),
(523,40,o),
(530,36,o),
(538,36,cs),
(562,36,o),
(588,74,o),
(601,126,cs),
(612,169,o),
(617,218,o),
(617,272,cs),
(617,321,o),
(613,357,o),
(604,380,cs),
(581,441,o),
(551,480,o),
(514,498,cs),
(495,507,o),
(475,511,o),
(452,511,cs),
(409,511,o),
(381,498,o),
(368,472,cs),
(366,467,o),
(365,463,o),
(365,458,cs),
(365,441,o),
(376,432,o),
(398,431,c),
(393,420,o),
(384,414,o),
(371,411,cs),
(364,410,o),
(357,409,o),
(352,409,cs),
(333,409,o),
(322,418,o),
(318,437,cs),
(311,470,o),
(334,499,o),
(385,522,cs),
(408,533,o),
(438,538,o),
(475,538,cs),
(526,538,o),
(566,526,o),
(597,501,cs),
(652,458,o),
(679,385,o),
(679,283,cs),
(679,223,o),
(669,171,o),
(649,126,cs),
(621,62,o),
(588,21,o),
(550,3,cs),
(542,-1,o),
(531,-2,o),
(516,-1,cs),
(501,0,o),
(491,3,o),
(484,8,cs),
(472,18,o),
(464,30,o),
(460,44,cs),
(458,54,o),
(456,64,o),
(455,74,c),
(424,7,o),
(407,-10,o),
(367,1,cs),
(337,10,o),
(317,29,o),
(306,58,c)
);
},
{
closed = 1;
nodes = (
(369,366,o),
(351,365,o),
(328,361,cs),
(295,355,o),
(264,345,o),
(237,330,cs),
(223,322,o),
(212,314,o),
(203,307,c),
(210,310,o),
(219,311,o),
(229,311,cs),
(264,311,o),
(292,299,o),
(313,274,c),
(325,299,o),
(338,320,o),
(353,337,cs),
(359,344,o),
(368,353,o),
(380,363,c)
);
}
);
width = 687;
}
);
unicode = 3491;
},
{
color = (166,255,153,255);
glyphname = quotedblleft.011;
lastChange = "2024-05-05 02:07:47 +0000";
layers = (
{
layerId = "B33422F0-91E4-47C9-8809-C0A5C4DE8881";
shapes = (
{
closed = 1;
nodes = (
(395,92,o),
(389,82,o),
(382,71,cs),
(350,26,o),
(309,2,o),
(260,-1,cs),
(205,-5,o),
(164,20,o),
(139,73,cs),
(129,94,o),
(124,121,o),
(124,154,cs),
(124,209,o),
(136,259,o),
(161,303,cs),
(168,316,o),
(174,325,o),
(178,331,cs),
(186,342,o),
(195,352,o),
(205,361,c),
(185,360,o),
(174,360,o),
(171,359,c),
(158,358,o),
(147,355,o),
(137,350,cs),
(101,333,o),
(79,302,o),
(70,257,cs),
(63,222,o),
(61,184,o),
(64,144,cs),
(67,99,o),
(82,53,o),
(98,48,cs),
(109,45,o),
(116,51,o),
(120,68,c),
(125,60,o),
(127,52,o),
(127,43,cs),
(127,18,o),
(114,3,o),
(88,0,cs),
(65,-3,o),
(45,9,o),
(29,37,c),
(16,62,o),
(8,91,o),
(5,125,cs),
(0,186,o),
(12,241,o),
(39,289,cs),
(78,357,o),
(147,398,o),
(242,398,cs),
(295,398,o),
(321,386,o),
(321,362,cs),
(321,353,o),
(316,342,o),
(307,329,c),
(293,350,o),
(278,361,o),
(262,361,cs),
(257,361,o),
(251,360,o),
(245,358,cs),
(224,351,o),
(207,330,o),
(196,297,cs),
(187,271,o),
(183,243,o),
(183,214,cs),
(182,163,o),
(189,121,o),
(204,88,cs),
(222,48,o),
(248,29,o),
(281,31,cs),
(300,32,o),
(317,40,o),
(332,55,cs),
(351,73,o),
(362,97,o),
(364,127,cs),
(367,159,o),
(354,191,o),
(321,191,cs),
(304,191,o),
(292,185,o),
(283,173,c),
(282,176,o),
(278,182,o),
(273,189,c),
(276,206,o),
(282,229,o),
(291,260,c),
(304,290,o),
(313,310,o),
(319,320,cs),
(332,341,o),
(349,360,o),
(372,377,cs),
(390,390,o),
(414,397,o),
(443,397,cs),
(458,397,o),
(471,395,o),
(482,391,cs),
(498,385,o),
(510,378,o),
(517,369,c),
(539,384,o),
(571,394,o),
(613,397,cs),
(670,402,o),
(718,378,o),
(718,338,cs),
(718,319,o),
(707,301,o),
(686,285,c),
(678,280,o),
(659,269,o),
(629,254,cs),
(582,231,o),
(529,209,o),
(501,177,cs),
(484,158,o),
(476,136,o),
(476,111,cs),
(476,102,o),
(477,93,o),
(480,84,cs),
(490,49,o),
(509,31,o),
(538,31,cs),
(557,31,o),
(576,38,o),
(595,53,cs),
(620,73,o),
(639,86,o),
(652,92,cs),
(673,102,o),
(694,106,o),
(717,104,cs),
(737,103,o),
(749,78,o),
(746,61,c),
(731,65,o),
(708,57,o),
(678,36,cs),
(648,16,o),
(614,1,o),
(577,-8,cs),
(550,-15,o),
(536,-33,o),
(536,-64,cs),
(536,-113,o),
(574,-155,o),
(623,-155,cs),
(629,-155,o),
(635,-154,o),
(642,-153,cs),
(691,-142,o),
(714,-115,o),
(709,-73,cs),
(706,-44,o),
(692,-27,o),
(667,-21,c),
(677,-14,o),
(689,-10,o),
(704,-10,cs),
(733,-10,o),
(760,-27,o),
(763,-52,cs),
(766,-82,o),
(756,-109,o),
(733,-134,cs),
(708,-161,o),
(674,-179,o),
(631,-186,cs),
(618,-188,o),
(604,-189,o),
(591,-189,cs),
(541,-189,o),
(505,-175,o),
(484,-146,cs),
(474,-132,o),
(469,-116,o),
(469,-97,cs),
(469,-56,o),
(487,-24,o),
(523,0,c),
(456,-2,o),
(416,25,o),
(403,80,cs),
(401,89,o),
(400,96,o),
(400,103,c)
);
},
{
closed = 1;
nodes = (
(469,334,o),
(454,343,o),
(436,347,cs),
(431,348,o),
(426,349,o),
(421,349,cs),
(392,349,o),
(365,330,o),
(340,291,cs),
(331,277,o),
(323,258,o),
(315,235,c),
(324,240,o),
(335,242,o),
(348,242,cs),
(383,242,o),
(406,223,o),
(415,186,cs),
(417,178,o),
(417,168,o),
(415,156,c),
(423,169,o),
(436,182,o),
(453,196,cs),
(467,207,o),
(500,226,o),
(551,251,cs),
(632,290,l),
(643,297,o),
(649,306,o),
(649,317,cs),
(649,338,o),
(635,348,o),
(608,348,cs),
(585,348,o),
(561,340,o),
(535,323,cs),
(510,307,o),
(496,290,o),
(493,272,c),
(477,281,o),
(473,297,o),
(480,320,c)
);
}
);
width = 762;
}
);
unicode = 3493;
},
{
color = (166,255,153,255);
glyphname = quotedblleft.012;
lastChange = "2024-05-05 02:07:47 +0000";
layers = (
{
layerId = "B33422F0-91E4-47C9-8809-C0A5C4DE8881";
shapes = (
{
closed = 1;
nodes = (
(327,373,ls),
(339,390,o),
(359,398,o),
(386,398,cs),
(420,398,o),
(441,385,o),
(450,359,c),
(460,386,o),
(480,399,o),
(510,398,cs),
(557,397,o),
(582,358,o),
(587,281,cs),
(590,234,o),
(585,188,o),
(573,141,cs),
(562,99,o),
(547,68,o),
(530,48,cs),
(497,9,o),
(477,-1,o),
(426,-1,cs),
(403,-1,o),
(384,5,o),
(367,16,cs),
(348,29,o),
(339,46,o),
(340,67,cs),
(341,84,o),
(349,97,o),
(364,105,cs),
(376,112,o),
(390,114,o),
(406,111,c),
(398,98,o),
(394,85,o),
(394,74,cs),
(394,67,o),
(396,59,o),
(399,52,cs),
(408,35,o),
(420,26,o),
(435,25,cs),
(460,24,o),
(480,38,o),
(497,68,cs),
(512,96,o),
(522,133,o),
(526,178,cs),
(528,197,o),
(529,216,o),
(529,235,cs),
(529,300,o),
(522,341,o),
(507,358,cs),
(502,363,o),
(498,366,o),
(494,366,cs),
(479,366,o),
(472,349,o),
(472,315,cs),
(472,308,o),
(473,300,o),
(474,291,cs),
(481,240,o),
(473,205,o),
(450,186,cs),
(443,180,o),
(435,177,o),
(426,177,cs),
(418,177,o),
(409,180,o),
(399,186,c),
(413,201,o),
(421,233,o),
(423,282,cs),
(425,340,o),
(415,370,o),
(392,372,cs),
(374,374,o),
(364,362,o),
(362,336,cs),
(361,319,o),
(365,300,o),
(376,279,c),
(395,259,l),
(391,255,o),
(386,252,o),
(379,250,c),
(378,250,o),
(377,250,o),
(376,249,c),
(379,215,o),
(372,175,o),
(357,130,cs),
(339,77,o),
(311,40,o),
(274,19,cs),
(249,5,o),
(223,-2,o),
(197,-2,cs),
(168,-2,o),
(136,8,o),
(119,20,cs),
(107,28,o),
(98,33,o),
(93,35,cs),
(78,42,o),
(66,43,o),
(55,40,cs),
(36,34,o),
(28,20,o),
(29,-3,c),
(11,2,o),
(2,17,o),
(2,43,cs),
(2,71,o),
(21,106,o),
(58,148,c),
(41,168,o),
(32,195,o),
(31,230,cs),
(30,275,o),
(44,313,o),
(74,343,cs),
(111,380,o),
(161,398,o),
(224,398,cs),
(239,398,o),
(251,397,o),
(262,394,c),
(274,414,o),
(283,430,o),
(288,441,cs),
(300,467,o),
(305,490,o),
(304,511,cs),
(303,524,o),
(300,536,o),
(294,546,c),
(338,557,o),
(356,541,o),
(356,508,cs),
(356,495,o),
(353,478,o),
(346,458,cs),
(341,443,o),
(328,420,o),
(307,389,cs),
(301,380,l),
(308,377,o),
(315,372,o),
(322,366,c)
);
},
{
closed = 1;
nodes = (
(227,342,o),
(235,353,o),
(242,364,c),
(226,373,o),
(205,376,o),
(180,372,cs),
(141,366,o),
(115,346,o),
(100,312,cs),
(91,291,o),
(86,270,o),
(86,251,cs),
(86,239,o),
(88,227,o),
(92,214,cs),
(95,204,o),
(97,197,o),
(99,194,c),
(128,228,o),
(146,249,o),
(154,256,c),
(180,285,o),
(201,310,o),
(218,331,cs)
);
},
{
closed = 1;
nodes = (
(199,239,o),
(215,248,o),
(235,245,cs),
(256,242,o),
(272,219,o),
(271,195,cs),
(270,164,o),
(252,139,o),
(219,120,cs),
(199,109,o),
(178,103,o),
(157,103,cs),
(144,103,o),
(132,105,o),
(120,108,cs),
(103,113,o),
(90,120,o),
(81,127,c),
(55,95,l),
(79,97,o),
(98,95,o),
(113,88,cs),
(120,85,o),
(137,72,o),
(162,49,cs),
(179,34,o),
(198,27,o),
(220,29,cs),
(248,32,o),
(271,48,o),
(289,77,cs),
(305,102,o),
(314,132,o),
(316,165,cs),
(317,184,o),
(318,199,o),
(318,210,cs),
(318,259,o),
(308,296,o),
(289,322,cs),
(283,330,o),
(277,337,o),
(271,343,c),
(234,298,o),
(201,260,o),
(173,231,c),
(157,212,o),
(138,191,o),
(116,167,c),
(130,147,o),
(149,137,o),
(172,137,cs),
(195,137,o),
(211,143,o),
(218,156,cs),
(222,163,o),
(224,171,o),
(224,178,cs),
(224,200,o),
(212,213,o),
(188,218,c)
);
}
);
width = 598;
}
);
unicode = 3499;
},
{
color = (166,255,153,255);
glyphname = quotedblleft.013;
lastChange = "2024-05-05 02:07:47 +0000";
layers = (
{
layerId = "B33422F0-91E4-47C9-8809-C0A5C4DE8881";
shapes = (
{
closed = 1;
nodes = (
(64,100,o),
(68,101,o),
(72,101,cs),
(81,101,o),
(93,90,o),
(106,67,cs),
(119,45,o),
(137,33,o),
(159,32,cs),
(207,29,o),
(238,54,o),
(252,107,cs),
(261,140,o),
(262,168,o),
(257,193,cs),
(250,224,o),
(238,247,o),
(220,262,cs),
(205,275,o),
(189,280,o),
(174,277,c),
(161,264,o),
(144,241,o),
(121,208,cs),
(91,164,o),
(70,127,o),
(59,97,c)
);
},
{
closed = 1;
nodes = (
(267,394,o),
(291,398,o),
(322,398,cs),
(344,398,o),
(362,396,o),
(377,391,cs),
(428,374,o),
(459,311,o),
(459,223,cs),
(459,206,o),
(458,190,o),
(455,174,cs),
(444,100,o),
(415,47,o),
(368,15,cs),
(350,2,o),
(329,-3,o),
(305,-2,cs),
(274,0,o),
(258,9,o),
(258,25,cs),
(258,44,o),
(271,54,o),
(296,55,c),
(293,50,o),
(291,45,o),
(291,41,cs),
(291,30,o),
(299,25,o),
(316,25,cs),
(323,25,o),
(329,26,o),
(334,29,cs),
(374,56,o),
(396,107,o),
(399,182,cs),
(401,221,o),
(397,255,o),
(387,285,cs),
(375,320,o),
(357,342,o),
(333,352,cs),
(323,356,o),
(312,358,o),
(300,358,cs),
(270,358,o),
(245,349,o),
(225,331,cs),
(215,322,o),
(207,314,o),
(202,307,c),
(206,308,o),
(211,308,o),
(216,308,cs),
(279,308,o),
(317,260,o),
(317,197,cs),
(317,148,o),
(304,105,o),
(278,68,cs),
(252,31,o),
(218,9,o),
(175,1,cs),
(165,-1,o),
(155,-2,o),
(146,-2,cs),
(106,-2,o),
(75,14,o),
(53,45,cs),
(50,50,o),
(45,52,o),
(40,52,cs),
(33,52,o),
(25,47,o),
(17,38,c),
(11,35,o),
(6,36,o),
(1,41,c),
(4,60,o),
(16,91,o),
(39,136,cs),
(56,170,o),
(78,205,o),
(105,242,cs),
(116,257,o),
(134,280,o),
(161,312,c),
(165,325,o),
(167,334,o),
(166,341,cs),
(165,354,o),
(158,360,o),
(143,360,cs),
(130,360,o),
(119,353,o),
(109,339,cs),
(104,332,o),
(101,322,o),
(101,310,cs),
(101,295,o),
(104,284,o),
(111,275,c),
(100,269,o),
(90,266,o),
(81,266,cs),
(58,266,o),
(47,280,o),
(47,308,cs),
(47,320,o),
(50,331,o),
(56,342,cs),
(77,379,o),
(106,397,o),
(143,397,cs),
(154,397,o),
(162,396,o),
(169,394,c),
(190,385,o),
(198,368,o),
(195,341,c),
(206,356,o),
(224,370,o),
(251,385,cs)
);
}
);
width = 469;
}
);
unicode = 3501;
},
{
color = (166,255,153,255);
glyphname = quotedblleft.014;
lastChange = "2024-05-05 02:07:47 +0000";
layers = (
{
layerId = "B33422F0-91E4-47C9-8809-C0A5C4DE8881";
shapes = (
{
closed = 1;
nodes = (
(26,295,o),
(21,308,o),
(21,325,cs),
(21,336,o),
(23,345,o),
(27,353,cs),
(44,383,o),
(72,398,o),
(113,398,cs),
(120,398,o),
(130,397,o),
(144,396,cs),
(187,391,o),
(209,368,o),
(209,326,cs),
(209,319,o),
(208,311,o),
(206,304,cs),
(202,288,o),
(183,268,o),
(150,244,cs),
(113,218,o),
(91,198,o),
(84,184,cs),
(75,168,o),
(71,151,o),
(71,134,cs),
(71,103,o),
(81,79,o),
(100,61,cs),
(121,41,o),
(148,30,o),
(180,29,cs),
(218,28,o),
(251,36,o),
(280,55,cs),
(301,68,o),
(312,92,o),
(312,125,cs),
(312,154,o),
(303,182,o),
(285,210,cs),
(259,251,o),
(246,286,o),
(246,315,cs),
(246,330,o),
(250,344,o),
(257,357,cs),
(274,386,o),
(300,400,o),
(335,397,cs),
(363,394,o),
(387,369,o),
(384,346,c),
(375,347,o),
(367,348,o),
(360,348,cs),
(335,348,o),
(321,336,o),
(318,313,cs),
(317,301,o),
(327,268,o),
(349,213,cs),
(358,191,o),
(362,169,o),
(362,148,cs),
(362,60,o),
(295,-1,o),
(176,-1,cs),
(155,-1,o),
(133,1,o),
(110,4,cs),
(80,9,o),
(55,21,o),
(36,40,cs),
(14,61,o),
(3,85,o),
(4,114,cs),
(5,153,o),
(25,189,o),
(65,221,c),
(127,266,l),
(141,277,o),
(148,291,o),
(148,308,cs),
(148,317,o),
(145,326,o),
(139,333,cs),
(131,342,o),
(120,347,o),
(106,347,cs),
(75,347,o),
(41,320,o),
(36,287,c)
);
}
);
width = 384;
}
);
unicode = 3508;
},
{
color = (166,255,153,255);
glyphname = quotedblleft.015;
lastChange = "2024-05-05 02:07:47 +0000";
layers = (
{
layerId = "B33422F0-91E4-47C9-8809-C0A5C4DE8881";
shapes = (
{
closed = 1;
nodes = (
(129,84,o),
(135,68,o),
(135,43,cs),
(135,38,o),
(134,33,o),
(133,30,cs),
(122,9,o),
(106,-2,o),
(85,-2,cs),
(63,-2,o),
(46,7,o),
(34,26,cs),
(12,59,o),
(2,102,o),
(4,155,cs),
(6,209,o),
(18,255,o),
(40,294,cs),
(59,328,o),
(85,356,o),
(117,377,cs),
(137,390,o),
(163,397,o),
(194,397,cs),
(211,397,o),
(224,394,o),
(233,389,cs),
(265,370,o),
(281,342,o),
(281,305,cs),
(281,275,o),
(263,250,o),
(228,229,cs),
(203,214,o),
(190,185,o),
(190,140,cs),
(190,126,o),
(192,112,o),
(195,98,cs),
(206,53,o),
(227,31,o),
(257,34,cs),
(283,37,o),
(304,59,o),
(320,101,cs),
(333,134,o),
(339,178,o),
(339,233,cs),
(339,294,o),
(332,342,o),
(319,376,cs),
(295,437,o),
(266,477,o),
(231,494,cs),
(211,504,o),
(189,509,o),
(165,509,cs),
(124,509,o),
(98,496,o),
(85,471,cs),
(82,465,o),
(80,458,o),
(80,450,cs),
(80,431,o),
(90,422,o),
(109,421,c),
(102,406,o),
(89,398,o),
(70,398,cs),
(45,398,o),
(33,412,o),
(33,441,cs),
(33,473,o),
(54,499,o),
(97,519,cs),
(120,530,o),
(150,535,o),
(188,535,cs),
(240,535,o),
(281,523,o),
(312,498,cs),
(355,463,o),
(382,411,o),
(391,341,cs),
(394,321,o),
(395,301,o),
(395,280,cs),
(395,222,o),
(386,169,o),
(367,120,cs),
(352,81,o),
(336,53,o),
(318,35,cs),
(293,10,o),
(263,-2,o),
(227,-3,cs),
(202,-4,o),
(180,6,o),
(162,27,cs),
(144,48,o),
(134,73,o),
(132,102,cs),
(127,167,o),
(150,212,o),
(199,239,cs),
(217,249,o),
(226,265,o),
(226,288,cs),
(226,299,o),
(224,310,o),
(219,321,cs),
(208,347,o),
(189,360,o),
(163,360,cs),
(156,360,o),
(147,359,o),
(138,357,cs),
(115,352,o),
(84,322,o),
(72,295,cs),
(57,264,o),
(50,229,o),
(50,191,cs),
(50,176,o),
(51,162,o),
(54,147,cs),
(60,112,o),
(71,89,o),
(87,79,cs),
(92,76,o),
(98,75,o),
(105,78,cs),
(112,80,o),
(115,84,o),
(116,91,c)
);
}
);
width = 404;
}
);
unicode = 3510;
},
{
color = (166,255,153,255);
glyphname = quotedblleft.016;
lastChange = "2024-05-05 02:07:47 +0000";
layers = (
{
layerId = "B33422F0-91E4-47C9-8809-C0A5C4DE8881";
shapes = (
{
closed = 1;
nodes = (
(306,-12,o),
(319,-8,o),
(331,-8,cs),
(359,-8,o),
(379,-30,o),
(378,-61,cs),
(377,-85,o),
(360,-110,o),
(325,-136,cs),
(296,-158,o),
(259,-170,o),
(214,-173,cs),
(115,-180,o),
(50,-139,o),
(17,-52,cs),
(8,-27,o),
(3,6,o),
(3,48,cs),
(3,71,o),
(5,95,o),
(8,120,cs),
(17,181,o),
(33,231,o),
(57,270,cs),
(92,325,o),
(132,362,o),
(177,382,cs),
(199,392,o),
(226,397,o),
(257,397,cs),
(287,397,o),
(313,392,o),
(335,382,cs),
(360,371,o),
(380,349,o),
(394,316,cs),
(405,291,o),
(410,262,o),
(410,229,cs),
(410,180,o),
(402,140,o),
(385,107,cs),
(370,77,o),
(350,52,o),
(326,33,cs),
(298,11,o),
(269,0,o),
(238,0,cs),
(227,0,o),
(217,1,o),
(206,4,cs),
(154,18,o),
(128,61,o),
(128,133,cs),
(128,180,o),
(141,226,o),
(168,270,cs),
(197,318,o),
(232,348,o),
(275,359,c),
(265,367,o),
(248,370,o),
(225,367,cs),
(195,364,o),
(166,350,o),
(139,325,cs),
(108,296,o),
(87,260,o),
(76,217,cs),
(67,183,o),
(63,145,o),
(63,104,cs),
(63,31,o),
(77,-26,o),
(104,-67,cs),
(137,-116,o),
(180,-141,o),
(233,-141,cs),
(241,-141,o),
(249,-140,o),
(257,-139,cs),
(274,-136,o),
(288,-129,o),
(301,-118,cs),
(316,-105,o),
(324,-90,o),
(324,-73,cs),
(324,-54,o),
(314,-36,o),
(293,-20,c)
);
},
{
closed = 1;
nodes = (
(281,347,o),
(241,317,o),
(221,285,cs),
(202,254,o),
(192,212,o),
(192,161,cs),
(192,150,o),
(193,141,o),
(194,132,cs),
(202,84,o),
(219,55,o),
(245,44,cs),
(252,41,o),
(260,39,o),
(268,39,cs),
(289,39,o),
(307,50,o),
(324,73,cs),
(338,92,o),
(347,114,o),
(351,138,cs),
(354,153,o),
(355,168,o),
(355,185,cs),
(355,253,o),
(337,306,o),
(301,344,c)
);
}
);
width = 419;
}
);
unicode = 3517;
},
{
color = (166,255,153,255);
glyphname = quotedblleft.017;
lastChange = "2024-05-05 02:07:47 +0000";
layers = (
{
layerId = "B33422F0-91E4-47C9-8809-C0A5C4DE8881";
shapes = (
{
closed = 1;
nodes = (
(364,13,o),
(344,6,o),
(316,2,cs),
(305,1,o),
(286,-2,o),
(260,-6,c),
(262,32,o),
(295,20,o),
(295,83,c),
(296,109,o),
(298,128,o),
(301,139,cs),
(307,158,o),
(318,174,o),
(335,187,cs),
(348,196,o),
(361,201,o),
(373,201,cs),
(380,201,o),
(383,199,o),
(384,196,c),
(364,185,o),
(351,169,o),
(345,148,cs),
(343,141,o),
(341,127,o),
(340,106,c),
(342,84,o),
(345,62,o),
(349,41,c),
(379,70,o),
(395,118,o),
(397,183,cs),
(398,220,o),
(392,255,o),
(378,287,cs),
(360,328,o),
(334,348,o),
(300,348,cs),
(270,348,o),
(243,329,o),
(219,291,cs),
(210,277,o),
(202,258,o),
(194,235,c),
(203,240,o),
(214,242,o),
(226,242,cs),
(265,242,o),
(292,210,o),
(292,171,cs),
(292,136,o),
(280,103,o),
(257,71,cs),
(224,26,o),
(185,2,o),
(139,-1,cs),
(84,-5,o),
(43,20,o),
(18,73,cs),
(8,94,o),
(3,121,o),
(3,154,cs),
(3,209,o),
(15,259,o),
(40,303,cs),
(75,366,o),
(116,397,o),
(161,397,cs),
(188,397,o),
(201,386,o),
(201,365,cs),
(201,354,o),
(196,342,o),
(186,329,c),
(172,350,o),
(157,361,o),
(141,361,cs),
(136,361,o),
(130,360,o),
(124,358,cs),
(103,351,o),
(86,330,o),
(75,297,cs),
(66,271,o),
(62,243,o),
(62,214,cs),
(61,163,o),
(68,121,o),
(82,89,cs),
(99,50,o),
(124,32,o),
(157,34,cs),
(176,35,o),
(192,43,o),
(207,56,cs),
(226,73,o),
(237,97,o),
(239,127,cs),
(242,159,o),
(229,191,o),
(198,191,cs),
(183,191,o),
(171,185,o),
(162,173,c),
(161,176,o),
(157,182,o),
(152,189,c),
(155,206,o),
(161,229,o),
(170,260,c),
(183,290,o),
(192,310,o),
(198,320,cs),
(211,341,o),
(228,360,o),
(251,377,cs),
(268,390,o),
(293,397,o),
(324,397,cs),
(337,397,o),
(349,396,o),
(361,393,cs),
(390,387,o),
(414,366,o),
(432,329,cs),
(449,296,o),
(457,258,o),
(457,215,cs),
(457,179,o),
(450,144,o),
(437,109,c),
(422,72,o),
(401,43,o),
(375,22,cs)
);
}
);
width = 466;
}
);
unicode = 3521;
},
{
color = (166,255,153,255);
glyphname = quotedblright.001;
lastChange = "2024-05-05 02:07:47 +0000";
layers = (
{
layerId = "B33422F0-91E4-47C9-8809-C0A5C4DE8881";
shapes = (
{
closed = 1;
nodes = (
(47,10,o),
(4,55,o),
(5,114,cs),
(6,157,o),
(28,193,o),
(72,220,c),
(102,233,o),
(139,250,o),
(183,272,c),
(198,283,o),
(205,296,o),
(205,311,cs),
(205,319,o),
(203,326,o),
(198,332,cs),
(191,342,o),
(178,347,o),
(160,347,cs),
(139,347,o),
(117,341,o),
(96,328,cs),
(75,316,o),
(64,302,o),
(61,285,c),
(51,293,o),
(46,306,o),
(46,325,cs),
(46,336,o),
(48,345,o),
(52,353,cs),
(69,384,o),
(104,399,o),
(159,399,cs),
(172,399,o),
(184,398,o),
(196,396,cs),
(237,390,o),
(257,368,o),
(257,331,cs),
(257,325,o),
(256,319,o),
(255,312,cs),
(249,288,o),
(224,264,o),
(180,239,c),
(147,222,o),
(109,204,o),
(93,184,cs),
(82,169,o),
(76,151,o),
(76,128,cs),
(76,98,o),
(84,76,o),
(99,61,cs),
(120,41,o),
(149,30,o),
(186,29,cs),
(203,28,o),
(225,33,o),
(254,42,c),
(254,84,o),
(257,142,o),
(262,216,cs),
(268,295,o),
(283,348,o),
(306,374,cs),
(318,387,o),
(333,395,o),
(350,397,cs),
(360,398,o),
(369,396,o),
(376,391,cs),
(386,384,o),
(391,372,o),
(390,355,c),
(377,360,o),
(366,359,o),
(357,353,cs),
(346,346,o),
(338,330,o),
(331,305,cs),
(324,276,o),
(318,226,o),
(314,154,cs),
(309,56,l),
(325,58,o),
(336,58,o),
(342,57,cs),
(355,54,o),
(363,47,o),
(365,37,c),
(333,22,o),
(317,0,o),
(313,-39,cs),
(310,-66,o),
(307,-82,o),
(305,-89,cs),
(296,-116,o),
(285,-135,o),
(271,-146,cs),
(262,-153,o),
(251,-157,o),
(240,-157,cs),
(231,-157,o),
(223,-154,o),
(216,-149,c),
(222,-142,o),
(230,-130,o),
(240,-111,c),
(248,-88,o),
(252,-65,o),
(252,-42,cs),
(252,-9,o),
(252,8,o),
(252,8,c),
(230,1,o),
(203,-3,o),
(171,-3,cs),
(152,-3,o),
(130,-1,o),
(106,2,cs)
);
},
{
closed = 1;
nodes = (
(430,387,o),
(445,380,o),
(461,379,cs),
(475,378,o),
(490,379,o),
(507,384,cs),
(532,391,o),
(548,395,o),
(554,396,cs),
(561,397,o),
(567,398,o),
(574,398,cs),
(599,398,o),
(619,391,o),
(633,377,c),
(614,363,o),
(585,339,o),
(547,305,c),
(517,275,o),
(494,246,o),
(477,217,cs),
(462,192,o),
(455,163,o),
(455,129,cs),
(455,110,o),
(458,92,o),
(464,77,cs),
(477,44,o),
(497,27,o),
(522,27,cs),
(549,27,o),
(571,50,o),
(571,77,cs),
(571,102,o),
(559,117,o),
(534,124,c),
(543,138,o),
(557,145,o),
(576,145,cs),
(603,145,o),
(618,132,o),
(618,104,cs),
(618,87,o),
(615,74,o),
(609,63,cs),
(592,33,o),
(571,13,o),
(544,4,cs),
(521,-4,o),
(497,-6,o),
(472,-1,cs),
(420,9,o),
(394,43,o),
(394,101,cs),
(394,146,o),
(409,188,o),
(438,227,cs),
(457,252,o),
(481,279,o),
(510,306,cs),
(537,331,o),
(563,352,o),
(586,369,c),
(583,370,o),
(579,370,o),
(576,370,cs),
(555,370,o),
(533,362,o),
(510,346,cs),
(493,334,o),
(475,328,o),
(457,328,cs),
(438,328,o),
(423,335,o),
(413,349,cs),
(409,355,o),
(407,362,o),
(407,370,cs),
(407,381,o),
(410,390,o),
(416,399,c)
);
}
);
width = 640;
}
);
unicode = 3463;
},
{
color = (166,255,153,255);
glyphname = quotedblright.003;
lastChange = "2024-05-05 02:07:47 +0000";
layers = (
{
layerId = "B33422F0-91E4-47C9-8809-C0A5C4DE8881";
shapes = (
{
closed = 1;
nodes = (
(131,189,o),
(121,204,o),
(121,225,cs),
(121,258,o),
(146,286,o),
(187,286,cs),
(210,286,o),
(228,280,o),
(241,269,cs),
(262,250,o),
(272,226,o),
(272,196,cs),
(272,158,o),
(257,126,o),
(228,99,cs),
(205,78,o),
(178,67,o),
(149,67,cs),
(138,67,o),
(127,68,o),
(115,71,cs),
(80,78,o),
(51,96,o),
(30,126,cs),
(9,157,o),
(1,189,o),
(5,224,cs),
(11,274,o),
(33,315,o),
(70,348,cs),
(108,381,o),
(153,399,o),
(206,400,cs),
(258,401,o),
(303,388,o),
(340,361,cs),
(378,334,o),
(400,296,o),
(406,247,cs),
(407,238,o),
(408,228,o),
(408,219,cs),
(408,168,o),
(394,127,o),
(365,96,cs),
(334,61,o),
(299,39,o),
(261,30,c),
(304,25,o),
(330,-6,o),
(333,-45,cs),
(336,-96,o),
(312,-135,o),
(263,-163,cs),
(238,-177,o),
(209,-184,o),
(177,-184,cs),
(144,-184,o),
(115,-177,o),
(91,-162,cs),
(65,-145,o),
(50,-123,o),
(47,-95,cs),
(46,-88,o),
(46,-82,o),
(46,-75,cs),
(46,-53,o),
(51,-34,o),
(62,-17,cs),
(75,2,o),
(91,12,o),
(112,12,cs),
(122,12,o),
(133,10,o),
(144,5,c),
(120,-18,o),
(108,-42,o),
(108,-65,cs),
(108,-78,o),
(111,-91,o),
(117,-105,cs),
(132,-140,o),
(158,-157,o),
(195,-157,cs),
(213,-157,o),
(230,-152,o),
(246,-143,cs),
(269,-129,o),
(280,-108,o),
(280,-80,cs),
(280,-65,o),
(276,-52,o),
(269,-39,cs),
(258,-21,o),
(242,-12,o),
(220,-12,cs),
(209,-12,o),
(198,-15,o),
(188,-21,c),
(179,-13,o),
(174,-4,o),
(174,7,cs),
(174,24,o),
(182,37,o),
(198,46,cs),
(207,51,o),
(224,55,o),
(247,57,cs),
(270,59,o),
(288,64,o),
(299,73,cs),
(331,98,o),
(347,132,o),
(347,176,cs),
(347,223,o),
(333,269,o),
(304,313,cs),
(273,358,o),
(227,372,o),
(186,372,cs),
(149,372,o),
(119,359,o),
(94,334,cs),
(70,309,o),
(58,280,o),
(58,246,cs),
(58,210,o),
(70,176,o),
(94,144,cs),
(113,117,o),
(137,104,o),
(165,104,cs),
(198,104,o),
(230,135,o),
(230,168,cs),
(230,180,o),
(227,192,o),
(220,204,cs),
(211,220,o),
(200,228,o),
(185,228,cs),
(180,228,o),
(176,227,o),
(171,226,cs),
(162,224,o),
(157,218,o),
(154,209,cs),
(153,206,o),
(151,197,o),
(150,181,c)
);
}
);
width = 420;
}
);
unicode = 3465;
},
{
color = (166,255,153,255);
glyphname = quotedblright.004;
lastChange = "2024-05-05 02:07:47 +0000";
layers = (
{
layerId = "B33422F0-91E4-47C9-8809-C0A5C4DE8881";
shapes = (
{
closed = 1;
nodes = (
(394,403,o),
(382,420,o),
(382,443,cs),
(382,465,o),
(397,476,o),
(428,476,cs),
(461,476,o),
(488,467,o),
(511,450,c),
(542,425,o),
(566,397,o),
(583,366,cs),
(606,321,o),
(618,263,o),
(618,191,cs),
(618,177,o),
(617,164,o),
(616,152,cs),
(612,115,o),
(604,83,o),
(592,57,cs),
(577,25,o),
(557,10,o),
(534,12,cs),
(504,15,o),
(489,32,o),
(489,63,cs),
(489,74,o),
(491,86,o),
(494,100,cs),
(496,109,o),
(501,117,o),
(508,124,cs),
(517,134,o),
(527,139,o),
(538,139,cs),
(545,139,o),
(553,137,o),
(560,132,c),
(565,171,ls),
(570,213,o),
(566,267,o),
(552,334,cs),
(541,387,o),
(516,418,o),
(477,428,cs),
(474,429,o),
(472,429,o),
(469,429,cs),
(460,429,o),
(455,425,o),
(455,416,cs),
(455,410,o),
(458,404,o),
(464,397,c),
(489,393,o),
(510,367,o),
(509,346,c),
(500,347,o),
(492,348,o),
(485,348,cs),
(460,348,o),
(446,336,o),
(443,313,cs),
(442,301,o),
(452,268,o),
(474,213,cs),
(483,191,o),
(487,169,o),
(487,148,cs),
(487,60,o),
(420,-1,o),
(301,-1,cs),
(280,-1,o),
(258,1,o),
(235,4,cs),
(205,9,o),
(180,21,o),
(161,40,cs),
(139,61,o),
(128,85,o),
(129,114,cs),
(130,153,o),
(150,189,o),
(190,221,c),
(252,266,ls),
(266,277,o),
(273,291,o),
(273,308,cs),
(273,317,o),
(270,326,o),
(264,333,cs),
(256,342,o),
(245,347,o),
(231,347,cs),
(200,347,o),
(166,320,o),
(161,287,c),
(151,295,o),
(146,308,o),
(146,325,cs),
(146,344,o),
(154,361,o),
(170,375,c),
(172,386,o),
(173,396,o),
(173,403,cs),
(173,420,o),
(167,429,o),
(154,429,cs),
(151,429,o),
(148,429,o),
(145,428,cs),
(106,418,o),
(81,387,o),
(70,334,cs),
(56,267,o),
(52,213,o),
(57,171,cs),
(58,162,o),
(59,149,o),
(62,132,c),
(69,137,o),
(77,139,o),
(84,139,cs),
(107,139,o),
(124,117,o),
(128,100,cs),
(131,87,o),
(133,75,o),
(133,64,cs),
(133,32,o),
(118,15,o),
(88,12,cs),
(65,10,o),
(45,25,o),
(30,58,cs),
(18,83,o),
(10,115,o),
(6,152,cs),
(5,164,o),
(4,177,o),
(4,192,cs),
(4,263,o),
(16,321,o),
(39,366,cs),
(56,398,o),
(80,426,o),
(111,450,cs),
(134,467,o),
(161,476,o),
(194,476,cs),
(225,476,o),
(240,465,o),
(240,443,cs),
(240,426,o),
(234,411,o),
(221,397,c),
(232,398,o),
(248,398,o),
(269,396,cs),
(312,391,o),
(334,368,o),
(334,326,cs),
(334,319,o),
(333,311,o),
(331,304,cs),
(327,288,o),
(308,268,o),
(275,244,cs),
(238,218,o),
(216,198,o),
(209,184,cs),
(200,168,o),
(196,151,o),
(196,134,cs),
(196,103,o),
(206,79,o),
(225,61,cs),
(246,41,o),
(273,30,o),
(305,29,cs),
(343,28,o),
(376,36,o),
(405,55,cs),
(426,68,o),
(437,92,o),
(437,125,cs),
(437,154,o),
(428,182,o),
(410,210,cs),
(384,251,o),
(371,286,o),
(371,315,cs),
(371,330,o),
(375,344,o),
(382,357,cs),
(391,374,o),
(403,385,o),
(418,391,c)
);
},
{
closed = 1;
nodes = (
(72,50,o),
(79,41,o),
(89,44,cs),
(99,46,o),
(102,57,o),
(97,78,cs),
(92,99,o),
(85,108,o),
(75,106,cs),
(65,104,o),
(62,92,o),
(67,71,cs)
);
},
{
closed = 1;
nodes = (
(560,92,o),
(557,103,o),
(547,106,cs),
(537,108,o),
(530,99,o),
(525,78,cs),
(520,57,o),
(523,46,o),
(533,43,cs),
(543,41,o),
(550,50,o),
(555,71,cs)
);
}
);
width = 628;
}
);
unicode = 3471;
},
{
color = (166,255,153,255);
glyphname = quotedblright.005;
lastChange = "2024-05-05 02:07:47 +0000";
layers = (
{
layerId = "B33422F0-91E4-47C9-8809-C0A5C4DE8881";
shapes = (
{
closed = 1;
nodes = (
(57,133,o),
(72,156,o),
(89,185,c),
(66,168,o),
(47,155,o),
(31,147,cs),
(22,142,o),
(13,140,o),
(5,140,cs),
(-3,140,o),
(-8,143,o),
(-10,150,cs),
(-12,157,o),
(-10,167,o),
(-5,180,cs),
(2,195,o),
(12,208,o),
(25,218,cs),
(42,231,o),
(62,238,o),
(85,238,cs),
(96,238,o),
(105,236,o),
(113,231,c),
(142,255,o),
(159,272,o),
(164,281,cs),
(169,291,o),
(172,301,o),
(172,311,cs),
(172,330,o),
(158,343,o),
(135,343,cs),
(116,343,o),
(96,335,o),
(77,319,cs),
(58,304,o),
(48,287,o),
(47,270,c),
(40,276,o),
(36,288,o),
(36,306,cs),
(36,319,o),
(38,330,o),
(43,339,cs),
(56,363,o),
(77,380,o),
(105,390,cs),
(125,397,o),
(143,400,o),
(159,398,cs),
(207,393,o),
(230,357,o),
(225,312,cs),
(222,283,o),
(190,248,o),
(131,207,c),
(134,194,o),
(129,174,o),
(115,147,cs),
(106,130,o),
(101,112,o),
(101,93,cs),
(101,54,o),
(133,33,o),
(174,33,cs),
(185,33,o),
(196,35,o),
(208,38,cs),
(256,52,o),
(289,84,o),
(308,134,cs),
(323,173,o),
(330,217,o),
(330,266,cs),
(330,359,o),
(306,413,o),
(271,453,cs),
(251,477,o),
(229,495,o),
(204,507,cs),
(183,517,o),
(161,523,o),
(136,525,c),
(139,514,o),
(145,503,o),
(152,493,cs),
(165,476,o),
(180,465,o),
(199,460,cs),
(223,453,o),
(240,454,o),
(251,463,c),
(256,436,o),
(239,423,o),
(199,423,cs),
(187,423,o),
(176,425,o),
(165,428,cs),
(136,436,o),
(113,454,o),
(98,481,cs),
(94,488,o),
(91,501,o),
(90,518,cs),
(89,535,o),
(91,548,o),
(94,557,c),
(115,551,o),
(134,548,o),
(150,547,cs),
(167,546,o),
(191,544,o),
(223,539,c),
(258,529,o),
(285,516,o),
(303,501,cs),
(359,453,o),
(387,388,o),
(387,305,cs),
(387,248,o),
(376,193,o),
(354,140,cs),
(336,95,o),
(308,60,o),
(269,34,cs),
(234,10,o),
(191,-2,o),
(141,-2,cs),
(78,-2,o),
(43,17,o),
(35,55,cs),
(31,74,o),
(34,94,o),
(44,116,c)
);
}
);
width = 397;
}
);
unicode = 3473;
},
{
color = (166,255,153,255);
glyphname = quotedblright.008;
lastChange = "2024-05-05 02:07:47 +0000";
layers = (
{
layerId = "B33422F0-91E4-47C9-8809-C0A5C4DE8881";
shapes = (
{
closed = 1;
nodes = (
(354,5,o),
(331,-3,o),
(306,-2,cs),
(274,-1,o),
(258,8,o),
(258,25,cs),
(258,44,o),
(271,54,o),
(296,55,c),
(293,50,o),
(291,45,o),
(291,41,cs),
(291,30,o),
(299,25,o),
(316,25,cs),
(323,25,o),
(329,26,o),
(334,29,cs),
(374,55,o),
(395,106,o),
(397,183,cs),
(398,220,o),
(392,255,o),
(378,287,cs),
(360,328,o),
(334,348,o),
(300,348,cs),
(270,348,o),
(243,329,o),
(219,291,cs),
(210,277,o),
(202,258,o),
(194,235,c),
(203,240,o),
(214,242,o),
(227,242,cs),
(267,242,o),
(296,211,o),
(296,171,cs),
(296,136,o),
(284,103,o),
(261,71,cs),
(229,26,o),
(188,2,o),
(139,-1,cs),
(84,-5,o),
(43,20,o),
(18,73,cs),
(8,94,o),
(3,121,o),
(3,154,cs),
(3,209,o),
(15,259,o),
(40,303,cs),
(75,366,o),
(116,397,o),
(161,397,cs),
(188,397,o),
(201,386,o),
(201,365,cs),
(201,354,o),
(196,342,o),
(186,329,c),
(172,350,o),
(157,361,o),
(141,361,cs),
(136,361,o),
(130,360,o),
(124,358,cs),
(103,351,o),
(86,330,o),
(75,297,cs),
(66,271,o),
(62,243,o),
(62,214,cs),
(61,163,o),
(68,121,o),
(83,88,cs),
(101,48,o),
(127,29,o),
(160,31,cs),
(179,32,o),
(196,40,o),
(211,55,cs),
(230,73,o),
(241,97,o),
(243,127,cs),
(246,159,o),
(233,191,o),
(200,191,cs),
(183,191,o),
(171,185,o),
(162,173,c),
(161,176,o),
(157,182,o),
(152,189,c),
(155,206,o),
(161,229,o),
(170,260,c),
(183,290,o),
(192,310,o),
(198,320,cs),
(211,341,o),
(228,360,o),
(251,377,cs),
(268,390,o),
(293,397,o),
(324,397,cs),
(337,397,o),
(349,396,o),
(361,393,cs),
(390,387,o),
(414,366,o),
(432,329,cs),
(449,296,o),
(457,258,o),
(457,215,cs),
(457,179,o),
(450,144,o),
(437,109,cs),
(422,72,o),
(401,43,o),
(375,22,cs)
);
}
);
width = 467;
}
);
unicode = 3484;
},
{
color = (166,255,153,255);
glyphname = quotedblright.009;
lastChange = "2024-05-05 02:07:47 +0000";
layers = (
{
guides = (
{
pos = (0,650);
}
);
layerId = "B33422F0-91E4-47C9-8809-C0A5C4DE8881";
shapes = (
{
closed = 1;
nodes = (
(161,56,o),
(180,82,o),
(200,133,cs),
(211,161,o),
(233,175,o),
(265,175,cs),
(271,175,o),
(276,175,o),
(281,174,c),
(272,158,o),
(265,136,o),
(262,108,cs),
(258,77,o),
(261,56,o),
(271,43,cs),
(276,36,o),
(283,33,o),
(290,33,cs),
(311,33,o),
(328,55,o),
(341,100,cs),
(350,131,o),
(356,162,o),
(357,191,cs),
(361,268,o),
(356,331,o),
(342,380,cs),
(325,437,o),
(295,477,o),
(252,498,cs),
(233,507,o),
(213,511,o),
(190,511,cs),
(170,511,o),
(152,507,o),
(135,499,cs),
(114,489,o),
(103,475,o),
(103,457,cs),
(103,438,o),
(114,428,o),
(136,427,c),
(131,416,o),
(122,410,o),
(109,407,cs),
(102,406,o),
(95,405,o),
(90,405,cs),
(71,405,o),
(60,414,o),
(56,433,cs),
(49,468,o),
(71,498,o),
(123,522,cs),
(146,533,o),
(176,538,o),
(213,538,cs),
(264,538,o),
(304,526,o),
(335,501,cs),
(390,457,o),
(418,386,o),
(418,289,cs),
(418,240,o),
(412,192,o),
(401,144,cs),
(392,106,o),
(377,71,o),
(354,39,cs),
(339,18,o),
(320,6,o),
(297,1,cs),
(268,-5,o),
(245,0,o),
(227,15,cs),
(211,28,o),
(203,48,o),
(203,73,c),
(188,43,o),
(171,22,o),
(154,10,cs),
(143,3,o),
(131,-1,o),
(118,-1,cs),
(82,0,o),
(53,24,o),
(53,81,cs),
(53,94,o),
(55,105,o),
(58,116,cs),
(66,142,o),
(87,168,o),
(120,194,cs),
(180,241,o),
(192,275,o),
(192,307,cs),
(192,317,o),
(190,325,o),
(187,331,cs),
(178,347,o),
(166,355,o),
(152,356,cs),
(132,357,o),
(115,352,o),
(101,340,c),
(122,337,o),
(133,318,o),
(133,281,cs),
(133,268,o),
(131,255,o),
(126,242,cs),
(120,225,o),
(110,209,o),
(96,196,c),
(80,179,o),
(64,171,o),
(48,171,cs),
(19,171,o),
(2,197,o),
(2,228,cs),
(2,268,o),
(23,307,o),
(65,344,cs),
(107,381,o),
(148,399,o),
(189,398,cs),
(209,397,o),
(225,390,o),
(237,377,cs),
(247,365,o),
(252,350,o),
(252,333,cs),
(252,300,o),
(232,262,o),
(193,220,cs),
(182,209,o),
(164,191,o),
(139,164,cs),
(123,145,o),
(115,123,o),
(115,97,cs),
(115,70,o),
(124,56,o),
(142,56,cs)
);
},
{
closed = 1;
nodes = (
(54,292,o),
(45,270,o),
(45,250,cs),
(45,229,o),
(52,219,o),
(67,219,cs),
(83,219,o),
(93,230,o),
(97,251,cs),
(101,274,o),
(87,306,o),
(70,311,c)
);
}
);
width = 427;
}
);
unicode = 3486;
},
{
color = (166,255,153,255);
glyphname = quotedblright.010;
lastChange = "2024-05-05 02:07:47 +0000";
layers = (
{
layerId = "B33422F0-91E4-47C9-8809-C0A5C4DE8881";
shapes = (
{
closed = 1;
nodes = (
(194,99,o),
(199,101,o),
(204,101,cs),
(217,101,o),
(225,92,o),
(230,75,cs),
(235,56,o),
(241,46,o),
(248,46,cs),
(251,46,o),
(260,58,o),
(274,82,cs),
(290,109,o),
(300,125,o),
(305,130,cs),
(315,140,o),
(336,143,o),
(368,139,c),
(351,121,o),
(343,97,o),
(343,68,cs),
(343,47,o),
(351,36,o),
(367,36,cs),
(390,36,o),
(406,59,o),
(415,104,cs),
(422,139,o),
(422,169,o),
(415,196,cs),
(401,251,o),
(371,279,o),
(324,279,cs),
(318,279,o),
(312,278,o),
(306,277,c),
(293,264,o),
(276,241,o),
(253,207,cs),
(226,167,o),
(205,130,o),
(189,96,c)
);
},
{
closed = 1;
nodes = (
(599,382,o),
(634,393,o),
(679,397,cs),
(736,402,o),
(784,378,o),
(784,338,cs),
(784,319,o),
(773,301,o),
(752,285,cs),
(744,280,o),
(725,269,o),
(695,254,cs),
(648,231,o),
(595,209,o),
(567,177,cs),
(550,158,o),
(542,136,o),
(542,111,cs),
(542,102,o),
(543,93,o),
(546,84,cs),
(556,49,o),
(575,31,o),
(604,31,cs),
(623,31,o),
(642,38,o),
(661,53,cs),
(686,73,o),
(705,86,o),
(718,92,cs),
(739,102,o),
(760,106,o),
(783,104,cs),
(803,103,o),
(815,78,o),
(812,61,c),
(797,65,o),
(774,57,o),
(744,36,cs),
(714,16,o),
(680,1,o),
(643,-8,cs),
(616,-15,o),
(602,-33,o),
(602,-64,cs),
(602,-113,o),
(640,-155,o),
(689,-155,cs),
(695,-155,o),
(701,-154,o),
(708,-153,cs),
(757,-142,o),
(780,-115,o),
(775,-73,cs),
(772,-44,o),
(758,-27,o),
(733,-21,c),
(743,-14,o),
(755,-10,o),
(770,-10,cs),
(799,-10,o),
(826,-27,o),
(829,-52,cs),
(832,-82,o),
(822,-109,o),
(799,-134,cs),
(774,-161,o),
(740,-179,o),
(697,-186,cs),
(684,-188,o),
(670,-189,o),
(657,-189,cs),
(607,-189,o),
(571,-175,o),
(550,-146,cs),
(540,-132,o),
(535,-116,o),
(535,-97,cs),
(535,-56,o),
(553,-24,o),
(589,0,c),
(522,-2,o),
(482,25,o),
(469,80,cs),
(467,89,o),
(466,97,o),
(466,104,cs),
(466,137,o),
(484,167,o),
(519,196,cs),
(533,207,o),
(566,226,o),
(617,251,cs),
(698,290,l),
(709,297,o),
(715,306,o),
(715,317,cs),
(715,338,o),
(701,348,o),
(674,348,cs),
(651,348,o),
(627,340,o),
(601,323,cs),
(576,307,o),
(562,290,o),
(559,272,c),
(545,280,o),
(540,294,o),
(544,314,c),
(536,327,o),
(521,340,o),
(499,352,cs),
(487,359,o),
(471,362,o),
(452,362,cs),
(401,362,o),
(362,344,o),
(334,307,c),
(341,310,o),
(350,311,o),
(360,311,cs),
(383,311,o),
(403,305,o),
(422,293,cs),
(445,278,o),
(460,257,o),
(467,228,cs),
(470,214,o),
(472,199,o),
(472,183,cs),
(472,141,o),
(463,103,o),
(444,69,cs),
(419,22,o),
(387,-1,o),
(350,-1,cs),
(311,-1,o),
(291,18,o),
(291,55,c),
(272,26,o),
(258,9,o),
(247,4,cs),
(237,0,o),
(228,-2,o),
(220,-2,cs),
(199,-2,o),
(185,10,o),
(178,34,cs),
(176,41,o),
(172,45,o),
(166,45,cs),
(161,45,o),
(155,41,o),
(148,32,c),
(145,31,o),
(141,38,o),
(140,38,c),
(137,36,l),
(149,89,o),
(183,157,o),
(239,240,cs),
(256,266,o),
(274,290,o),
(293,312,c),
(297,325,o),
(299,334,o),
(298,341,cs),
(297,354,o),
(290,360,o),
(275,360,cs),
(262,360,o),
(251,353,o),
(241,339,cs),
(236,332,o),
(233,322,o),
(233,310,cs),
(233,295,o),
(236,284,o),
(243,275,c),
(232,269,o),
(222,266,o),
(213,266,cs),
(190,266,o),
(179,280,o),
(179,308,cs),
(179,320,o),
(182,331,o),
(188,342,c),
(188,343,o),
(189,344,o),
(190,345,c),
(173,352,o),
(154,353,o),
(135,348,cs),
(102,339,o),
(80,309,o),
(70,257,cs),
(63,222,o),
(61,184,o),
(64,144,cs),
(67,99,o),
(82,53,o),
(98,48,cs),
(109,45,o),
(116,51,o),
(120,68,c),
(125,60,o),
(127,52,o),
(127,43,cs),
(127,18,o),
(114,3,o),
(88,0,cs),
(65,-3,o),
(45,9,o),
(29,37,cs),
(16,62,o),
(8,91,o),
(5,125,cs),
(0,186,o),
(12,241,o),
(39,289,cs),
(58,323,o),
(83,351,o),
(112,372,cs),
(135,389,o),
(164,397,o),
(197,397,cs),
(213,397,o),
(225,394,o),
(232,387,c),
(253,397,o),
(274,400,o),
(296,395,cs),
(317,390,o),
(330,364,o),
(327,341,c),
(339,354,o),
(360,369,o),
(390,384,cs),
(407,393,o),
(434,397,o),
(470,397,cs),
(517,397,o),
(552,386,o),
(576,364,c)
);
}
);
width = 829;
}
);
unicode = 3492;
},
{
color = (166,255,153,255);
glyphname = quotedblright.011;
lastChange = "2024-05-05 02:07:47 +0000";
layers = (
{
layerId = "B33422F0-91E4-47C9-8809-C0A5C4DE8881";
shapes = (
{
closed = 1;
nodes = (
(539,383,o),
(549,368,o),
(551,346,cs),
(554,318,o),
(538,307,o),
(519,310,cs),
(508,312,o),
(493,323,o),
(476,342,c),
(471,335,o),
(470,327,o),
(473,317,c),
(484,292,o),
(498,257,o),
(516,213,cs),
(525,191,o),
(529,169,o),
(529,148,cs),
(529,60,o),
(462,-1,o),
(343,-1,cs),
(322,-1,o),
(300,1,o),
(277,4,cs),
(247,9,o),
(222,21,o),
(203,40,cs),
(181,61,o),
(170,85,o),
(171,114,cs),
(172,153,o),
(192,189,o),
(232,221,c),
(294,266,ls),
(308,277,o),
(315,291,o),
(315,308,cs),
(315,317,o),
(312,326,o),
(306,333,cs),
(298,342,o),
(287,347,o),
(273,347,cs),
(242,347,o),
(208,320,o),
(203,287,c),
(193,295,o),
(188,308,o),
(188,325,cs),
(188,332,o),
(189,338,o),
(190,344,c),
(180,349,o),
(170,351,o),
(159,351,cs),
(151,351,o),
(143,350,o),
(135,348,cs),
(102,339,o),
(80,309,o),
(70,257,cs),
(63,222,o),
(61,184,o),
(64,144,cs),
(67,99,o),
(82,53,o),
(98,48,cs),
(109,45,o),
(116,51,o),
(120,68,c),
(125,60,o),
(127,52,o),
(127,43,cs),
(127,18,o),
(114,3,o),
(88,0,cs),
(65,-3,o),
(45,9,o),
(29,37,cs),
(16,62,o),
(8,91,o),
(5,125,cs),
(0,186,o),
(12,241,o),
(39,289,cs),
(58,323,o),
(83,351,o),
(112,372,cs),
(135,389,o),
(164,397,o),
(197,397,cs),
(212,397,o),
(224,394,o),
(231,388,c),
(245,395,o),
(261,398,o),
(280,398,cs),
(287,398,o),
(297,397,o),
(311,396,cs),
(354,391,o),
(376,368,o),
(376,326,cs),
(376,319,o),
(375,311,o),
(373,304,cs),
(369,288,o),
(350,268,o),
(317,244,cs),
(280,218,o),
(258,198,o),
(251,184,cs),
(242,168,o),
(238,151,o),
(238,134,cs),
(238,103,o),
(248,79,o),
(267,61,cs),
(288,41,o),
(315,30,o),
(347,29,cs),
(385,28,o),
(418,36,o),
(447,55,cs),
(468,68,o),
(479,92,o),
(479,125,cs),
(479,154,o),
(470,182,o),
(452,210,cs),
(426,251,o),
(413,286,o),
(413,315,cs),
(413,330,o),
(417,344,o),
(424,357,cs),
(433,373,o),
(445,384,o),
(459,390,c),
(456,417,o),
(460,440,o),
(472,459,cs),
(475,463,o),
(494,485,o),
(529,524,cs),
(540,535,o),
(545,552,o),
(545,573,cs),
(545,595,o),
(536,612,o),
(519,624,c),
(528,629,o),
(537,631,o),
(546,631,cs),
(573,631,o),
(596,608,o),
(596,583,cs),
(596,543,o),
(561,516,o),
(536,489,cs),
(526,478,o),
(519,468,o),
(516,459,cs),
(509,440,o),
(510,417,o),
(521,392,c)
);
}
);
width = 552;
}
);
unicode = 3494;
},
{
color = (166,255,153,255);
glyphname = quotedblright.012;
lastChange = "2024-05-05 02:07:47 +0000";
layers = (
{
layerId = "B33422F0-91E4-47C9-8809-C0A5C4DE8881";
shapes = (
{
closed = 1;
nodes = (
(169,352,o),
(152,353,o),
(135,348,cs),
(102,339,o),
(80,309,o),
(70,257,cs),
(63,222,o),
(61,184,o),
(64,144,cs),
(67,99,o),
(82,53,o),
(98,48,cs),
(109,45,o),
(116,51,o),
(120,68,c),
(125,60,o),
(127,52,o),
(127,43,cs),
(127,18,o),
(114,3,o),
(88,0,cs),
(65,-3,o),
(45,9,o),
(29,37,cs),
(16,62,o),
(8,91,o),
(5,125,cs),
(0,186,o),
(12,241,o),
(39,289,cs),
(58,323,o),
(83,351,o),
(112,372,cs),
(135,389,o),
(163,397,o),
(196,397,cs),
(212,397,o),
(224,394,o),
(231,388,c),
(249,395,o),
(272,398,o),
(301,398,cs),
(340,398,o),
(365,374,o),
(365,343,cs),
(365,336,o),
(363,328,o),
(360,321,cs),
(347,292,o),
(316,267,o),
(265,246,c),
(265,241,o),
(260,232,o),
(251,218,cs),
(215,165,ls),
(206,151,o),
(202,134,o),
(202,113,cs),
(202,70,o),
(216,48,o),
(243,48,cs),
(263,48,o),
(284,76,o),
(306,133,cs),
(317,161,o),
(339,175,o),
(371,175,cs),
(377,175,o),
(382,175,o),
(387,174,c),
(378,158,o),
(371,136,o),
(368,108,cs),
(364,77,o),
(367,56,o),
(377,43,cs),
(382,36,o),
(389,33,o),
(398,33,cs),
(411,33,o),
(421,38,o),
(429,49,cs),
(452,80,o),
(466,127,o),
(469,191,cs),
(473,268,o),
(468,331,o),
(454,380,cs),
(437,437,o),
(407,477,o),
(364,498,cs),
(345,507,o),
(325,511,o),
(302,511,cs),
(282,511,o),
(264,507,o),
(247,499,cs),
(226,489,o),
(215,475,o),
(215,457,cs),
(215,438,o),
(226,428,o),
(248,427,c),
(243,416,o),
(234,410,o),
(221,407,cs),
(214,406,o),
(207,405,o),
(202,405,cs),
(183,405,o),
(172,414,o),
(168,433,cs),
(161,468,o),
(183,498,o),
(235,522,cs),
(258,533,o),
(288,538,o),
(325,538,cs),
(376,538,o),
(416,526,o),
(447,501,cs),
(502,457,o),
(530,386,o),
(530,289,cs),
(530,240,o),
(524,192,o),
(513,144,cs),
(504,106,o),
(489,71,o),
(466,39,cs),
(451,18,o),
(432,6,o),
(409,1,cs),
(377,-6,o),
(352,-1,o),
(333,15,cs),
(317,28,o),
(309,48,o),
(309,73,c),
(294,43,o),
(277,22,o),
(260,10,cs),
(249,2,o),
(234,-2,o),
(217,-1,cs),
(176,0,o),
(139,21,o),
(139,90,cs),
(139,120,o),
(153,151,o),
(180,183,c),
(192,194,o),
(207,210,o),
(226,229,c),
(209,219,o),
(186,209,o),
(155,199,cs),
(140,194,o),
(130,192,o),
(123,192,cs),
(114,192,o),
(108,195,o),
(106,202,cs),
(101,221,o),
(127,252,o),
(158,265,cs),
(178,274,o),
(198,278,o),
(217,278,cs),
(229,278,o),
(239,276,o),
(246,272,c),
(261,277,o),
(276,286,o),
(292,297,cs),
(301,304,o),
(306,313,o),
(306,324,cs),
(306,341,o),
(295,349,o),
(273,349,cs),
(244,349,o),
(209,327,o),
(201,300,c),
(188,305,o),
(182,316,o),
(182,331,cs),
(182,336,o),
(183,342,o),
(185,347,c)
);
}
);
width = 540;
}
);
unicode = 3500;
},
{
color = (166,255,153,255);
glyphname = quotedblright.013;
lastChange = "2024-05-05 02:07:47 +0000";
layers = (
{
layerId = "B33422F0-91E4-47C9-8809-C0A5C4DE8881";
shapes = (
{
closed = 1;
nodes = (
(263,436,o),
(246,423,o),
(206,423,cs),
(194,423,o),
(183,425,o),
(172,428,cs),
(143,436,o),
(120,454,o),
(105,481,cs),
(101,488,o),
(98,501,o),
(97,518,cs),
(96,535,o),
(98,548,o),
(101,557,c),
(122,551,o),
(141,548,o),
(157,547,cs),
(174,546,o),
(198,544,o),
(230,539,c),
(265,529,o),
(292,516,o),
(310,501,cs),
(367,452,o),
(395,383,o),
(395,294,cs),
(395,238,o),
(384,186,o),
(363,139,cs),
(341,89,o),
(310,51,o),
(271,26,cs),
(240,6,o),
(203,-4,o),
(160,-3,cs),
(91,-2,o),
(45,26,o),
(20,80,cs),
(10,102,o),
(5,131,o),
(5,166,cs),
(5,189,o),
(7,212,o),
(12,233,cs),
(21,270,o),
(38,304,o),
(64,335,cs),
(91,367,o),
(120,387,o),
(152,394,cs),
(161,396,o),
(170,397,o),
(179,397,cs),
(214,397,o),
(235,382,o),
(241,352,cs),
(245,329,o),
(227,307,o),
(199,302,c),
(203,321,o),
(200,337,o),
(189,349,cs),
(180,358,o),
(170,363,o),
(159,363,cs),
(136,363,o),
(116,351,o),
(99,326,cs),
(86,307,o),
(77,284,o),
(71,257,cs),
(67,238,o),
(65,216,o),
(65,191,cs),
(65,136,o),
(77,94,o),
(100,65,cs),
(120,40,o),
(149,28,o),
(187,28,cs),
(215,28,o),
(241,39,o),
(266,60,cs),
(291,81,o),
(308,106,o),
(317,134,cs),
(330,173,o),
(337,215,o),
(337,261,cs),
(337,309,o),
(331,349,o),
(319,380,cs),
(308,409,o),
(294,434,o),
(278,453,cs),
(258,477,o),
(236,495,o),
(211,507,cs),
(190,517,o),
(168,523,o),
(143,525,c),
(146,514,o),
(152,503,o),
(159,493,cs),
(172,476,o),
(187,465,o),
(206,460,cs),
(230,453,o),
(247,454,o),
(258,463,c)
);
}
);
width = 405;
}
);
unicode = 3502;
},
{
color = (166,255,153,255);
glyphname = quotedblright.014;
lastChange = "2024-05-05 02:07:47 +0000";
layers = (
{
layerId = "B33422F0-91E4-47C9-8809-C0A5C4DE8881";
shapes = (
{
closed = 1;
nodes = (
(336,95,o),
(308,60,o),
(269,34,cs),
(234,10,o),
(190,-2,o),
(138,-2,cs),
(67,-2,o),
(24,22,o),
(9,69,cs),
(6,80,o),
(4,91,o),
(4,102,cs),
(4,149,o),
(38,195,o),
(107,240,cs),
(154,271,o),
(175,300,o),
(170,327,cs),
(166,350,o),
(152,362,o),
(129,362,cs),
(122,362,o),
(115,360,o),
(108,357,cs),
(88,348,o),
(71,328,o),
(57,296,cs),
(52,283,o),
(50,268,o),
(53,250,c),
(25,255,o),
(12,272,o),
(15,299,cs),
(18,327,o),
(40,353,o),
(81,378,cs),
(102,391,o),
(128,397,o),
(161,397,cs),
(209,397,o),
(233,376,o),
(233,333,cs),
(233,320,o),
(230,309,o),
(224,299,cs),
(214,284,o),
(180,256,o),
(123,215,cs),
(87,190,o),
(69,158,o),
(69,120,cs),
(69,100,o),
(76,81,o),
(91,63,cs),
(107,43,o),
(134,33,o),
(172,33,cs),
(231,33,o),
(287,77,o),
(308,134,cs),
(323,173,o),
(330,217,o),
(330,266,cs),
(330,359,o),
(306,413,o),
(271,453,cs),
(251,477,o),
(229,495,o),
(204,507,cs),
(183,517,o),
(161,523,o),
(136,525,c),
(139,514,o),
(145,503,o),
(152,493,cs),
(165,476,o),
(180,465,o),
(199,460,cs),
(223,453,o),
(240,454,o),
(251,463,c),
(256,436,o),
(239,423,o),
(199,423,cs),
(187,423,o),
(176,425,o),
(165,428,cs),
(136,436,o),
(113,454,o),
(98,481,cs),
(94,488,o),
(91,501,o),
(90,518,cs),
(89,535,o),
(91,548,o),
(94,557,c),
(115,551,o),
(134,548,o),
(150,547,cs),
(167,546,o),
(191,544,o),
(223,539,c),
(258,529,o),
(285,516,o),
(303,501,cs),
(359,453,o),
(387,388,o),
(387,305,cs),
(387,248,o),
(376,193,o),
(354,140,cs)
);
}
);
width = 395;
}
);
unicode = 3509;
},
{
color = (166,255,153,255);
glyphname = quotedblright.015;
lastChange = "2024-05-05 02:07:47 +0000";
layers = (
{
layerId = "B33422F0-91E4-47C9-8809-C0A5C4DE8881";
shapes = (
{
closed = 1;
nodes = (
(205,32,o),
(222,40,o),
(237,55,cs),
(256,73,o),
(267,97,o),
(269,127,cs),
(272,159,o),
(259,191,o),
(226,191,cs),
(209,191,o),
(197,185,o),
(188,173,c),
(187,176,o),
(183,182,o),
(178,189,c),
(181,206,o),
(187,229,o),
(196,260,c),
(209,290,o),
(218,310,o),
(224,320,cs),
(237,341,o),
(254,360,o),
(277,377,cs),
(294,390,o),
(319,397,o),
(350,397,cs),
(363,397,o),
(375,396,o),
(387,393,cs),
(416,387,o),
(440,366,o),
(458,329,cs),
(475,296,o),
(483,258,o),
(483,215,cs),
(483,179,o),
(476,144,o),
(463,109,cs),
(448,72,o),
(427,43,o),
(401,22,cs),
(380,5,o),
(357,-3,o),
(332,-2,cs),
(300,-1,o),
(284,8,o),
(284,25,cs),
(284,44,o),
(297,54,o),
(322,55,c),
(319,50,o),
(317,45,o),
(317,41,cs),
(317,30,o),
(325,25,o),
(342,25,cs),
(349,25,o),
(355,26,o),
(360,29,cs),
(400,55,o),
(421,106,o),
(423,183,cs),
(424,220,o),
(418,255,o),
(404,287,cs),
(386,328,o),
(360,348,o),
(326,348,cs),
(296,348,o),
(269,329,o),
(245,291,cs),
(236,277,o),
(228,258,o),
(220,235,c),
(229,240,o),
(240,242,o),
(253,242,cs),
(293,242,o),
(322,211,o),
(322,171,cs),
(322,136,o),
(310,103,o),
(287,71,cs),
(255,26,o),
(214,2,o),
(165,-1,cs),
(95,-6,o),
(55,17,o),
(46,67,cs),
(44,76,o),
(43,86,o),
(43,95,cs),
(43,134,o),
(60,173,o),
(94,211,c),
(86,208,o),
(71,207,o),
(50,210,cs),
(32,212,o),
(17,208,o),
(6,199,c),
(3,206,o),
(1,212,o),
(1,218,cs),
(1,239,o),
(22,255,o),
(42,256,c),
(52,253,o),
(74,254,o),
(108,257,c),
(139,265,o),
(160,285,o),
(160,305,cs),
(160,325,o),
(143,344,o),
(123,344,cs),
(95,344,o),
(67,320,o),
(62,287,c),
(51,295,o),
(46,309,o),
(46,329,cs),
(46,340,o),
(48,349,o),
(53,356,cs),
(71,383,o),
(102,397,o),
(145,397,cs),
(164,397,o),
(180,390,o),
(192,377,cs),
(202,366,o),
(207,351,o),
(207,334,cs),
(207,325,o),
(205,316,o),
(202,307,cs),
(191,280,o),
(171,257,o),
(144,236,c),
(128,217,o),
(117,197,o),
(110,175,cs),
(99,141,o),
(97,111,o),
(104,85,cs),
(113,46,o),
(141,28,o),
(186,31,cs)
);
}
);
width = 493;
}
);
unicode = 3511;
},
{
color = (166,255,153,255);
glyphname = quotedblright.016;
lastChange = "2024-05-05 02:07:47 +0000";
layers = (
{
layerId = "B33422F0-91E4-47C9-8809-C0A5C4DE8881";
shapes = (
{
closed = 1;
nodes = (
(25,255,o),
(12,272,o),
(15,299,cs),
(18,327,o),
(40,353,o),
(81,378,cs),
(102,391,o),
(128,397,o),
(161,397,cs),
(209,397,o),
(233,376,o),
(233,333,cs),
(233,320,o),
(230,309,o),
(224,299,cs),
(214,284,o),
(180,256,o),
(123,215,cs),
(87,190,o),
(69,158,o),
(69,120,cs),
(69,100,o),
(76,81,o),
(91,63,cs),
(107,43,o),
(134,33,o),
(172,33,cs),
(231,33,o),
(287,77,o),
(308,134,cs),
(323,173,o),
(330,217,o),
(330,266,cs),
(330,313,o),
(324,351,o),
(313,380,cs),
(290,439,o),
(260,479,o),
(221,498,cs),
(201,508,o),
(179,513,o),
(154,513,cs),
(133,513,o),
(115,509,o),
(99,501,cs),
(78,492,o),
(68,478,o),
(68,460,cs),
(68,435,o),
(79,422,o),
(102,421,c),
(95,406,o),
(80,399,o),
(58,399,cs),
(32,399,o),
(19,413,o),
(19,441,cs),
(19,477,o),
(42,505,o),
(87,526,cs),
(110,537,o),
(141,542,o),
(178,542,cs),
(231,542,o),
(273,529,o),
(305,504,cs),
(358,461,o),
(385,393,o),
(385,298,cs),
(385,244,o),
(375,191,o),
(354,140,cs),
(336,95,o),
(308,60,o),
(269,34,cs),
(234,10,o),
(190,-2,o),
(138,-2,cs),
(67,-2,o),
(24,22,o),
(9,69,cs),
(6,80,o),
(4,91,o),
(4,102,cs),
(4,149,o),
(38,195,o),
(107,240,cs),
(154,271,o),
(175,300,o),
(170,327,cs),
(166,350,o),
(152,362,o),
(129,362,cs),
(122,362,o),
(115,360,o),
(108,357,cs),
(88,348,o),
(71,328,o),
(57,296,cs),
(52,283,o),
(50,268,o),
(53,250,c)
);
}
);
width = 395;
}
);
unicode = 3520;
},
{
color = (166,255,153,255);
glyphname = quotedblright.017;
lastChange = "2024-05-05 02:07:47 +0000";
layers = (
{
layerId = "B33422F0-91E4-47C9-8809-C0A5C4DE8881";
shapes = (
{
closed = 1;
nodes = (
(341,240,o),
(362,187,o),
(362,146,cs),
(362,61,o),
(295,-1,o),
(176,-1,cs),
(155,-1,o),
(133,1,o),
(110,4,cs),
(80,9,o),
(55,21,o),
(36,40,cs),
(14,61,o),
(3,85,o),
(4,114,cs),
(5,153,o),
(25,189,o),
(65,221,c),
(127,266,ls),
(141,277,o),
(148,291,o),
(148,308,cs),
(148,317,o),
(145,326,o),
(139,333,cs),
(131,342,o),
(120,347,o),
(106,347,cs),
(75,347,o),
(41,320,o),
(36,287,c),
(26,295,o),
(21,308,o),
(21,325,cs),
(21,336,o),
(23,345,o),
(27,353,cs),
(44,383,o),
(72,398,o),
(113,398,cs),
(120,398,o),
(130,397,o),
(144,396,cs),
(187,391,o),
(209,368,o),
(209,326,cs),
(209,319,o),
(208,311,o),
(206,304,cs),
(202,288,o),
(183,268,o),
(150,244,cs),
(113,218,o),
(91,198,o),
(84,184,cs),
(75,168,o),
(71,151,o),
(71,134,cs),
(71,103,o),
(81,79,o),
(100,61,cs),
(121,41,o),
(148,30,o),
(180,29,cs),
(218,28,o),
(251,36,o),
(280,55,cs),
(301,69,o),
(312,92,o),
(312,125,cs),
(312,154,o),
(303,182,o),
(285,210,c),
(284,213,o),
(281,218,o),
(276,227,c),
(228,202,l),
(201,186,o),
(187,171,o),
(187,156,cs),
(187,139,o),
(206,124,o),
(223,124,cs),
(232,124,o),
(243,127,o),
(256,133,c),
(249,99,o),
(228,82,o),
(193,82,cs),
(164,82,o),
(145,90,o),
(136,106,cs),
(129,119,o),
(125,131,o),
(125,143,cs),
(125,162,o),
(133,179,o),
(149,194,cs),
(158,203,o),
(178,215,o),
(208,230,cs),
(261,255,l),
(252,278,o),
(247,298,o),
(247,316,cs),
(247,331,o),
(250,345,o),
(257,357,cs),
(274,386,o),
(300,400,o),
(335,397,cs),
(363,394,o),
(383,365,o),
(383,336,cs),
(383,313,o),
(364,287,o),
(325,257,c)
);
},
{
closed = 1;
nodes = (
(333,292,o),
(344,307,o),
(347,328,cs),
(350,349,o),
(344,361,o),
(330,365,cs),
(310,370,o),
(296,356,o),
(296,336,cs),
(296,319,o),
(301,302,o),
(312,283,c)
);
}
);
width = 385;
}
);
unicode = 3522;
},
{
color = (166,255,153,255);
glyphname = quoteright.001;
lastChange = "2024-05-05 02:07:47 +0000";
layers = (
{
layerId = "B33422F0-91E4-47C9-8809-C0A5C4DE8881";
shapes = (
{
closed = 1;
nodes = (
(47,10,o),
(4,55,o),
(5,114,cs),
(6,157,o),
(28,193,o),
(72,220,c),
(102,233,o),
(139,250,o),
(183,272,c),
(198,283,o),
(205,296,o),
(205,311,cs),
(205,319,o),
(203,326,o),
(198,332,cs),
(191,342,o),
(178,347,o),
(160,347,cs),
(139,347,o),
(117,341,o),
(96,328,cs),
(75,316,o),
(64,302,o),
(61,285,c),
(51,293,o),
(46,306,o),
(46,325,cs),
(46,336,o),
(48,345,o),
(52,353,cs),
(69,384,o),
(104,399,o),
(159,399,cs),
(172,399,o),
(184,398,o),
(196,396,cs),
(237,390,o),
(257,368,o),
(257,331,cs),
(257,325,o),
(256,319,o),
(255,312,cs),
(249,288,o),
(224,264,o),
(180,239,c),
(147,222,o),
(109,204,o),
(93,184,cs),
(82,169,o),
(76,151,o),
(76,128,cs),
(76,98,o),
(84,76,o),
(99,61,cs),
(120,41,o),
(149,30,o),
(186,29,cs),
(203,28,o),
(225,33,o),
(254,42,c),
(254,84,o),
(257,142,o),
(262,216,cs),
(268,295,o),
(283,348,o),
(306,374,cs),
(318,387,o),
(333,395,o),
(350,397,cs),
(360,398,o),
(369,396,o),
(376,391,cs),
(386,384,o),
(391,372,o),
(390,355,c),
(377,360,o),
(366,359,o),
(357,353,cs),
(346,346,o),
(338,330,o),
(331,305,cs),
(324,276,o),
(318,226,o),
(314,154,cs),
(309,56,l),
(325,58,o),
(336,58,o),
(342,57,cs),
(355,54,o),
(363,47,o),
(365,37,c),
(333,22,o),
(317,0,o),
(313,-39,cs),
(310,-66,o),
(307,-82,o),
(305,-89,cs),
(296,-116,o),
(285,-135,o),
(271,-146,cs),
(262,-153,o),
(251,-157,o),
(240,-157,cs),
(231,-157,o),
(223,-154,o),
(216,-149,c),
(222,-142,o),
(230,-130,o),
(240,-111,c),
(248,-88,o),
(252,-65,o),
(252,-42,cs),
(252,-9,o),
(252,8,o),
(252,8,c),
(230,1,o),
(203,-3,o),
(171,-3,cs),
(152,-3,o),
(130,-1,o),
(106,2,cs)
);
}
);
width = 406;
}
);
unicode = 3461;
},
{
color = (166,255,153,255);
glyphname = quoteright.003;
lastChange = "2024-05-05 02:07:47 +0000";
layers = (
{
layerId = "B33422F0-91E4-47C9-8809-C0A5C4DE8881";
shapes = (
{
closed = 1;
nodes = (
(10,276,o),
(6,288,o),
(6,306,cs),
(6,319,o),
(8,330,o),
(13,339,cs),
(26,363,o),
(47,380,o),
(75,390,cs),
(95,397,o),
(113,400,o),
(129,398,cs),
(177,393,o),
(200,357,o),
(195,312,cs),
(192,292,o),
(181,274,o),
(161,257,cs),
(103,209,l),
(84,190,o),
(74,165,o),
(71,133,cs),
(69,109,o),
(71,86,o),
(77,63,cs),
(84,40,o),
(92,29,o),
(103,29,cs),
(117,29,o),
(134,47,o),
(154,82,cs),
(167,106,o),
(178,129,o),
(187,152,cs),
(198,180,o),
(219,194,o),
(252,194,cs),
(258,194,o),
(263,194,o),
(268,193,c),
(257,175,o),
(251,153,o),
(250,127,cs),
(248,92,o),
(255,64,o),
(272,42,cs),
(278,35,o),
(285,31,o),
(294,31,cs),
(305,31,o),
(314,35,o),
(322,43,cs),
(344,65,o),
(355,97,o),
(355,140,cs),
(355,165,o),
(347,197,o),
(330,234,c),
(314,272,o),
(306,301,o),
(306,321,cs),
(306,364,o),
(343,396,o),
(386,396,cs),
(417,396,o),
(436,383,o),
(445,357,c),
(400,348,o),
(378,328,o),
(378,299,cs),
(378,287,o),
(381,271,o),
(387,252,cs),
(397,218,l),
(400,201,o),
(402,185,o),
(402,170,cs),
(402,121,o),
(385,77,o),
(351,36,cs),
(337,19,o),
(318,8,o),
(294,1,cs),
(285,-2,o),
(273,-2,o),
(259,-1,cs),
(245,1,o),
(235,5,o),
(228,10,cs),
(211,24,o),
(198,44,o),
(190,69,c),
(172,48,o),
(154,29,o),
(136,13,cs),
(125,3,o),
(108,-2,o),
(86,-2,cs),
(70,-2,o),
(57,2,o),
(46,11,cs),
(19,33,o),
(6,64,o),
(6,105,cs),
(6,146,o),
(20,176,o),
(79,224,cs),
(131,268,l),
(140,278,o),
(144,290,o),
(144,305,cs),
(144,329,o),
(128,343,o),
(105,343,cs),
(86,343,o),
(66,335,o),
(47,319,cs),
(28,304,o),
(18,287,o),
(17,270,c)
);
},
{
closed = 1;
nodes = (
(453,307,o),
(449,319,o),
(449,332,cs),
(449,343,o),
(452,354,o),
(458,364,cs),
(473,389,o),
(504,401,o),
(552,398,cs),
(607,395,o),
(644,350,o),
(648,291,cs),
(650,264,o),
(645,229,o),
(633,186,cs),
(620,141,o),
(613,105,o),
(613,79,cs),
(613,43,o),
(614,16,o),
(617,-3,c),
(613,-2,o),
(604,2,o),
(590,9,cs),
(579,15,o),
(569,18,o),
(560,18,cs),
(547,18,o),
(532,14,o),
(517,5,cs),
(508,0,o),
(497,-3,o),
(485,-3,cs),
(468,-3,o),
(453,1,o),
(442,9,cs),
(416,26,o),
(403,56,o),
(403,98,cs),
(403,112,o),
(405,126,o),
(408,140,cs),
(421,195,o),
(463,231,o),
(518,231,cs),
(552,231,o),
(570,223,o),
(572,207,c),
(545,212,o),
(520,209,o),
(496,198,cs),
(472,187,o),
(460,165,o),
(460,131,cs),
(460,122,o),
(461,112,o),
(463,102,cs),
(468,78,o),
(476,60,o),
(489,49,cs),
(495,44,o),
(502,41,o),
(510,41,cs),
(512,41,o),
(522,43,o),
(540,46,cs),
(553,49,o),
(566,49,o),
(577,46,c),
(572,101,o),
(572,144,o),
(577,176,cs),
(588,243,o),
(593,284,o),
(592,299,cs),
(589,348,o),
(572,372,o),
(540,372,cs),
(522,372,o),
(505,364,o),
(490,347,cs),
(477,333,o),
(468,316,o),
(462,296,c)
);
}
);
width = 657;
}
);
unicode = 3469;
},
{
color = (166,255,153,255);
glyphname = quoteright.004;
lastChange = "2024-05-05 02:07:47 +0000";
layers = (
{
layerId = "B33422F0-91E4-47C9-8809-C0A5C4DE8881";
shapes = (
{
closed = 1;
nodes = (
(158,235,o),
(170,223,o),
(193,217,cs),
(209,213,o),
(222,223,o),
(231,247,cs),
(235,258,o),
(237,268,o),
(237,278,cs),
(237,295,o),
(229,314,o),
(214,333,c),
(202,330,o),
(190,319,o),
(177,301,cs),
(164,283,o),
(158,267,o),
(158,254,cs)
);
},
{
closed = 1;
nodes = (
(273,437,o),
(238,449,o),
(165,445,cs),
(136,443,o),
(108,433,o),
(82,416,c),
(60,400,o),
(44,382,o),
(33,361,c),
(24,373,o),
(19,385,o),
(19,397,cs),
(19,412,o),
(26,426,o),
(40,438,cs),
(43,441,o),
(50,443,o),
(61,446,cs),
(69,448,o),
(74,452,o),
(75,457,cs),
(76,463,o),
(73,469,o),
(65,474,cs),
(49,486,o),
(47,496,o),
(47,507,cs),
(47,524,o),
(54,540,o),
(68,554,cs),
(91,577,o),
(126,593,o),
(175,602,cs),
(215,610,o),
(258,609,o),
(303,599,cs),
(324,594,o),
(343,585,o),
(359,572,cs),
(378,555,o),
(386,537,o),
(385,516,cs),
(382,481,o),
(357,465,o),
(309,466,c),
(320,482,o),
(326,497,o),
(326,512,cs),
(326,552,o),
(284,579,o),
(227,579,cs),
(198,579,o),
(172,573,o),
(149,560,cs),
(120,545,o),
(106,524,o),
(106,498,cs),
(106,487,o),
(109,477,o),
(115,466,c),
(132,472,o),
(156,475,o),
(188,475,cs),
(229,475,o),
(260,470,o),
(282,460,cs),
(339,434,o),
(372,393,o),
(383,338,cs),
(386,321,o),
(388,302,o),
(388,280,cs),
(388,224,o),
(379,173,o),
(362,126,cs),
(339,65,o),
(306,24,o),
(263,3,cs),
(255,-1,o),
(244,-2,o),
(229,-1,cs),
(214,0,o),
(204,3,o),
(197,8,cs),
(185,18,o),
(177,30,o),
(173,44,cs),
(171,54,o),
(169,64,o),
(168,74,c),
(137,7,o),
(120,-10,o),
(80,1,cs),
(47,10,o),
(25,33,o),
(15,69,cs),
(7,98,o),
(3,129,o),
(3,163,cs),
(3,190,o),
(6,215,o),
(12,237,cs),
(23,279,o),
(45,315,o),
(78,345,cs),
(117,381,o),
(158,398,o),
(201,397,cs),
(254,396,o),
(287,348,o),
(287,295,cs),
(287,270,o),
(280,247,o),
(267,226,cs),
(252,201,o),
(229,184,o),
(200,175,cs),
(190,172,o),
(181,170,o),
(173,170,cs),
(154,170,o),
(138,180,o),
(124,199,cs),
(115,211,o),
(111,226,o),
(111,244,cs),
(111,261,o),
(114,276,o),
(121,287,cs),
(141,322,o),
(165,343,o),
(192,351,c),
(184,356,o),
(176,359,o),
(167,359,cs),
(145,359,o),
(127,351,o),
(112,336,cs),
(79,303,o),
(63,247,o),
(63,168,cs),
(63,114,o),
(74,73,o),
(96,46,cs),
(99,43,o),
(102,41,o),
(105,41,cs),
(112,41,o),
(120,50,o),
(129,68,cs),
(157,124,ls),
(166,143,o),
(181,153,o),
(201,153,cs),
(206,153,o),
(215,152,o),
(226,150,c),
(221,139,o),
(218,126,o),
(218,110,cs),
(218,81,o),
(222,60,o),
(230,49,cs),
(236,40,o),
(243,36,o),
(251,36,cs),
(276,36,o),
(298,66,o),
(315,126,cs),
(326,166,o),
(332,207,o),
(332,249,cs),
(332,305,o),
(323,349,o),
(304,382,cs)
);
}
);
width = 399;
}
);
unicode = 3477;
},
{
color = (166,255,153,255);
glyphname = quoteright.005;
lastChange = "2024-05-05 02:07:47 +0000";
layers = (
{
layerId = "B33422F0-91E4-47C9-8809-C0A5C4DE8881";
shapes = (
{
closed = 1;
nodes = (
(62,99,o),
(67,101,o),
(72,101,cs),
(85,101,o),
(93,92,o),
(98,75,cs),
(103,56,o),
(109,46,o),
(116,46,cs),
(119,46,o),
(128,58,o),
(142,82,cs),
(158,109,o),
(168,125,o),
(173,130,cs),
(183,140,o),
(204,143,o),
(236,139,c),
(219,121,o),
(211,97,o),
(211,68,cs),
(211,47,o),
(219,36,o),
(235,36,cs),
(258,36,o),
(274,59,o),
(283,104,cs),
(290,139,o),
(290,169,o),
(283,196,cs),
(269,251,o),
(239,279,o),
(192,279,cs),
(186,279,o),
(180,278,o),
(174,277,c),
(161,264,o),
(144,241,o),
(121,207,cs),
(94,167,o),
(73,130,o),
(57,96,c)
);
},
{
closed = 1;
nodes = (
(275,393,o),
(302,400,o),
(340,400,cs),
(366,400,o),
(387,395,o),
(402,390,cs),
(433,379,o),
(455,359,o),
(469,329,cs),
(481,303,o),
(487,272,o),
(487,235,cs),
(487,216,o),
(485,196,o),
(482,177,cs),
(469,106,o),
(441,52,o),
(396,17,cs),
(379,3,o),
(360,-3,o),
(340,-2,cs),
(309,0,o),
(293,9,o),
(293,25,cs),
(293,44,o),
(306,54,o),
(331,55,c),
(328,50,o),
(326,45,o),
(326,41,cs),
(326,30,o),
(334,25,o),
(351,25,cs),
(358,25,o),
(364,26,o),
(369,29,cs),
(404,52,o),
(424,103,o),
(429,183,cs),
(435,270,o),
(414,327,o),
(367,352,cs),
(355,359,o),
(339,362,o),
(320,362,cs),
(269,362,o),
(230,344,o),
(202,307,c),
(209,310,o),
(218,311,o),
(228,311,cs),
(251,311,o),
(271,305,o),
(290,293,cs),
(313,278,o),
(328,257,o),
(335,228,cs),
(338,214,o),
(340,199,o),
(340,183,cs),
(340,141,o),
(331,103,o),
(312,69,cs),
(287,22,o),
(255,-1,o),
(218,-1,cs),
(179,-1,o),
(159,18,o),
(159,55,c),
(140,26,o),
(126,9,o),
(115,4,cs),
(105,0,o),
(96,-2,o),
(88,-2,cs),
(67,-2,o),
(53,10,o),
(46,34,cs),
(44,41,o),
(40,45,o),
(34,45,cs),
(29,45,o),
(23,41,o),
(16,32,c),
(13,31,o),
(9,38,o),
(8,38,c),
(5,36,l),
(17,89,o),
(51,157,o),
(107,240,cs),
(124,266,o),
(142,290,o),
(161,312,c),
(165,325,o),
(167,334,o),
(166,341,cs),
(165,354,o),
(158,360,o),
(143,360,cs),
(130,360,o),
(119,353,o),
(109,339,cs),
(104,332,o),
(101,322,o),
(101,310,cs),
(101,295,o),
(104,284,o),
(111,275,c),
(100,269,o),
(90,266,o),
(81,266,cs),
(58,266,o),
(47,280,o),
(47,308,cs),
(47,320,o),
(50,331,o),
(56,342,cs),
(77,379,o),
(106,397,o),
(143,397,cs),
(154,397,o),
(162,396,o),
(169,394,c),
(190,385,o),
(198,368,o),
(195,341,c),
(207,354,o),
(228,369,o),
(258,384,cs)
);
}
);
width = 496;
}
);
unicode = 3482;
},
{
color = (166,255,153,255);
glyphname = quoteright.006;
lastChange = "2024-05-05 02:07:47 +0000";
layers = (
{
layerId = "B33422F0-91E4-47C9-8809-C0A5C4DE8881";
shapes = (
{
closed = 1;
nodes = (
(372,383,o),
(382,368,o),
(384,346,cs),
(387,318,o),
(371,307,o),
(352,310,cs),
(341,312,o),
(326,323,o),
(309,342,c),
(304,335,o),
(303,327,o),
(306,317,c),
(317,292,o),
(331,257,o),
(349,213,cs),
(358,191,o),
(362,169,o),
(362,148,cs),
(362,60,o),
(295,-1,o),
(176,-1,cs),
(155,-1,o),
(133,1,o),
(110,4,cs),
(80,9,o),
(55,21,o),
(36,40,cs),
(14,61,o),
(3,85,o),
(4,114,cs),
(5,153,o),
(25,189,o),
(65,221,c),
(127,266,ls),
(141,277,o),
(148,291,o),
(148,308,cs),
(148,317,o),
(145,326,o),
(139,333,cs),
(131,342,o),
(120,347,o),
(106,347,cs),
(75,347,o),
(41,320,o),
(36,287,c),
(26,295,o),
(21,308,o),
(21,325,cs),
(21,336,o),
(23,345,o),
(27,353,cs),
(44,383,o),
(72,398,o),
(113,398,cs),
(120,398,o),
(130,397,o),
(144,396,cs),
(187,391,o),
(209,368,o),
(209,326,cs),
(209,319,o),
(208,311,o),
(206,304,cs),
(202,288,o),
(183,268,o),
(150,244,cs),
(113,218,o),
(91,198,o),
(84,184,cs),
(75,168,o),
(71,151,o),
(71,134,cs),
(71,103,o),
(81,79,o),
(100,61,cs),
(121,41,o),
(148,30,o),
(180,29,cs),
(218,28,o),
(251,36,o),
(280,55,cs),
(301,68,o),
(312,92,o),
(312,125,cs),
(312,154,o),
(303,182,o),
(285,210,cs),
(259,251,o),
(246,286,o),
(246,315,cs),
(246,330,o),
(250,344,o),
(257,357,cs),
(266,373,o),
(278,384,o),
(292,390,c),
(289,417,o),
(293,440,o),
(305,459,cs),
(308,463,o),
(327,485,o),
(362,524,cs),
(373,535,o),
(378,552,o),
(378,573,cs),
(378,595,o),
(369,612,o),
(352,624,c),
(361,629,o),
(370,631,o),
(379,631,cs),
(406,631,o),
(429,608,o),
(429,583,cs),
(429,543,o),
(394,516,o),
(369,489,cs),
(359,478,o),
(352,468,o),
(349,459,cs),
(342,440,o),
(343,417,o),
(354,392,c)
);
}
);
width = 387;
}
);
unicode = 3490;
},
{
color = (166,255,153,255);
glyphname = quoteright.007;
lastChange = "2024-05-05 02:07:47 +0000";
layers = (
{
layerId = "B33422F0-91E4-47C9-8809-C0A5C4DE8881";
shapes = (
{
closed = 1;
nodes = (
(259,476,o),
(236,494,o),
(211,507,cs),
(190,517,o),
(168,523,o),
(143,525,c),
(146,514,o),
(152,503,o),
(159,493,cs),
(172,476,o),
(187,465,o),
(206,460,cs),
(230,453,o),
(247,454,o),
(258,463,c),
(263,436,o),
(246,423,o),
(206,423,cs),
(194,423,o),
(183,425,o),
(172,428,cs),
(143,436,o),
(120,454,o),
(105,481,cs),
(101,488,o),
(98,501,o),
(97,518,cs),
(96,535,o),
(98,548,o),
(101,557,c),
(122,551,o),
(141,548,o),
(157,547,cs),
(174,546,o),
(198,544,o),
(230,539,c),
(263,530,o),
(290,517,o),
(310,501,cs),
(355,465,o),
(384,412,o),
(395,342,cs),
(398,322,o),
(400,299,o),
(400,273,cs),
(400,223,o),
(396,181,o),
(388,146,cs),
(379,105,o),
(363,69,o),
(342,39,cs),
(327,18,o),
(308,6,o),
(285,1,cs),
(253,-6,o),
(228,-1,o),
(209,15,cs),
(199,24,o),
(193,34,o),
(190,46,cs),
(188,55,o),
(186,64,o),
(185,73,c),
(172,46,o),
(154,25,o),
(132,10,cs),
(120,2,o),
(105,-2,o),
(86,-1,cs),
(65,0,o),
(47,6,o),
(31,19,cs),
(18,30,o),
(11,46,o),
(11,68,cs),
(11,93,o),
(25,121,o),
(54,152,cs),
(83,183,o),
(97,203,o),
(98,212,c),
(79,199,o),
(61,187,o),
(42,176,cs),
(32,171,o),
(22,168,o),
(12,168,cs),
(1,168,o),
(-5,172,o),
(-7,179,cs),
(-10,188,o),
(-6,199,o),
(5,214,cs),
(14,227,o),
(24,237,o),
(35,246,cs),
(50,257,o),
(68,263,o),
(88,263,cs),
(98,263,o),
(107,261,o),
(114,257,c),
(128,263,o),
(145,276,o),
(164,295,cs),
(173,304,o),
(178,314,o),
(178,324,cs),
(178,341,o),
(167,349,o),
(145,349,cs),
(116,349,o),
(81,327,o),
(73,300,c),
(60,305,o),
(54,316,o),
(54,332,cs),
(54,344,o),
(58,355,o),
(67,365,cs),
(86,387,o),
(121,398,o),
(173,398,cs),
(215,398,o),
(236,381,o),
(236,346,cs),
(236,339,o),
(235,331,o),
(232,323,cs),
(223,294,o),
(190,264,o),
(135,233,c),
(142,216,o),
(125,195,o),
(85,127,cs),
(79,116,o),
(76,104,o),
(76,93,cs),
(76,72,o),
(91,46,o),
(111,46,cs),
(137,46,o),
(161,75,o),
(182,133,cs),
(193,161,o),
(214,175,o),
(247,175,cs),
(253,175,o),
(258,175,o),
(263,174,c),
(254,158,o),
(247,136,o),
(244,108,cs),
(240,77,o),
(243,56,o),
(253,43,cs),
(258,36,o),
(265,33,o),
(274,33,cs),
(286,33,o),
(296,38,o),
(305,49,cs),
(328,77,o),
(341,124,o),
(343,190,cs),
(347,308,o),
(325,396,o),
(278,453,cs)
);
}
);
width = 409;
}
);
unicode = 3498;
},
{
color = (166,255,153,255);
glyphname = quoteright.008;
lastChange = "2024-05-05 02:07:47 +0000";
layers = (
{
layerId = "B33422F0-91E4-47C9-8809-C0A5C4DE8881";
shapes = (
{
closed = 1;
nodes = (
(263,383,o),
(296,393,o),
(340,397,cs),
(397,402,o),
(445,378,o),
(445,338,cs),
(445,319,o),
(434,301,o),
(413,285,cs),
(405,280,o),
(386,269,o),
(356,254,cs),
(309,231,o),
(256,209,o),
(228,177,cs),
(211,158,o),
(203,136,o),
(203,111,cs),
(203,102,o),
(204,93,o),
(207,84,cs),
(217,49,o),
(236,31,o),
(265,31,cs),
(284,31,o),
(303,38,o),
(322,53,cs),
(347,73,o),
(366,86,o),
(379,92,cs),
(400,102,o),
(421,106,o),
(444,104,cs),
(464,103,o),
(476,78,o),
(473,61,c),
(458,65,o),
(435,57,o),
(405,36,cs),
(375,16,o),
(341,1,o),
(304,-8,cs),
(277,-15,o),
(263,-33,o),
(263,-64,cs),
(263,-113,o),
(301,-155,o),
(350,-155,cs),
(356,-155,o),
(362,-154,o),
(369,-153,cs),
(418,-142,o),
(441,-115,o),
(436,-73,cs),
(433,-44,o),
(419,-27,o),
(394,-21,c),
(404,-14,o),
(416,-10,o),
(431,-10,cs),
(460,-10,o),
(487,-27,o),
(490,-52,cs),
(493,-82,o),
(483,-109,o),
(460,-134,cs),
(435,-161,o),
(401,-179,o),
(358,-186,cs),
(345,-188,o),
(331,-189,o),
(318,-189,cs),
(268,-189,o),
(232,-175,o),
(211,-146,cs),
(201,-132,o),
(196,-116,o),
(196,-97,cs),
(196,-56,o),
(214,-24,o),
(250,0,c),
(183,-2,o),
(143,25,o),
(130,80,cs),
(128,89,o),
(127,97,o),
(127,104,cs),
(127,137,o),
(145,167,o),
(180,196,cs),
(194,207,o),
(227,226,o),
(278,251,cs),
(359,290,l),
(370,297,o),
(376,306,o),
(376,317,cs),
(376,338,o),
(362,348,o),
(335,348,cs),
(312,348,o),
(288,340,o),
(262,323,cs),
(237,307,o),
(223,290,o),
(220,272,c),
(209,278,o),
(204,288,o),
(204,302,cs),
(204,311,o),
(206,321,o),
(211,331,c),
(196,344,o),
(178,351,o),
(159,351,cs),
(151,351,o),
(143,350,o),
(135,348,cs),
(102,339,o),
(80,309,o),
(70,257,cs),
(63,222,o),
(61,184,o),
(64,144,cs),
(67,99,o),
(82,53,o),
(98,48,cs),
(109,45,o),
(116,51,o),
(120,68,c),
(125,60,o),
(127,52,o),
(127,43,cs),
(127,18,o),
(114,3,o),
(88,0,cs),
(65,-3,o),
(45,9,o),
(29,37,cs),
(16,62,o),
(8,91,o),
(5,125,cs),
(0,186,o),
(12,241,o),
(39,289,cs),
(58,323,o),
(83,351,o),
(112,372,cs),
(135,389,o),
(164,397,o),
(197,397,cs),
(226,397,o),
(241,387,o),
(240,366,c)
);
}
);
width = 488;
}
);
unicode = 3507;
},
{
color = (166,255,153,255);
glyphname = quoteright.009;
lastChange = "2024-05-05 02:07:47 +0000";
layers = (
{
layerId = "B33422F0-91E4-47C9-8809-C0A5C4DE8881";
shapes = (
{
closed = 1;
nodes = (
(100,312,l),
(111,340,o),
(131,362,o),
(161,378,cs),
(186,392,o),
(212,399,o),
(238,399,cs),
(269,399,o),
(293,385,o),
(309,356,cs),
(322,333,o),
(328,305,o),
(328,270,cs),
(328,234,o),
(321,198,o),
(308,162,cs),
(291,117,o),
(266,79,o),
(233,48,cs),
(200,17,o),
(168,0,o),
(135,-2,cs),
(92,-5,o),
(61,3,o),
(40,22,cs),
(16,43,o),
(4,79,o),
(5,130,cs),
(6,218,o),
(37,319,o),
(99,433,cs),
(108,449,o),
(141,501,o),
(200,589,c),
(214,597,o),
(223,601,o),
(227,601,cs),
(230,601,o),
(233,600,o),
(236,597,c),
(208,560,o),
(178,511,o),
(146,449,cs),
(91,344,o),
(64,248,o),
(64,160,cs),
(64,71,o),
(89,27,o),
(139,28,cs),
(161,29,o),
(184,41,o),
(209,65,cs),
(234,90,o),
(253,121,o),
(264,158,cs),
(271,183,o),
(275,208,o),
(275,233,cs),
(275,277,o),
(264,310,o),
(241,333,cs),
(229,345,o),
(215,351,o),
(199,351,cs),
(180,351,o),
(160,344,o),
(141,329,cs),
(122,314,o),
(108,299,o),
(100,282,c)
);
}
);
width = 339;
}
);
unicode = 3515;
},
{
color = (166,255,153,255);
glyphname = quoteright.010;
lastChange = "2024-05-05 02:07:47 +0000";
layers = (
{
layerId = "B33422F0-91E4-47C9-8809-C0A5C4DE8881";
shapes = (
{
closed = 1;
nodes = (
(252,65,o),
(269,54,o),
(291,54,cs),
(308,54,o),
(323,62,o),
(336,78,cs),
(351,97,o),
(359,125,o),
(362,161,cs),
(363,174,o),
(363,186,o),
(363,199,cs),
(363,245,o),
(357,283,o),
(346,312,cs),
(335,342,o),
(322,355,o),
(306,352,cs),
(295,350,o),
(283,331,o),
(270,296,c),
(238,196,ls),
(229,167,o),
(208,152,o),
(176,152,cs),
(169,152,o),
(162,153,o),
(157,155,c),
(167,173,o),
(174,195,o),
(178,220,cs),
(181,237,o),
(182,254,o),
(182,269,cs),
(182,306,o),
(174,335,o),
(158,356,cs),
(152,363,o),
(145,367,o),
(136,367,cs),
(125,367,o),
(116,363,o),
(108,355,cs),
(70,317,o),
(51,268,o),
(51,207,cs),
(51,171,o),
(57,140,o),
(68,114,cs),
(81,84,o),
(99,69,o),
(122,69,cs),
(139,69,o),
(147,75,o),
(147,88,c),
(160,80,o),
(167,68,o),
(167,52,cs),
(167,21,o),
(149,4,o),
(114,-1,cs),
(73,-6,o),
(42,24,o),
(22,68,cs),
(9,97,o),
(3,134,o),
(4,177,cs),
(6,250,o),
(27,310,o),
(67,356,cs),
(86,377,o),
(107,391,o),
(130,396,cs),
(142,399,o),
(155,399,o),
(170,396,cs),
(187,393,o),
(198,388,o),
(205,381,cs),
(226,359,o),
(236,326,o),
(236,283,c),
(248,327,o),
(265,360,o),
(286,381,cs),
(297,392,o),
(313,397,o),
(335,397,cs),
(353,397,o),
(367,393,o),
(376,384,cs),
(392,369,o),
(404,347,o),
(413,319,cs),
(422,287,o),
(425,253,o),
(422,217,cs),
(417,160,o),
(399,109,o),
(369,63,cs),
(358,46,o),
(343,31,o),
(325,18,cs),
(305,4,o),
(286,-3,o),
(269,-3,cs),
(242,-3,o),
(222,18,o),
(222,42,cs),
(222,58,o),
(228,73,o),
(241,86,c)
);
}
);
width = 434;
}
);
unicode = 3526;
},
{
color = (166,255,153,255);
glyphname = zero;
lastChange = "2024-05-05 02:07:47 +0000";
layers = (
{
layerId = "B33422F0-91E4-47C9-8809-C0A5C4DE8881";
shapes = (
{
closed = 1;
nodes = (
(181,485,o),
(174,487,o),
(167,487,cs),
(134,487,o),
(100,463,o),
(66,416,cs),
(25,359,o),
(5,284,o),
(5,189,cs),
(5,158,o),
(8,129,o),
(14,102,cs),
(29,39,o),
(76,-2,o),
(137,-1,cs),
(216,1,o),
(275,52,o),
(312,153,cs),
(325,189,o),
(332,234,o),
(332,289,cs),
(332,322,o),
(329,353,o),
(324,380,cs),
(313,432,o),
(291,462,o),
(258,471,cs),
(237,476,o),
(218,472,o),
(203,458,c),
(204,469,o),
(199,477,o),
(188,482,cs)
);
},
{
closed = 1;
nodes = (
(185,418,o),
(200,426,o),
(213,426,cs),
(227,426,o),
(240,417,o),
(252,399,cs),
(269,373,o),
(278,329,o),
(278,268,cs),
(278,217,o),
(273,173,o),
(264,136,cs),
(249,76,o),
(208,33,o),
(167,33,cs),
(136,33,o),
(109,54,o),
(87,95,cs),
(70,128,o),
(60,163,o),
(57,199,cs),
(56,211,o),
(56,223,o),
(56,235,cs),
(56,283,o),
(62,326,o),
(74,364,cs),
(87,406,o),
(104,434,o),
(127,447,cs),
(134,451,o),
(142,453,o),
(149,453,cs),
(164,453,o),
(174,446,o),
(180,433,c),
(175,426,o),
(171,416,o),
(170,403,c)
);
}
);
width = 344;
}
);
unicode = 48;
},
{
color = (166,255,153,255);
glyphname = one;
lastChange = "2024-05-05 02:07:47 +0000";
layers = (
{
layerId = "B33422F0-91E4-47C9-8809-C0A5C4DE8881";
shapes = (
{
closed = 1;
nodes = (
(120,418,o),
(98,332,o),
(87,237,cs),
(78,156,o),
(76,84,o),
(83,23,c),
(24,-7,l),
(17,62,o),
(20,142,o),
(33,233,cs),
(40,282,o),
(52,331,o),
(70,378,cs),
(95,445,o),
(123,483,o),
(155,493,c)
);
}
);
width = 167;
}
);
unicode = 49;
},
{
color = (166,255,153,255);
glyphname = two;
lastChange = "2024-05-05 02:07:47 +0000";
layers = (
{
layerId = "B33422F0-91E4-47C9-8809-C0A5C4DE8881";
shapes = (
{
closed = 1;
nodes = (
(126,324,o),
(108,316,o),
(91,316,cs),
(70,316,o),
(54,326,o),
(43,346,cs),
(38,355,o),
(36,364,o),
(36,373,cs),
(36,398,o),
(49,421,o),
(74,444,cs),
(100,467,o),
(131,481,o),
(167,486,cs),
(179,487,o),
(190,488,o),
(201,488,cs),
(273,488,o),
(319,457,o),
(340,394,cs),
(344,383,o),
(346,370,o),
(346,357,cs),
(346,316,o),
(333,282,o),
(307,255,cs),
(276,222,o),
(228,192,o),
(165,165,cs),
(102,139,o),
(71,111,o),
(71,81,cs),
(71,76,o),
(72,71,o),
(73,66,c),
(96,70,o),
(119,68,o),
(142,59,cs),
(150,56,o),
(161,50,o),
(175,39,c),
(186,32,o),
(196,28,o),
(206,28,cs),
(212,28,o),
(219,29,o),
(226,31,cs),
(250,38,o),
(262,54,o),
(262,80,cs),
(262,98,o),
(253,112,o),
(234,123,c),
(243,127,o),
(253,129,o),
(264,129,cs),
(293,129,o),
(311,118,o),
(316,97,cs),
(318,90,o),
(319,83,o),
(319,76,cs),
(319,41,o),
(297,17,o),
(252,4,cs),
(241,1,o),
(230,-1,o),
(220,-1,cs),
(210,-1,o),
(183,6,o),
(140,20,cs),
(113,29,o),
(89,30,o),
(67,25,cs),
(52,21,o),
(37,13,o),
(20,2,c),
(9,9,o),
(3,25,o),
(3,50,cs),
(3,71,o),
(7,87,o),
(16,100,cs),
(32,124,o),
(57,145,o),
(92,162,c),
(114,171,o),
(136,181,o),
(158,191,cs),
(184,202,o),
(205,214,o),
(220,227,cs),
(263,262,o),
(284,298,o),
(284,333,cs),
(284,346,o),
(282,359,o),
(277,373,cs),
(267,401,o),
(251,423,o),
(230,439,cs),
(210,453,o),
(189,460,o),
(166,460,cs),
(154,460,o),
(143,458,o),
(132,453,cs),
(105,441,o),
(91,421,o),
(91,392,cs),
(91,384,o),
(93,376,o),
(97,369,cs),
(108,350,o),
(123,340,o),
(144,341,c)
);
}
);
width = 358;
}
);
unicode = 50;
},
{
color = (166,255,153,255);
glyphname = three;
lastChange = "2024-05-05 02:07:47 +0000";
layers = (
{
layerId = "B33422F0-91E4-47C9-8809-C0A5C4DE8881";
shapes = (
{
closed = 1;
nodes = (
(324,216,o),
(339,182,o),
(337,143,cs),
(334,97,o),
(312,61,o),
(269,34,cs),
(231,9,o),
(185,-3,o),
(132,-3,cs),
(99,-3,o),
(70,4,o),
(45,18,cs),
(18,33,o),
(4,54,o),
(4,80,cs),
(4,86,o),
(5,92,o),
(6,98,cs),
(14,131,o),
(35,148,o),
(70,148,cs),
(89,148,o),
(101,142,o),
(108,129,c),
(77,125,o),
(64,108,o),
(69,79,cs),
(75,47,o),
(99,29,o),
(142,25,cs),
(175,22,o),
(205,30,o),
(231,50,cs),
(258,71,o),
(270,99,o),
(269,136,cs),
(268,166,o),
(257,193,o),
(236,216,cs),
(216,239,o),
(195,251,o),
(173,251,cs),
(148,251,o),
(135,243,o),
(135,227,cs),
(135,222,o),
(136,216,o),
(139,211,c),
(110,208,o),
(96,217,o),
(96,237,cs),
(96,250,o),
(103,261,o),
(116,270,cs),
(127,277,o),
(142,283,o),
(161,288,cs),
(223,305,l),
(244,313,o),
(270,342,o),
(270,374,cs),
(270,383,o),
(268,392,o),
(264,401,cs),
(245,441,o),
(214,461,o),
(173,461,cs),
(160,461,o),
(148,458,o),
(137,453,cs),
(111,441,o),
(98,423,o),
(98,398,cs),
(98,378,o),
(114,360,o),
(135,360,cs),
(138,360,o),
(142,360,o),
(145,361,c),
(129,342,o),
(111,332,o),
(92,332,cs),
(70,332,o),
(55,341,o),
(48,360,cs),
(45,367,o),
(44,374,o),
(44,382,cs),
(44,405,o),
(56,427,o),
(81,447,cs),
(106,468,o),
(137,481,o),
(174,486,cs),
(185,487,o),
(195,488,o),
(206,488,cs),
(267,488,o),
(308,464,o),
(328,416,cs),
(331,408,o),
(333,399,o),
(333,390,cs),
(333,359,o),
(316,325,o),
(297,313,cs),
(266,293,o),
(231,279,o),
(191,271,c),
(234,272,o),
(268,263,o),
(291,243,cs)
);
}
);
width = 347;
}
);
unicode = 51;
},
{
color = (166,255,153,255);
glyphname = four;
lastChange = "2024-05-05 02:07:47 +0000";
layers = (
{
layerId = "B33422F0-91E4-47C9-8809-C0A5C4DE8881";
shapes = (
{
closed = 1;
nodes = (
(249,470,o),
(196,433,o),
(145,383,cs),
(83,322,o),
(35,237,o),
(0,127,c),
(35,139,o),
(66,146,o),
(95,148,cs),
(133,151,o),
(167,148,o),
(197,140,c),
(197,91,o),
(192,68,o),
(187,57,cs),
(179,38,o),
(161,26,o),
(134,26,c),
(141,5,o),
(157,-5,o),
(183,-5,cs),
(202,-5,o),
(217,1,o),
(229,12,cs),
(249,31,o),
(259,67,o),
(259,119,cs),
(259,126,o),
(259,132,o),
(258,136,c),
(277,133,o),
(294,133,o),
(307,136,cs),
(331,142,o),
(346,155,o),
(351,174,cs),
(352,178,o),
(353,182,o),
(353,187,cs),
(353,210,o),
(342,226,o),
(319,233,c),
(324,216,o),
(323,201,o),
(316,190,cs),
(302,169,o),
(283,161,o),
(259,166,c),
(258,218,o),
(261,268,o),
(266,317,cs),
(271,366,o),
(284,424,o),
(305,493,c)
);
},
{
closed = 1;
nodes = (
(218,376,o),
(210,326,o),
(206,275,c),
(200,172,l),
(177,177,o),
(156,179,o),
(135,180,cs),
(122,181,o),
(105,180,o),
(84,179,c),
(89,223,o),
(106,269,o),
(136,318,cs),
(164,364,o),
(196,399,o),
(231,424,c)
);
}
);
width = 363;
}
);
unicode = 52;
},
{
color = (166,255,153,255);
glyphname = five;
lastChange = "2024-05-05 02:07:47 +0000";
layers = (
{
layerId = "B33422F0-91E4-47C9-8809-C0A5C4DE8881";
shapes = (
{
closed = 1;
nodes = (
(328,425,o),
(304,418,o),
(271,418,cs),
(244,418,o),
(215,422,o),
(184,430,c),
(154,439,o),
(133,448,o),
(122,457,c),
(107,444,o),
(99,408,o),
(99,347,cs),
(99,333,o),
(100,321,o),
(101,312,c),
(121,323,o),
(150,328,o),
(189,327,cs),
(232,326,o),
(266,315,o),
(291,294,cs),
(324,267,o),
(340,227,o),
(340,175,cs),
(340,120,o),
(318,76,o),
(275,43,cs),
(235,12,o),
(187,-3,o),
(131,-3,cs),
(98,-3,o),
(69,4,o),
(45,18,cs),
(18,33,o),
(4,54,o),
(4,80,cs),
(4,86,o),
(5,92,o),
(6,98,cs),
(14,131,o),
(35,148,o),
(70,148,cs),
(88,148,o),
(100,142,o),
(107,129,c),
(81,126,o),
(68,113,o),
(68,90,cs),
(68,51,o),
(93,29,o),
(142,24,cs),
(176,21,o),
(206,32,o),
(233,57,c),
(262,86,o),
(275,122,o),
(272,167,cs),
(265,256,o),
(228,300,o),
(159,300,cs),
(128,300,o),
(104,286,o),
(104,266,cs),
(104,262,o),
(105,258,o),
(107,253,c),
(79,249,o),
(60,258,o),
(50,281,cs),
(42,298,o),
(39,320,o),
(42,349,cs),
(44,375,o),
(51,402,o),
(64,430,cs),
(77,459,o),
(91,477,o),
(104,486,c),
(127,477,o),
(145,470,o),
(156,467,cs),
(183,458,o),
(208,454,o),
(230,453,cs),
(280,451,o),
(305,460,o),
(305,481,cs),
(305,486,o),
(304,492,o),
(302,498,c),
(325,502,o),
(351,483,o),
(351,460,cs),
(351,452,o),
(348,445,o),
(341,438,cs)
);
}
);
width = 360;
}
);
unicode = 53;
},
{
color = (166,255,153,255);
glyphname = six;
lastChange = "2024-05-05 02:07:47 +0000";
layers = (
{
layerId = "B33422F0-91E4-47C9-8809-C0A5C4DE8881";
shapes = (
{
closed = 1;
nodes = (
(111,56,o),
(131,34,o),
(151,28,cs),
(157,26,o),
(163,25,o),
(170,25,cs),
(197,25,o),
(220,39,o),
(239,66,cs),
(258,93,o),
(266,127,o),
(263,168,cs),
(256,255,o),
(224,300,o),
(167,303,cs),
(140,304,o),
(115,283,o),
(115,256,cs),
(115,241,o),
(123,228,o),
(138,217,c),
(128,209,o),
(117,205,o),
(104,205,cs),
(84,205,o),
(72,213,o),
(68,229,c),
(66,216,o),
(67,196,o),
(70,170,cs),
(74,138,o),
(81,113,o),
(90,95,cs)
);
},
{
closed = 1;
nodes = (
(32,347,o),
(65,406,o),
(111,446,cs),
(144,475,o),
(184,490,o),
(230,490,cs),
(287,490,o),
(322,476,o),
(335,449,cs),
(339,441,o),
(341,433,o),
(341,425,cs),
(341,393,o),
(306,370,o),
(274,370,cs),
(267,370,o),
(260,371,o),
(255,373,c),
(274,383,o),
(284,398,o),
(284,419,cs),
(284,450,o),
(264,466,o),
(225,466,cs),
(204,466,o),
(182,460,o),
(161,449,cs),
(137,436,o),
(119,420,o),
(106,400,cs),
(87,371,o),
(75,327,o),
(68,268,c),
(76,287,o),
(93,303,o),
(118,314,cs),
(139,323,o),
(159,328,o),
(180,327,cs),
(223,326,o),
(256,315,o),
(281,295,cs),
(314,268,o),
(330,229,o),
(330,176,cs),
(330,123,o),
(312,79,o),
(275,45,cs),
(238,11,o),
(193,-5,o),
(140,-2,cs),
(80,1,o),
(31,45,o),
(15,102,cs),
(8,125,o),
(5,153,o),
(5,185,cs),
(5,213,o),
(7,241,o),
(12,269,c)
);
}
);
width = 352;
}
);
unicode = 54;
},
{
color = (166,255,153,255);
glyphname = seven;
lastChange = "2024-05-05 02:07:47 +0000";
layers = (
{
layerId = "B33422F0-91E4-47C9-8809-C0A5C4DE8881";
shapes = (
{
closed = 1;
nodes = (
(228,311,o),
(244,334,o),
(267,364,cs),
(291,396,l),
(302,412,o),
(307,424,o),
(308,432,cs),
(309,451,o),
(298,470,o),
(275,487,c),
(222,464,o),
(171,452,o),
(120,451,cs),
(70,450,o),
(45,461,o),
(45,482,cs),
(45,487,o),
(46,493,o),
(48,499,c),
(25,496,o),
(6,470,o),
(6,443,cs),
(6,412,o),
(28,390,o),
(71,390,cs),
(98,390,o),
(132,398,o),
(173,413,cs),
(206,426,o),
(235,440,o),
(260,456,c),
(261,453,o),
(261,451,o),
(261,448,cs),
(261,419,o),
(235,366,o),
(184,287,cs),
(149,234,o),
(124,189,o),
(107,153,cs),
(93,122,o),
(86,94,o),
(86,67,cs),
(86,39,o),
(95,19,o),
(113,8,cs),
(126,0,o),
(141,-4,o),
(159,-4,cs),
(190,-4,o),
(213,6,o),
(226,26,cs),
(235,39,o),
(239,54,o),
(239,71,cs),
(239,84,o),
(236,93,o),
(230,98,c),
(234,83,o),
(215,56,o),
(195,52,cs),
(178,49,o),
(165,55,o),
(156,72,cs),
(151,82,o),
(148,94,o),
(148,109,cs),
(148,164,o),
(171,226,o),
(218,296,cs)
);
}
);
width = 321;
}
);
unicode = 55;
},
{
color = (166,255,153,255);
glyphname = eight;
lastChange = "2024-05-05 02:07:47 +0000";
layers = (
{
layerId = "B33422F0-91E4-47C9-8809-C0A5C4DE8881";
shapes = (
{
closed = 1;
nodes = (
(98,56,o),
(135,31,o),
(163,28,cs),
(227,21,o),
(274,61,o),
(271,136,c),
(270,200,o),
(226,256,o),
(173,260,cs),
(132,263,o),
(107,239,o),
(107,207,cs),
(107,199,o),
(109,191,o),
(112,183,c),
(93,180,o),
(80,191,o),
(73,215,c),
(65,206,o),
(61,191,o),
(60,170,cs),
(59,139,o),
(66,110,o),
(83,81,cs)
);
},
{
closed = 1;
nodes = (
(78,280,o),
(58,293,o),
(44,313,cs),
(31,330,o),
(26,350,o),
(28,372,cs),
(31,401,o),
(44,427,o),
(68,448,cs),
(95,472,o),
(130,486,o),
(173,489,cs),
(209,492,o),
(243,486,o),
(274,471,cs),
(312,453,o),
(331,427,o),
(331,393,cs),
(331,328,o),
(274,297,o),
(191,281,c),
(230,282,o),
(264,270,o),
(294,244,c),
(325,219,o),
(339,184,o),
(337,141,cs),
(334,94,o),
(314,58,o),
(276,33,cs),
(239,8,o),
(194,-4,o),
(142,-3,cs),
(104,-2,o),
(72,10,o),
(45,33,cs),
(19,56,o),
(6,84,o),
(5,118,cs),
(4,205,o),
(53,254,o),
(105,275,c)
);
},
{
closed = 1;
nodes = (
(214,348,o),
(211,356,o),
(205,365,c),
(218,366,o),
(228,361,o),
(237,351,cs),
(244,343,o),
(247,334,o),
(247,325,c),
(262,338,o),
(269,354,o),
(269,374,cs),
(269,383,o),
(267,392,o),
(264,401,cs),
(247,444,o),
(215,465,o),
(168,465,cs),
(157,465,o),
(146,463,o),
(135,460,cs),
(103,451,o),
(83,418,o),
(84,386,cs),
(85,355,o),
(95,332,o),
(115,318,cs),
(131,307,o),
(146,301,o),
(159,301,cs),
(168,301,o),
(179,303,o),
(193,308,cs),
(207,313,o),
(214,323,o),
(214,340,cs)
);
}
);
width = 349;
}
);
unicode = 56;
},
{
color = (166,255,153,255);
glyphname = nine;
lastChange = "2024-05-05 02:07:47 +0000";
layers = (
{
layerId = "B33422F0-91E4-47C9-8809-C0A5C4DE8881";
shapes = (
{
closed = 1;
nodes = (
(310,143,o),
(277,84,o),
(229,43,cs),
(196,14,o),
(156,-1,o),
(110,-1,cs),
(53,-1,o),
(18,13,o),
(5,40,cs),
(1,48,o),
(-1,56,o),
(-1,64,cs),
(-1,96,o),
(33,119,o),
(65,119,cs),
(72,119,o),
(79,118,o),
(85,115,c),
(66,106,o),
(56,91,o),
(56,70,cs),
(56,39,o),
(76,23,o),
(115,23,cs),
(158,23,o),
(209,48,o),
(234,89,c),
(253,118,o),
(265,162,o),
(272,221,c),
(264,202,o),
(247,186,o),
(222,175,cs),
(201,166,o),
(181,161,o),
(160,162,cs),
(117,163,o),
(84,174,o),
(59,194,cs),
(26,221,o),
(10,260,o),
(10,312,cs),
(10,365,o),
(28,409,o),
(64,443,cs),
(101,478,o),
(146,494,o),
(200,491,cs),
(260,488,o),
(309,444,o),
(325,387,cs),
(332,364,o),
(335,336,o),
(335,304,cs),
(335,270,o),
(332,242,o),
(327,220,cs)
);
},
{
closed = 1;
nodes = (
(229,433,o),
(209,455,o),
(189,461,cs),
(183,463,o),
(177,464,o),
(170,464,cs),
(143,464,o),
(120,450,o),
(101,423,cs),
(82,396,o),
(74,362,o),
(77,321,cs),
(84,234,o),
(116,189,o),
(173,186,cs),
(200,185,o),
(225,206,o),
(225,233,cs),
(225,248,o),
(217,261,o),
(202,272,c),
(212,280,o),
(223,284,o),
(236,284,cs),
(256,284,o),
(268,276,o),
(272,260,c),
(274,273,o),
(273,293,o),
(270,319,cs),
(266,351,o),
(259,376,o),
(250,394,cs)
);
}
);
width = 345;
}
);
unicode = 57;
},
{
glyphname = emdash.015;
lastChange = "2024-05-05 02:07:47 +0000";
layers = (
{
layerId = "B33422F0-91E4-47C9-8809-C0A5C4DE8881";
shapes = (
{
closed = 1;
nodes = (
(22,-236,l),
(0,-236,l),
(0,636,l),
(22,636,l)
);
}
);
width = 27;
}
);
unicode = 8204;
},
{
glyphname = quoteright.016;
lastChange = "2024-05-05 02:07:47 +0000";
layers = (
{
layerId = "B33422F0-91E4-47C9-8809-C0A5C4DE8881";
shapes = (
{
closed = 1;
nodes = (
(133,517,l),
(118,502,l),
(77,544,l),
(77,-236,l),
(55,-236,l),
(55,543,l),
(14,502,l),
(-1,517,l),
(51,569,l),
(-1,622,l),
(14,636,l),
(66,584,l),
(118,636,l),
(133,622,l),
(81,569,l)
);
},
{
closed = 1;
nodes = (
(26,697,o),
(24,673,o),
(20,640,c),
(20,639,o),
(19,639,o),
(16,640,cs),
(13,641,o),
(12,640,o),
(11,639,c),
(-14,482,l),
(-41,283,l),
(-44,271,o),
(-48,265,o),
(-54,265,cs),
(-56,265,o),
(-58,266,o),
(-61,268,cs),
(-73,278,o),
(-79,291,o),
(-78,306,cs),
(-77,342,o),
(-67,420,o),
(-48,539,cs),
(-36,616,o),
(-24,673,o),
(-13,712,c),
(-2,719,o),
(11,718,o),
(26,710,c)
);
}
);
width = 143;
}
);
unicode = 8205;
},
{
color = (166,255,153,255);
glyphname = period;
lastChange = "2024-05-05 02:07:47 +0000";
layers = (
{
layerId = "B33422F0-91E4-47C9-8809-C0A5C4DE8881";
shapes = (
{
closed = 1;
nodes = (
(89,69,o),
(106,53,o),
(106,33,cs),
(106,12,o),
(89,-5,o),
(69,-5,cs),
(48,-5,o),
(32,11,o),
(32,31,cs),
(32,52,o),
(48,69,o),
(68,69,cs)
);
}
);
width = 142;
}
);
unicode = 46;
},
{
color = (166,255,153,255);
glyphname = comma;
lastChange = "2024-05-05 02:07:47 +0000";
layers = (
{
layerId = "B33422F0-91E4-47C9-8809-C0A5C4DE8881";
shapes = (
{
closed = 1;
nodes = (
(36,34,o),
(53,44,o),
(77,44,cs),
(92,44,o),
(104,38,o),
(113,27,cs),
(119,19,o),
(122,9,o),
(122,-2,cs),
(122,-13,o),
(119,-25,o),
(114,-36,cs),
(107,-51,o),
(96,-64,o),
(81,-76,cs),
(65,-88,o),
(32,-101,o),
(19,-98,c),
(48,-78,o),
(63,-54,o),
(63,-26,cs),
(63,-12,o),
(60,-3,o),
(53,2,c),
(44,5,o),
(36,9,o),
(27,13,c)
);
}
);
width = 162;
}
);
unicode = 44;
},
{
color = (166,255,153,255);
glyphname = colon;
lastChange = "2024-05-05 02:07:47 +0000";
layers = (
{
layerId = "B33422F0-91E4-47C9-8809-C0A5C4DE8881";
shapes = (
{
closed = 1;
nodes = (
(92,154,o),
(109,138,o),
(109,118,cs),
(109,97,o),
(92,80,o),
(72,80,cs),
(51,80,o),
(35,96,o),
(35,116,cs),
(35,137,o),
(51,154,o),
(71,154,cs)
);
},
{
closed = 1;
nodes = (
(91,314,o),
(108,298,o),
(108,278,cs),
(108,257,o),
(91,240,o),
(71,240,cs),
(50,240,o),
(34,256,o),
(34,276,cs),
(34,297,o),
(50,314,o),
(70,314,cs)
);
}
);
width = 141;
}
);
unicode = 58;
},
{
color = (166,255,153,255);
glyphname = semicolon;
lastChange = "2024-05-05 02:07:47 +0000";
layers = (
{
layerId = "B33422F0-91E4-47C9-8809-C0A5C4DE8881";
shapes = (
{
closed = 1;
nodes = (
(36,34,o),
(53,44,o),
(77,44,cs),
(92,44,o),
(104,38,o),
(113,27,cs),
(119,19,o),
(122,9,o),
(122,-2,cs),
(122,-13,o),
(119,-25,o),
(114,-36,cs),
(107,-51,o),
(96,-64,o),
(81,-76,cs),
(65,-88,o),
(32,-101,o),
(19,-98,c),
(48,-78,o),
(63,-54,o),
(63,-26,cs),
(63,-12,o),
(60,-3,o),
(53,2,c),
(44,5,o),
(36,9,o),
(27,13,c)
);
},
{
closed = 1;
nodes = (
(97,155,o),
(114,139,o),
(114,119,cs),
(114,98,o),
(97,81,o),
(77,81,cs),
(56,81,o),
(40,97,o),
(40,117,cs),
(40,138,o),
(56,155,o),
(76,155,cs)
);
}
);
width = 165;
}
);
unicode = 59;
},
{
color = (166,255,153,255);
glyphname = exclam;
lastChange = "2024-05-05 02:07:47 +0000";
layers = (
{
layerId = "B33422F0-91E4-47C9-8809-C0A5C4DE8881";
shapes = (
{
closed = 1;
nodes = (
(178,604,o),
(187,589,o),
(185,563,c),
(162,567,o),
(146,552,o),
(137,519,cs),
(130,490,o),
(127,443,o),
(128,379,cs),
(132,227,o),
(117,143,o),
(84,126,cs),
(73,121,o),
(65,118,o),
(58,118,cs),
(49,118,o),
(39,123,o),
(29,133,c),
(72,159,o),
(93,235,o),
(91,360,cs),
(91,367,o),
(90,386,o),
(88,415,cs),
(87,442,o),
(86,464,o),
(86,481,cs),
(86,566,o),
(106,608,o),
(147,608,cs),
(151,608,o),
(155,608,o),
(159,607,cs)
);
},
{
closed = 1;
nodes = (
(86,80,o),
(104,62,o),
(104,38,cs),
(104,14,o),
(86,-4,o),
(62,-4,cs),
(38,-4,o),
(20,14,o),
(20,38,cs),
(20,62,o),
(38,80,o),
(62,80,cs)
);
}
);
width = 203;
}
);
unicode = 33;
},
{
color = (166,255,153,255);
glyphname = question;
lastChange = "2024-05-05 02:07:47 +0000";
layers = (
{
layerId = "B33422F0-91E4-47C9-8809-C0A5C4DE8881";
shapes = (
{
closed = 1;
nodes = (
(40,419,o),
(23,438,o),
(23,473,cs),
(23,490,o),
(28,507,o),
(39,522,cs),
(60,552,o),
(93,567,o),
(138,567,cs),
(166,567,o),
(190,560,o),
(209,545,cs),
(242,520,o),
(259,481,o),
(259,428,cs),
(259,370,o),
(244,324,o),
(215,289,cs),
(202,274,o),
(186,258,o),
(166,242,cs),
(146,227,o),
(132,214,o),
(123,205,cs),
(104,184,o),
(95,161,o),
(95,138,cs),
(95,130,o),
(96,120,o),
(99,108,c),
(94,106,o),
(88,105,o),
(83,105,cs),
(64,105,o),
(52,114,o),
(46,131,cs),
(44,138,o),
(43,144,o),
(43,150,cs),
(43,175,o),
(58,200,o),
(89,223,cs),
(152,269,l),
(184,297,o),
(201,324,o),
(203,351,cs),
(207,410,o),
(197,456,o),
(174,489,cs),
(155,515,o),
(134,528,o),
(110,528,cs),
(81,528,o),
(66,507,o),
(66,466,cs),
(66,449,o),
(69,433,o),
(74,418,c)
);
},
{
closed = 1;
nodes = (
(95,83,o),
(114,64,o),
(114,40,cs),
(114,16,o),
(95,-3,o),
(71,-3,cs),
(47,-3,o),
(28,16,o),
(28,40,cs),
(28,64,o),
(47,83,o),
(71,83,cs)
);
}
);
width = 279;
}
);
unicode = 63;
},
{
color = (166,255,153,255);
glyphname = asterisk;
lastChange = "2024-05-05 02:07:47 +0000";
layers = (
{
layerId = "B33422F0-91E4-47C9-8809-C0A5C4DE8881";
shapes = (
{
closed = 1;
nodes = (
(215,614,o),
(224,608,o),
(232,595,cs),
(238,584,o),
(241,573,o),
(241,561,cs),
(241,557,o),
(241,554,o),
(240,551,c),
(229,562,o),
(219,568,o),
(208,568,cs),
(190,568,o),
(179,558,o),
(174,539,c),
(193,533,o),
(206,528,o),
(212,525,cs),
(225,517,o),
(232,507,o),
(233,495,cs),
(234,467,o),
(204,442,o),
(179,443,c),
(184,449,o),
(186,455,o),
(186,462,cs),
(186,469,o),
(183,478,o),
(177,488,cs),
(173,496,o),
(163,502,o),
(147,507,c),
(147,467,o),
(138,444,o),
(121,438,cs),
(117,437,o),
(113,436,o),
(109,436,cs),
(88,436,o),
(66,453,o),
(59,472,c),
(66,470,o),
(72,469,o),
(77,469,cs),
(102,469,o),
(115,495,o),
(112,520,c),
(97,514,o),
(83,511,o),
(70,511,cs),
(53,511,o),
(42,516,o),
(35,527,cs),
(32,533,o),
(30,540,o),
(30,547,cs),
(30,572,o),
(38,589,o),
(54,598,c),
(53,595,o),
(53,591,o),
(53,588,cs),
(53,565,o),
(64,553,o),
(87,553,cs),
(95,553,o),
(103,555,o),
(111,560,c),
(104,570,o),
(99,580,o),
(96,589,cs),
(89,608,o),
(91,623,o),
(102,635,cs),
(109,643,o),
(118,647,o),
(131,647,cs),
(145,647,o),
(156,643,o),
(165,636,c),
(154,631,o),
(147,624,o),
(142,614,cs),
(137,603,o),
(139,588,o),
(148,567,c),
(151,574,o),
(156,583,o),
(165,596,c),
(178,609,o),
(191,616,o),
(204,615,cs)
);
}
);
width = 279;
}
);
unicode = 42;
},
{
color = (166,255,153,255);
glyphname = slash;
lastChange = "2024-05-05 02:07:47 +0000";
layers = (
{
layerId = "B33422F0-91E4-47C9-8809-C0A5C4DE8881";
shapes = (
{
closed = 1;
nodes = (
(279,520,o),
(295,516,o),
(308,505,c),
(275,494,o),
(253,483,o),
(244,472,cs),
(221,447,o),
(204,396,o),
(193,321,cs),
(180,236,o),
(170,178,o),
(163,147,cs),
(145,67,o),
(124,20,o),
(99,6,cs),
(84,-3,o),
(71,-7,o),
(58,-7,cs),
(45,-7,o),
(34,-3,o),
(23,6,c),
(86,46,o),
(123,143,o),
(135,298,cs),
(146,439,o),
(187,513,o),
(260,519,cs)
);
}
);
width = 334;
}
);
unicode = 47;
},
{
color = (166,255,153,255);
glyphname = bullet.014;
lastChange = "2024-05-05 02:07:47 +0000";
layers = (
{
layerId = "B33422F0-91E4-47C9-8809-C0A5C4DE8881";
shapes = (
{
closed = 1;
nodes = (
(-309,-47,o),
(-311,-52,o),
(-311,-59,cs),
(-311,-73,o),
(-301,-86,o),
(-281,-97,cs),
(-252,-113,o),
(-218,-121,o),
(-179,-121,cs),
(-152,-121,o),
(-130,-117,o),
(-112,-108,cs),
(-81,-93,o),
(-66,-68,o),
(-66,-33,cs),
(-66,-4,o),
(-79,23,o),
(-105,47,c),
(-90,62,l),
(-82,68,o),
(-74,71,o),
(-66,72,cs),
(-27,75,o),
(-7,39,o),
(-7,-6,cs),
(-7,-56,o),
(-31,-95,o),
(-79,-124,cs),
(-119,-149,o),
(-166,-161,o),
(-219,-161,cs),
(-254,-161,o),
(-286,-155,o),
(-317,-144,cs),
(-364,-126,o),
(-387,-101,o),
(-384,-68,cs),
(-382,-44,o),
(-367,-32,o),
(-340,-32,cs),
(-329,-32,o),
(-317,-35,o),
(-305,-42,c)
);
}
);
width = 3;
}
);
},
{
color = (166,255,153,255);
glyphname = bullet.016;
lastChange = "2024-05-05 02:07:47 +0000";
layers = (
{
layerId = "B33422F0-91E4-47C9-8809-C0A5C4DE8881";
shapes = (
{
closed = 1;
nodes = (
(13,319,o),
(12,325,o),
(12,332,cs),
(12,350,o),
(17,364,o),
(26,374,cs),
(41,389,o),
(62,397,o),
(91,397,cs),
(120,397,o),
(146,383,o),
(168,354,cs),
(188,327,o),
(200,296,o),
(203,260,cs),
(206,233,o),
(204,202,o),
(199,168,cs),
(192,127,o),
(182,95,o),
(168,71,cs),
(141,24,o),
(106,0,o),
(63,-1,cs),
(14,-2,o),
(-12,15,o),
(-14,52,cs),
(-15,73,o),
(3,93,o),
(30,93,c),
(26,76,o),
(26,62,o),
(30,51,cs),
(37,33,o),
(49,24,o),
(68,24,cs),
(87,24,o),
(104,36,o),
(117,59,cs),
(124,72,o),
(131,89,o),
(136,111,cs),
(142,136,o),
(145,163,o),
(146,192,cs),
(147,229,o),
(143,260,o),
(134,287,cs),
(123,322,o),
(102,343,o),
(73,348,cs),
(61,350,o),
(49,346,o),
(36,337,cs),
(26,329,o),
(19,321,o),
(15,312,c)
);
}
);
width = 215;
}
);
},
{
color = (166,255,153,255);
glyphname = bullet.017;
lastChange = "2024-05-05 02:07:47 +0000";
layers = (
{
layerId = "B33422F0-91E4-47C9-8809-C0A5C4DE8881";
shapes = (
{
closed = 1;
nodes = (
(-241,429,o),
(-244,422,o),
(-248,413,c),
(-263,402,o),
(-279,396,o),
(-297,396,cs),
(-330,396,o),
(-360,417,o),
(-365,442,cs),
(-366,450,o),
(-367,458,o),
(-367,465,cs),
(-367,492,o),
(-356,518,o),
(-335,543,cs),
(-310,573,o),
(-272,593,o),
(-223,602,cs),
(-184,609,o),
(-143,608,o),
(-99,597,c),
(-75,607,o),
(-54,607,o),
(-36,596,c),
(-47,595,o),
(-58,591,o),
(-67,586,c),
(-30,570,o),
(-12,543,o),
(-12,506,cs),
(-12,481,o),
(-18,459,o),
(-31,440,cs),
(-45,419,o),
(-64,407,o),
(-88,404,cs),
(-94,403,o),
(-100,403,o),
(-106,403,cs),
(-143,403,o),
(-167,421,o),
(-178,457,cs),
(-181,466,o),
(-182,476,o),
(-182,486,cs),
(-182,525,o),
(-164,563,o),
(-139,574,c),
(-164,579,o),
(-184,580,o),
(-200,578,cs),
(-275,567,o),
(-311,532,o),
(-310,473,cs),
(-309,442,o),
(-295,426,o),
(-267,426,cs),
(-258,426,o),
(-249,428,o),
(-240,433,c)
);
},
{
closed = 1;
nodes = (
(-108,561,o),
(-116,553,o),
(-125,540,cs),
(-135,525,o),
(-140,508,o),
(-141,490,cs),
(-142,452,o),
(-128,432,o),
(-98,430,cs),
(-83,429,o),
(-65,459,o),
(-65,487,cs),
(-65,519,o),
(-83,557,o),
(-100,564,c)
);
}
);
width = 3;
}
);
},
{
color = (166,255,153,255);
glyphname = bullet.020;
lastChange = "2024-05-05 02:07:47 +0000";
layers = (
{
layerId = "B33422F0-91E4-47C9-8809-C0A5C4DE8881";
shapes = (
{
closed = 1;
nodes = (
(62,99,o),
(67,101,o),
(72,101,cs),
(85,101,o),
(93,92,o),
(98,75,cs),
(103,56,o),
(109,46,o),
(116,46,cs),
(119,46,o),
(128,58,o),
(142,82,cs),
(158,109,o),
(168,125,o),
(173,130,cs),
(183,140,o),
(204,143,o),
(236,139,c),
(219,121,o),
(211,97,o),
(211,68,cs),
(211,47,o),
(219,36,o),
(235,36,cs),
(258,36,o),
(274,59,o),
(283,104,cs),
(290,139,o),
(290,169,o),
(283,196,cs),
(269,251,o),
(239,279,o),
(193,279,cs),
(186,279,o),
(180,278,o),
(174,277,c),
(161,264,o),
(144,241,o),
(121,207,cs),
(94,167,o),
(73,130,o),
(57,96,c)
);
},
{
closed = 1;
nodes = (
(275,393,o),
(303,397,o),
(341,397,cs),
(367,397,o),
(387,395,o),
(402,390,cs),
(433,379,o),
(455,359,o),
(469,329,cs),
(481,303,o),
(487,272,o),
(487,235,cs),
(487,216,o),
(485,196,o),
(482,177,cs),
(469,106,o),
(441,52,o),
(396,17,cs),
(379,3,o),
(360,-3,o),
(340,-2,cs),
(309,0,o),
(293,9,o),
(293,25,cs),
(293,44,o),
(306,54,o),
(331,55,c),
(328,50,o),
(326,45,o),
(326,41,cs),
(326,30,o),
(334,25,o),
(351,25,cs),
(358,25,o),
(364,26,o),
(369,29,cs),
(404,52,o),
(424,103,o),
(429,183,cs),
(435,270,o),
(414,327,o),
(367,352,cs),
(355,359,o),
(339,362,o),
(320,362,cs),
(269,362,o),
(230,344,o),
(202,307,c),
(209,310,o),
(218,311,o),
(228,311,cs),
(251,311,o),
(271,305,o),
(290,293,cs),
(313,278,o),
(328,257,o),
(335,228,cs),
(338,214,o),
(340,199,o),
(340,183,cs),
(340,141,o),
(331,103,o),
(312,69,cs),
(287,22,o),
(255,-1,o),
(218,-1,cs),
(179,-1,o),
(159,18,o),
(159,55,c),
(140,26,o),
(126,9,o),
(115,4,cs),
(105,0,o),
(96,-2,o),
(88,-2,cs),
(67,-2,o),
(53,10,o),
(46,34,cs),
(44,41,o),
(40,45,o),
(34,45,cs),
(29,45,o),
(23,41,o),
(16,32,c),
(13,31,o),
(9,38,o),
(8,38,c),
(5,36,l),
(17,89,o),
(51,157,o),
(107,240,cs),
(124,266,o),
(142,290,o),
(161,312,c),
(165,325,o),
(167,334,o),
(166,341,cs),
(165,354,o),
(158,360,o),
(143,360,cs),
(130,360,o),
(119,353,o),
(109,339,cs),
(104,332,o),
(101,322,o),
(101,310,cs),
(101,295,o),
(104,284,o),
(111,275,c),
(100,269,o),
(90,266,o),
(81,266,cs),
(58,266,o),
(47,280,o),
(47,308,cs),
(47,320,o),
(50,331,o),
(56,342,cs),
(77,379,o),
(106,397,o),
(143,397,cs),
(154,397,o),
(162,396,o),
(169,393,cs),
(190,385,o),
(198,368,o),
(195,341,c),
(207,354,o),
(228,369,o),
(258,384,cs)
);
},
{
closed = 1;
nodes = (
(388,421,o),
(408,439,o),
(416,477,cs),
(417,484,o),
(418,490,o),
(418,497,cs),
(418,564,o),
(363,590,o),
(286,578,cs),
(211,567,o),
(175,532,o),
(176,473,cs),
(177,442,o),
(191,426,o),
(219,426,cs),
(228,426,o),
(237,428,o),
(246,433,c),
(245,429,o),
(242,422,o),
(238,413,c),
(223,402,o),
(207,396,o),
(189,396,cs),
(156,396,o),
(126,417,o),
(121,442,cs),
(120,450,o),
(119,458,o),
(119,465,cs),
(119,492,o),
(130,518,o),
(151,543,cs),
(176,573,o),
(214,593,o),
(263,602,cs),
(304,610,o),
(346,608,o),
(387,597,cs),
(412,590,o),
(433,576,o),
(450,555,cs),
(469,531,o),
(477,504,o),
(473,475,cs),
(471,458,o),
(464,443,o),
(452,428,c),
(438,413,o),
(422,404,o),
(404,401,cs),
(383,398,o),
(367,406,o),
(357,424,c)
);
}
);
width = 496;
}
);
},
{
color = (166,255,153,255);
glyphname = bullet.021;
lastChange = "2024-05-05 02:07:47 +0000";
layers = (
{
background = {
shapes = (
{
closed = 1;
nodes = (
(350,245,o),
(346,262,q),
(341,287,o),
(306,284,q),
(290,287,o),
(234,253,q),
(256,244,o),
(323,163,o),
(331,132,q),
(338,105,o),
(338,82,q),
(338,13,o),
(274,1,q),
(259,-2,o),
(246,-2,q),
(206,-2,o),
(165,39,q),
(148,15,o),
(145,11,q),
(134,1,o),
(113,-2,q),
(103,-3,o),
(64,22,o),
(51,22,q),
(36,22,o),
(19,7,q),
(12,13,o),
(3,46,o),
(7,56,q),
(21,93,o),
(113,208,o),
(160,246,q),
(130,256,o),
(77,275,q),
(20,298,o),
(12,322,q),
(36,342,o),
(70,346,q),
(78,334,o),
(111,320,q),
(126,313,o),
(162,301,q),
(179,295,o),
(202,280,q),
(221,295,o),
(275,323,o),
(304,329,q),
(362,334,o),
(376,307,q),
(393,292,o),
(383,225,q),
(407,218,o),
(345,203,q)
);
},
{
closed = 1;
nodes = (
(166,204,o),
(112,139,q),
(69,87,o),
(54,60,q),
(84,77,o),
(95,62,q),
(104,50,o),
(113,50,q),
(136,50,o),
(157,131,q),
(181,134,o),
(186,128,q),
(190,97,o),
(194,85,q),
(204,57,o),
(227,47,q),
(236,43,o),
(245,43,q),
(264,43,o),
(290,77,o),
(290,100,q),
(290,114,o),
(285,126,q),
(262,186,o),
(200,223,q)
);
},
{
closed = 1;
nodes = (
(607,428,o),
(568,461,q),
(526,496,o),
(482,494,q),
(407,491,o),
(389,400,q),
(390,382,o),
(387,353,q),
(383,342,o),
(362,336,q),
(357,348,o),
(350,382,q),
(348,399,o),
(348,410,q),
(348,464,o),
(396,506,q),
(436,541,o),
(490,541,q),
(544,541,o),
(592,504,q),
(637,469,o),
(664,400,q),
(689,335,o),
(689,260,q),
(689,195,o),
(670,142,q),
(622,10,o),
(478,2,q),
(369,-4,o),
(345,33,o),
(345,44,q),
(351,57,o),
(394,79,q),
(447,107,o),
(447,150,q),
(447,159,o),
(444,168,q),
(439,183,o),
(407,183,q),
(376,183,o),
(351,169,q),
(343,182,o),
(343,193,q),
(343,223,o),
(375,229,q),
(397,233,o),
(413,233,q),
(466,233,o),
(483,183,q),
(489,166,o),
(489,149,q),
(489,116,o),
(449,62,o),
(420,50,q),
(504,53,o),
(532,61,q),
(580,75,o),
(608,121,q),
(643,180,o),
(643,270,q),
(643,336,o),
(626,380,q)
);
}
);
};
layerId = "B33422F0-91E4-47C9-8809-C0A5C4DE8881";
shapes = (
{
closed = 1;
nodes = (
(374,255,o),
(361,271,o),
(364,297,c),
(359,331,o),
(343,353,o),
(321,358,c),
(266,368,o),
(210,326,o),
(202,307,c),
(209,310,o),
(218,311,o),
(228,311,cs),
(251,311,o),
(271,305,o),
(290,293,cs),
(313,278,o),
(328,257,o),
(335,228,cs),
(338,214,o),
(340,199,o),
(340,183,cs),
(340,141,o),
(331,103,o),
(312,69,cs),
(287,22,o),
(255,-1,o),
(218,-1,cs),
(179,-1,o),
(159,18,o),
(159,55,c),
(140,26,o),
(126,9,o),
(115,4,cs),
(105,0,o),
(96,-2,o),
(88,-2,cs),
(67,-2,o),
(53,10,o),
(46,34,cs),
(44,41,o),
(40,45,o),
(34,45,cs),
(29,45,o),
(23,41,o),
(16,32,c),
(13,31,o),
(9,38,o),
(8,38,c),
(5,36,l),
(17,89,o),
(51,157,o),
(107,240,cs),
(124,266,o),
(142,290,o),
(161,312,c),
(165,325,o),
(167,334,o),
(166,341,cs),
(165,354,o),
(158,360,o),
(143,360,cs),
(130,360,o),
(119,353,o),
(109,339,cs),
(104,332,o),
(101,322,o),
(101,310,cs),
(101,295,o),
(104,284,o),
(111,275,c),
(100,269,o),
(90,266,o),
(81,266,cs),
(58,266,o),
(47,280,o),
(47,308,cs),
(47,320,o),
(50,331,o),
(56,342,cs),
(77,379,o),
(106,397,o),
(143,397,cs),
(154,397,o),
(162,396,o),
(169,394,c),
(190,385,o),
(198,368,o),
(195,341,c),
(224,374,o),
(277,404,o),
(339,390,cs),
(364,384,o),
(378,362,o),
(387,344,c),
(397,356,o),
(412,367,o),
(430,378,cs),
(451,391,o),
(477,397,o),
(510,397,cs),
(558,397,o),
(582,376,o),
(582,333,cs),
(582,320,o),
(579,309,o),
(573,299,cs),
(563,284,o),
(529,256,o),
(472,215,cs),
(436,190,o),
(418,158,o),
(418,120,cs),
(418,100,o),
(425,81,o),
(440,63,cs),
(456,43,o),
(483,33,o),
(521,33,cs),
(580,33,o),
(636,77,o),
(657,134,cs),
(672,173,o),
(679,217,o),
(679,266,cs),
(679,313,o),
(673,351,o),
(662,380,cs),
(639,439,o),
(609,479,o),
(570,498,cs),
(550,508,o),
(528,513,o),
(503,513,cs),
(482,513,o),
(464,509,o),
(448,501,cs),
(427,492,o),
(417,478,o),
(417,460,cs),
(417,435,o),
(428,422,o),
(451,421,c),
(444,406,o),
(429,399,o),
(407,399,cs),
(381,399,o),
(368,413,o),
(368,441,cs),
(368,477,o),
(391,505,o),
(436,526,cs),
(459,537,o),
(490,542,o),
(527,542,cs),
(580,542,o),
(622,529,o),
(654,504,cs),
(707,461,o),
(734,393,o),
(734,298,cs),
(734,244,o),
(724,191,o),
(703,140,cs),
(685,95,o),
(657,60,o),
(618,34,cs),
(583,10,o),
(539,-2,o),
(487,-2,cs),
(416,-2,o),
(373,22,o),
(358,69,cs),
(355,80,o),
(353,91,o),
(353,102,cs),
(353,149,o),
(387,195,o),
(456,240,cs),
(503,271,o),
(524,300,o),
(519,327,cs),
(515,350,o),
(501,362,o),
(478,362,cs),
(471,362,o),
(464,360,o),
(457,357,cs),
(437,348,o),
(420,328,o),
(406,296,cs),
(401,283,o),
(399,268,o),
(402,250,c)
);
},
{
closed = 1;
nodes = (
(62,99,o),
(67,101,o),
(72,101,cs),
(85,101,o),
(93,92,o),
(98,75,cs),
(103,56,o),
(109,46,o),
(116,46,cs),
(119,46,o),
(128,58,o),
(142,82,cs),
(158,109,o),
(168,125,o),
(173,130,cs),
(183,140,o),
(204,143,o),
(236,139,c),
(219,121,o),
(211,97,o),
(211,68,cs),
(211,47,o),
(219,36,o),
(235,36,cs),
(258,36,o),
(274,59,o),
(283,104,cs),
(290,139,o),
(290,169,o),
(283,196,cs),
(269,251,o),
(239,279,o),
(192,279,cs),
(186,279,o),
(180,278,o),
(174,277,c),
(161,264,o),
(144,241,o),
(121,207,cs),
(94,167,o),
(73,130,o),
(57,96,c)
);
}
);
width = 746;
}
);
},
{
color = (166,255,153,255);
glyphname = bullet.022;
lastChange = "2024-05-05 02:07:47 +0000";
layers = (
{
layerId = "B33422F0-91E4-47C9-8809-C0A5C4DE8881";
shapes = (
{
closed = 1;
nodes = (
(667,421,o),
(687,439,o),
(695,477,cs),
(696,484,o),
(697,490,o),
(697,497,cs),
(697,564,o),
(642,590,o),
(565,578,cs),
(490,567,o),
(454,532,o),
(455,473,cs),
(456,442,o),
(470,426,o),
(498,426,cs),
(507,426,o),
(516,428,o),
(525,433,c),
(524,429,o),
(521,422,o),
(517,413,c),
(506,405,o),
(494,399,o),
(482,397,c),
(486,396,o),
(490,396,o),
(495,396,c),
(538,391,o),
(560,368,o),
(560,326,cs),
(560,319,o),
(559,311,o),
(557,304,cs),
(553,288,o),
(534,268,o),
(501,244,cs),
(464,218,o),
(442,198,o),
(435,184,cs),
(426,168,o),
(422,151,o),
(422,134,cs),
(422,103,o),
(432,79,o),
(451,61,cs),
(472,41,o),
(499,30,o),
(531,29,cs),
(569,28,o),
(602,36,o),
(631,55,cs),
(652,69,o),
(663,92,o),
(663,125,cs),
(663,154,o),
(654,182,o),
(636,210,c),
(635,213,o),
(632,218,o),
(627,227,c),
(579,202,l),
(552,186,o),
(538,171,o),
(538,156,cs),
(538,139,o),
(557,124,o),
(574,124,cs),
(583,124,o),
(594,127,o),
(607,133,c),
(600,99,o),
(579,82,o),
(544,82,cs),
(515,82,o),
(496,90,o),
(487,106,cs),
(480,119,o),
(476,131,o),
(476,143,cs),
(476,162,o),
(484,179,o),
(500,194,cs),
(509,203,o),
(529,215,o),
(559,230,cs),
(612,255,l),
(603,278,o),
(598,298,o),
(598,316,cs),
(598,331,o),
(601,345,o),
(608,357,cs),
(625,386,o),
(651,400,o),
(686,397,cs),
(714,394,o),
(734,365,o),
(734,336,cs),
(734,313,o),
(715,287,o),
(676,257,c),
(692,240,o),
(713,187,o),
(713,146,cs),
(713,61,o),
(646,-1,o),
(527,-1,cs),
(506,-1,o),
(484,1,o),
(461,4,cs),
(431,9,o),
(406,21,o),
(387,40,cs),
(365,61,o),
(354,85,o),
(355,114,cs),
(356,153,o),
(376,189,o),
(416,221,c),
(478,266,l),
(492,277,o),
(499,291,o),
(499,308,cs),
(499,317,o),
(496,326,o),
(490,333,cs),
(482,342,o),
(471,347,o),
(457,347,cs),
(426,347,o),
(392,320,o),
(387,287,c),
(377,295,o),
(372,308,o),
(372,325,cs),
(372,335,o),
(373,344,o),
(377,352,c),
(366,356,o),
(352,359,o),
(336,361,c),
(281,371,o),
(210,326,o),
(202,307,c),
(209,310,o),
(218,311,o),
(228,311,cs),
(251,311,o),
(271,305,o),
(290,293,cs),
(313,278,o),
(328,257,o),
(335,228,cs),
(338,214,o),
(340,199,o),
(340,183,cs),
(340,141,o),
(331,103,o),
(312,69,cs),
(287,22,o),
(255,-1,o),
(218,-1,cs),
(179,-1,o),
(159,18,o),
(159,55,c),
(140,26,o),
(126,9,o),
(115,4,cs),
(105,0,o),
(96,-2,o),
(88,-2,cs),
(67,-2,o),
(53,10,o),
(46,34,cs),
(44,41,o),
(40,45,o),
(34,45,cs),
(29,45,o),
(23,41,o),
(16,32,c),
(13,31,o),
(9,38,o),
(8,38,c),
(5,36,l),
(17,89,o),
(51,157,o),
(107,240,cs),
(124,266,o),
(142,290,o),
(161,312,c),
(165,325,o),
(167,334,o),
(166,341,cs),
(165,354,o),
(158,360,o),
(143,360,cs),
(130,360,o),
(119,353,o),
(109,339,cs),
(104,332,o),
(101,322,o),
(101,310,cs),
(101,295,o),
(104,284,o),
(111,275,c),
(100,269,o),
(90,266,o),
(81,266,cs),
(58,266,o),
(47,280,o),
(47,308,cs),
(47,320,o),
(50,331,o),
(56,342,cs),
(77,379,o),
(106,397,o),
(143,397,cs),
(154,397,o),
(162,396,o),
(169,394,c),
(190,385,o),
(198,368,o),
(195,341,c),
(224,374,o),
(280,404,o),
(365,396,cs),
(384,394,o),
(400,391,o),
(413,387,c),
(424,392,o),
(437,396,o),
(452,397,c),
(426,402,o),
(404,421,o),
(400,442,cs),
(399,450,o),
(398,458,o),
(398,465,cs),
(398,492,o),
(409,518,o),
(430,543,cs),
(455,573,o),
(493,593,o),
(542,602,cs),
(583,610,o),
(625,608,o),
(666,597,cs),
(691,590,o),
(712,576,o),
(729,555,cs),
(748,531,o),
(756,504,o),
(752,475,cs),
(750,458,o),
(743,443,o),
(731,428,c),
(717,413,o),
(701,404,o),
(683,401,cs),
(662,398,o),
(646,406,o),
(636,424,c)
);
},
{
closed = 1;
nodes = (
(62,99,o),
(67,101,o),
(72,101,cs),
(85,101,o),
(93,92,o),
(98,75,cs),
(103,56,o),
(109,46,o),
(116,46,cs),
(119,46,o),
(128,58,o),
(142,82,cs),
(158,109,o),
(168,125,o),
(173,130,cs),
(183,140,o),
(204,143,o),
(236,139,c),
(219,121,o),
(211,97,o),
(211,68,cs),
(211,47,o),
(219,36,o),
(235,36,cs),
(258,36,o),
(274,59,o),
(283,104,cs),
(290,139,o),
(290,169,o),
(283,196,cs),
(269,251,o),
(239,279,o),
(192,279,cs),
(186,279,o),
(180,278,o),
(174,277,c),
(161,264,o),
(144,241,o),
(121,207,cs),
(94,167,o),
(73,130,o),
(57,96,c)
);
},
{
closed = 1;
nodes = (
(684,292,o),
(695,307,o),
(698,328,cs),
(701,349,o),
(695,361,o),
(681,365,cs),
(661,370,o),
(647,356,o),
(647,336,cs),
(647,319,o),
(652,302,o),
(663,283,c)
);
}
);
width = 743;
}
);
},
{
color = (166,255,153,255);
glyphname = bullet.023;
lastChange = "2024-05-05 02:07:47 +0000";
layers = (
{
layerId = "B33422F0-91E4-47C9-8809-C0A5C4DE8881";
shapes = (
{
closed = 1;
nodes = (
(83,-107,o),
(75,-119,o),
(75,-136,cs),
(75,-163,o),
(93,-176,o),
(130,-175,c),
(143,-175,o),
(180,-164,o),
(239,-142,cs),
(258,-135,o),
(274,-134,o),
(289,-138,c),
(293,-96,o),
(298,-40,o),
(307,24,c),
(287,6,o),
(268,-2,o),
(252,-2,cs),
(248,-2,o),
(243,-2,o),
(238,-1,cs),
(225,1,o),
(212,10,o),
(199,27,cs),
(186,44,o),
(177,52,o),
(172,52,c),
(165,53,o),
(161,42,o),
(160,21,cs),
(159,0,o),
(156,-11,o),
(149,-13,c),
(134,-7,o),
(122,15,o),
(113,52,cs),
(108,75,o),
(107,100,o),
(111,127,cs),
(120,187,o),
(150,233,o),
(200,264,cs),
(215,273,o),
(223,286,o),
(223,302,cs),
(223,308,o),
(222,314,o),
(219,321,cs),
(209,347,o),
(192,360,o),
(168,360,cs),
(161,360,o),
(152,359,o),
(142,356,c),
(118,351,o),
(86,322,o),
(74,295,cs),
(57,256,o),
(50,210,o),
(55,157,cs),
(58,130,o),
(63,109,o),
(70,94,cs),
(75,83,o),
(80,78,o),
(85,78,cs),
(87,78,o),
(88,80,o),
(88,83,c),
(102,78,o),
(109,63,o),
(109,39,cs),
(109,16,o),
(94,-3,o),
(73,-3,cs),
(56,-3,o),
(41,7,o),
(29,27,cs),
(10,58,o),
(2,100,o),
(4,155,cs),
(8,263,o),
(56,343,o),
(127,382,cs),
(145,392,o),
(169,397,o),
(198,397,cs),
(215,397,o),
(229,395,o),
(239,390,cs),
(268,377,o),
(283,356,o),
(283,327,cs),
(283,296,o),
(261,267,o),
(217,242,cs),
(192,227,o),
(176,202,o),
(169,165,cs),
(166,148,o),
(165,130,o),
(167,113,c),
(172,117,o),
(178,119,o),
(184,119,cs),
(201,119,o),
(213,107,o),
(221,84,cs),
(233,49,o),
(245,33,o),
(257,34,cs),
(283,36,o),
(304,58,o),
(320,101,cs),
(333,134,o),
(339,178,o),
(339,233,cs),
(339,294,o),
(332,342,o),
(319,376,cs),
(295,437,o),
(266,477,o),
(231,494,cs),
(211,504,o),
(189,509,o),
(165,509,cs),
(124,509,o),
(98,496,o),
(85,471,cs),
(82,465,o),
(80,458,o),
(80,450,cs),
(80,431,o),
(90,422,o),
(109,421,c),
(102,406,o),
(89,398,o),
(70,398,cs),
(45,398,o),
(33,412,o),
(33,441,cs),
(33,473,o),
(54,499,o),
(97,519,cs),
(120,530,o),
(150,535,o),
(188,535,cs),
(240,535,o),
(281,523,o),
(312,498,cs),
(355,463,o),
(382,411,o),
(391,341,cs),
(394,321,o),
(395,301,o),
(395,280,cs),
(395,240,o),
(391,203,o),
(382,168,c),
(373,109,o),
(361,22,o),
(355,-22,cs),
(346,-89,o),
(339,-168,o),
(338,-195,c),
(314,-184,o),
(293,-179,o),
(276,-179,cs),
(262,-179,o),
(240,-182,o),
(210,-188,cs),
(164,-197,o),
(130,-202,o),
(108,-202,cs),
(85,-202,o),
(65,-199,o),
(50,-192,cs),
(24,-181,o),
(11,-163,o),
(11,-138,cs),
(11,-123,o),
(17,-111,o),
(30,-102,cs),
(40,-95,o),
(52,-91,o),
(65,-91,cs),
(79,-91,o),
(91,-95,o),
(100,-102,c)
);
}
);
width = 404;
}
);
},
{
color = (166,255,153,255);
glyphname = bullet.024;
lastChange = "2024-05-05 02:07:47 +0000";
layers = (
{
layerId = "B33422F0-91E4-47C9-8809-C0A5C4DE8881";
shapes = (
{
closed = 1;
nodes = (
(407,-129,o),
(444,-96,o),
(448,-64,c),
(449,-48,o),
(435,-20,o),
(419,-15,c),
(421,-29,o),
(420,-44,o),
(416,-61,cs),
(411,-83,o),
(398,-94,o),
(377,-94,cs),
(362,-94,o),
(349,-84,o),
(340,-65,cs),
(335,-55,o),
(334,-42,o),
(337,-27,cs),
(339,-17,o),
(347,-5,o),
(361,9,cs),
(371,19,l),
(375,22,ls),
(377,23,o),
(379,25,o),
(381,27,cs),
(386,31,l),
(385,31,l),
(406,51,o),
(424,77,o),
(437,109,c),
(450,144,o),
(457,179,o),
(457,215,cs),
(457,258,o),
(449,296,o),
(432,329,cs),
(414,366,o),
(390,387,o),
(361,393,cs),
(349,396,o),
(337,397,o),
(324,397,cs),
(293,397,o),
(268,390,o),
(251,377,cs),
(228,360,o),
(211,341,o),
(198,320,cs),
(192,310,o),
(183,290,o),
(170,260,c),
(161,229,o),
(155,206,o),
(152,189,c),
(157,182,o),
(161,176,o),
(162,173,c),
(171,185,o),
(183,191,o),
(200,191,cs),
(233,191,o),
(246,159,o),
(243,127,cs),
(241,97,o),
(230,73,o),
(211,55,cs),
(196,40,o),
(179,32,o),
(160,31,cs),
(127,29,o),
(101,48,o),
(83,88,cs),
(68,121,o),
(61,163,o),
(62,214,cs),
(62,243,o),
(66,271,o),
(75,297,cs),
(86,330,o),
(103,351,o),
(124,358,cs),
(130,360,o),
(136,361,o),
(141,361,cs),
(157,361,o),
(172,350,o),
(186,329,c),
(196,342,o),
(201,354,o),
(201,365,cs),
(201,386,o),
(188,397,o),
(161,397,cs),
(116,397,o),
(75,366,o),
(40,303,cs),
(15,259,o),
(3,209,o),
(3,154,cs),
(3,121,o),
(8,94,o),
(18,73,cs),
(43,20,o),
(84,-5,o),
(139,-1,cs),
(188,2,o),
(229,26,o),
(261,71,cs),
(284,103,o),
(296,136,o),
(296,171,cs),
(296,211,o),
(267,242,o),
(227,242,cs),
(214,242,o),
(203,240,o),
(194,235,c),
(202,258,o),
(210,277,o),
(219,291,cs),
(243,329,o),
(270,348,o),
(300,348,cs),
(334,348,o),
(360,328,o),
(378,287,cs),
(392,255,o),
(398,220,o),
(397,183,cs),
(395,106,o),
(374,55,o),
(334,29,cs),
(329,26,o),
(323,25,o),
(316,25,cs),
(299,25,o),
(291,30,o),
(291,41,cs),
(291,45,o),
(293,50,o),
(296,55,c),
(271,54,o),
(258,44,o),
(258,25,cs),
(258,8,o),
(274,-1,o),
(306,-2,c),
(314,-2,l),
(295,-18,o),
(284,-38,o),
(284,-61,cs),
(284,-86,o),
(293,-106,o),
(311,-119,cs),
(327,-131,o),
(347,-136,o),
(372,-133,cs)
);
}
);
width = 467;
}
);
},
{
color = (166,255,153,255);
glyphname = bullet.025;
lastChange = "2024-05-05 02:07:47 +0000";
layers = (
{
layerId = "B33422F0-91E4-47C9-8809-C0A5C4DE8881";
shapes = (
{
closed = 1;
nodes = (
(87,189,o),
(73,187,o),
(51,185,cs),
(35,183,o),
(21,177,o),
(9,168,c),
(5,175,o),
(3,181,o),
(3,188,cs),
(3,208,o),
(16,222,o),
(42,229,cs),
(52,232,o),
(74,235,o),
(109,238,cs),
(132,240,o),
(152,248,o),
(168,261,cs),
(177,268,o),
(182,281,o),
(182,300,cs),
(182,331,o),
(165,343,o),
(142,343,cs),
(123,343,o),
(103,335,o),
(84,319,cs),
(65,304,o),
(55,287,o),
(54,270,c),
(47,276,o),
(43,288,o),
(43,306,cs),
(43,319,o),
(45,330,o),
(50,339,cs),
(63,363,o),
(84,380,o),
(112,390,cs),
(132,397,o),
(150,400,o),
(166,398,cs),
(214,393,o),
(237,357,o),
(232,312,cs),
(229,288,o),
(219,265,o),
(200,244,cs),
(182,223,o),
(163,209,o),
(143,204,c),
(123,187,o),
(114,160,o),
(115,125,cs),
(116,74,o),
(129,42,o),
(154,31,c),
(159,28,o),
(164,27,o),
(168,27,cs),
(184,27,o),
(194,42,o),
(198,73,cs),
(199,79,o),
(198,91,o),
(195,108,cs),
(192,128,o),
(190,142,o),
(190,151,cs),
(190,160,o),
(191,167,o),
(193,173,cs),
(202,197,o),
(248,217,o),
(289,217,cs),
(322,217,o),
(342,207,o),
(348,186,cs),
(349,181,o),
(350,177,o),
(350,173,cs),
(350,165,o),
(347,156,o),
(340,147,cs),
(331,135,o),
(326,125,o),
(324,117,cs),
(319,99,o),
(319,83,o),
(324,68,cs),
(326,61,o),
(332,53,o),
(341,44,cs),
(347,38,o),
(353,35,o),
(360,35,cs),
(376,35,o),
(389,50,o),
(399,79,cs),
(407,102,o),
(411,123,o),
(411,142,cs),
(411,167,o),
(403,198,o),
(387,235,cs),
(371,272,o),
(363,301,o),
(363,321,cs),
(363,364,o),
(400,396,o),
(443,396,cs),
(474,396,o),
(493,383,o),
(502,357,c),
(457,348,o),
(435,328,o),
(435,299,cs),
(435,287,o),
(438,271,o),
(444,252,cs),
(454,218,l),
(457,201,o),
(459,185,o),
(459,170,cs),
(459,121,o),
(442,77,o),
(408,36,cs),
(394,19,o),
(376,8,o),
(353,2,cs),
(306,-11,o),
(278,18,o),
(269,50,cs),
(266,59,o),
(265,67,o),
(265,76,cs),
(265,104,o),
(278,127,o),
(303,144,cs),
(308,148,o),
(311,153,o),
(311,158,cs),
(311,174,o),
(289,192,o),
(270,191,cs),
(253,190,o),
(244,179,o),
(244,157,cs),
(244,148,o),
(247,117,o),
(247,104,cs),
(247,62,o),
(231,31,o),
(199,12,cs),
(186,4,o),
(167,0,o),
(144,0,cs),
(115,0,o),
(92,11,o),
(75,33,cs),
(63,50,o),
(56,70,o),
(54,93,cs),
(51,130,o),
(65,163,o),
(94,192,c)
);
},
{
closed = 1;
nodes = (
(410,421,o),
(430,439,o),
(438,477,cs),
(439,484,o),
(440,490,o),
(440,497,cs),
(440,564,o),
(385,590,o),
(308,578,cs),
(233,567,o),
(197,532,o),
(198,473,cs),
(199,442,o),
(213,426,o),
(241,426,cs),
(250,426,o),
(259,428,o),
(268,433,c),
(267,429,o),
(264,422,o),
(260,413,c),
(245,402,o),
(229,396,o),
(211,396,cs),
(178,396,o),
(148,417,o),
(143,442,cs),
(142,450,o),
(141,458,o),
(141,465,cs),
(141,492,o),
(152,518,o),
(173,543,cs),
(198,573,o),
(236,593,o),
(285,602,cs),
(326,610,o),
(368,608,o),
(409,597,cs),
(434,590,o),
(455,576,o),
(472,555,cs),
(491,531,o),
(499,504,o),
(495,475,cs),
(493,458,o),
(486,443,o),
(474,428,c),
(460,413,o),
(444,404,o),
(426,401,cs),
(405,398,o),
(389,406,o),
(379,424,c)
);
}
);
width = 487;
}
);
},
{
color = (166,255,153,255);
glyphname = bullet.026;
lastChange = "2024-05-05 02:07:47 +0000";
layers = (
{
layerId = "B33422F0-91E4-47C9-8809-C0A5C4DE8881";
shapes = (
{
closed = 1;
nodes = (
(54,292,o),
(45,270,o),
(45,250,cs),
(45,229,o),
(52,219,o),
(67,219,cs),
(83,219,o),
(93,230,o),
(97,251,cs),
(101,274,o),
(87,306,o),
(70,311,c)
);
},
{
closed = 1;
nodes = (
(339,18,o),
(320,6,o),
(297,1,cs),
(268,-5,o),
(245,0,o),
(227,15,cs),
(211,28,o),
(203,48,o),
(203,73,c),
(188,43,o),
(171,22,o),
(154,10,cs),
(143,3,o),
(131,-1,o),
(118,-1,c),
(82,0,o),
(53,24,o),
(53,81,cs),
(53,94,o),
(55,105,o),
(58,116,cs),
(66,142,o),
(87,168,o),
(120,194,cs),
(180,241,o),
(192,275,o),
(192,307,cs),
(192,317,o),
(190,325,o),
(187,331,cs),
(178,347,o),
(166,355,o),
(152,356,cs),
(132,357,o),
(115,352,o),
(101,340,c),
(122,337,o),
(133,318,o),
(133,281,cs),
(133,268,o),
(131,255,o),
(126,242,cs),
(120,225,o),
(110,209,o),
(96,196,c),
(80,179,o),
(64,171,o),
(48,171,cs),
(19,171,o),
(2,197,o),
(2,228,cs),
(2,268,o),
(23,307,o),
(65,344,cs),
(107,381,o),
(148,399,o),
(189,398,cs),
(209,397,o),
(225,390,o),
(237,377,cs),
(247,365,o),
(252,350,o),
(252,333,cs),
(252,300,o),
(232,262,o),
(193,220,cs),
(182,209,o),
(164,191,o),
(139,164,c),
(123,145,o),
(115,123,o),
(115,97,cs),
(115,70,o),
(124,56,o),
(142,56,cs),
(161,56,o),
(180,82,o),
(200,133,cs),
(211,161,o),
(233,175,o),
(265,175,cs),
(271,175,o),
(276,175,o),
(281,174,c),
(272,158,o),
(265,136,o),
(262,108,cs),
(258,77,o),
(261,56,o),
(271,43,cs),
(276,36,o),
(283,33,o),
(290,33,cs),
(301,33,o),
(310,38,o),
(317,49,cs),
(341,84,o),
(354,132,o),
(357,191,cs),
(362,280,o),
(353,345,o),
(330,386,cs),
(306,430,o),
(258,450,o),
(185,445,cs),
(156,443,o),
(128,433,o),
(102,416,c),
(80,400,o),
(64,382,o),
(53,361,c),
(44,373,o),
(39,385,o),
(39,397,cs),
(39,412,o),
(46,426,o),
(60,438,cs),
(63,441,o),
(70,443,o),
(81,446,cs),
(89,448,o),
(94,452,o),
(95,457,cs),
(96,463,o),
(93,469,o),
(85,474,cs),
(69,486,o),
(67,496,o),
(67,507,cs),
(67,524,o),
(74,540,o),
(88,554,cs),
(111,577,o),
(146,593,o),
(195,602,cs),
(238,610,o),
(283,609,o),
(330,599,cs),
(351,594,o),
(370,585,o),
(386,572,cs),
(405,555,o),
(413,537,o),
(412,516,cs),
(409,481,o),
(384,465,o),
(336,466,c),
(347,482,o),
(353,497,o),
(353,512,cs),
(353,552,o),
(311,579,o),
(254,579,cs),
(225,579,o),
(198,572,o),
(173,559,cs),
(142,543,o),
(126,523,o),
(126,498,cs),
(126,489,o),
(129,480,o),
(134,471,c),
(155,476,o),
(178,479,o),
(204,480,cs),
(247,481,o),
(282,476,o),
(309,464,cs),
(379,433,o),
(415,371,o),
(416,277,cs),
(417,233,o),
(412,189,o),
(401,146,cs),
(391,105,o),
(375,70,o),
(354,39,cs)
);
}
);
width = 425;
}
);
},
{
color = (166,255,153,255);
glyphname = bullet.029;
lastChange = "2024-05-05 02:07:47 +0000";
layers = (
{
layerId = "B33422F0-91E4-47C9-8809-C0A5C4DE8881";
shapes = (
{
closed = 1;
nodes = (
(76,-47,o),
(74,-52,o),
(74,-59,cs),
(74,-73,o),
(84,-86,o),
(104,-97,cs),
(133,-113,o),
(167,-121,o),
(206,-121,cs),
(233,-121,o),
(255,-117,o),
(273,-108,cs),
(304,-93,o),
(319,-68,o),
(319,-33,cs),
(319,-9,o),
(310,13,o),
(292,34,c),
(256,10,o),
(212,-2,o),
(159,-2,cs),
(90,-2,o),
(49,18,o),
(36,58,c),
(31,71,o),
(29,84,o),
(29,95,cs),
(29,115,o),
(35,133,o),
(47,148,cs),
(55,159,o),
(68,172,o),
(85,188,cs),
(102,204,o),
(113,217,o),
(118,227,c),
(111,224,o),
(84,214,o),
(37,199,cs),
(24,195,o),
(15,193,o),
(10,193,cs),
(2,193,o),
(-3,196,o),
(-4,202,cs),
(-10,225,o),
(4,244,o),
(38,259,cs),
(63,270,o),
(87,276,o),
(110,276,cs),
(124,276,o),
(135,273,o),
(144,268,c),
(173,279,o),
(193,298,o),
(193,317,cs),
(193,322,o),
(191,328,o),
(187,333,cs),
(181,342,o),
(170,346,o),
(154,346,cs),
(135,346,o),
(118,341,o),
(101,330,cs),
(82,319,o),
(72,305,o),
(71,290,c),
(63,296,o),
(59,308,o),
(59,325,cs),
(59,337,o),
(62,347,o),
(67,355,cs),
(77,370,o),
(94,381,o),
(119,389,cs),
(142,397,o),
(163,400,o),
(183,398,cs),
(223,394,o),
(250,370,o),
(250,338,cs),
(250,331,o),
(249,325,o),
(247,318,cs),
(241,300,o),
(227,283,o),
(204,268,c),
(189,261,o),
(175,253,o),
(160,245,c),
(159,235,o),
(146,213,o),
(120,178,cs),
(104,157,o),
(96,134,o),
(96,109,cs),
(96,89,o),
(100,74,o),
(109,65,cs),
(128,44,o),
(155,33,o),
(190,33,cs),
(203,33,o),
(217,35,o),
(232,38,c),
(275,49,o),
(315,90,o),
(332,134,cs),
(347,173,o),
(354,213,o),
(354,253,cs),
(354,301,o),
(344,343,o),
(324,378,cs),
(296,427,o),
(250,449,o),
(185,445,cs),
(156,443,o),
(128,433,o),
(102,416,c),
(80,400,o),
(64,382,o),
(53,361,c),
(44,373,o),
(39,385,o),
(39,397,cs),
(39,412,o),
(46,426,o),
(60,438,cs),
(63,441,o),
(70,443,o),
(81,446,cs),
(89,448,o),
(94,452,o),
(95,457,cs),
(96,463,o),
(93,469,o),
(85,474,cs),
(69,486,o),
(67,496,o),
(67,507,cs),
(67,524,o),
(74,540,o),
(88,554,cs),
(111,577,o),
(146,593,o),
(195,602,cs),
(235,610,o),
(278,609,o),
(324,599,cs),
(345,594,o),
(364,585,o),
(380,572,cs),
(399,555,o),
(407,537,o),
(406,516,cs),
(403,481,o),
(378,465,o),
(330,466,c),
(341,482,o),
(347,497,o),
(347,512,cs),
(347,551,o),
(304,579,o),
(247,579,cs),
(219,579,o),
(193,573,o),
(169,560,cs),
(140,545,o),
(126,525,o),
(126,500,cs),
(126,490,o),
(129,480,o),
(134,471,c),
(157,476,o),
(180,478,o),
(202,478,cs),
(248,478,o),
(282,473,o),
(303,464,cs),
(358,440,o),
(391,399,o),
(402,340,cs),
(406,320,o),
(408,299,o),
(408,278,cs),
(408,230,o),
(398,184,o),
(378,139,cs),
(366,113,o),
(352,90,o),
(335,71,c),
(364,64,o),
(378,32,o),
(378,-6,cs),
(378,-56,o),
(354,-95,o),
(306,-124,cs),
(266,-149,o),
(219,-161,o),
(166,-161,cs),
(131,-161,o),
(99,-155,o),
(68,-144,cs),
(21,-126,o),
(-2,-101,o),
(1,-68,cs),
(3,-44,o),
(18,-32,o),
(45,-32,cs),
(56,-32,o),
(68,-35,o),
(80,-42,c)
);
}
);
width = 418;
}
);
},
{
color = (166,255,153,255);
glyphname = bullet.031;
lastChange = "2024-05-05 02:07:47 +0000";
layers = (
{
layerId = "B33422F0-91E4-47C9-8809-C0A5C4DE8881";
shapes = (
{
closed = 1;
nodes = (
(218,408,o),
(205,390,o),
(181,384,c),
(200,372,o),
(209,353,o),
(209,326,cs),
(209,319,o),
(208,311,o),
(206,304,cs),
(202,288,o),
(183,268,o),
(150,244,cs),
(113,218,o),
(91,198,o),
(84,184,cs),
(75,168,o),
(71,151,o),
(71,134,cs),
(71,103,o),
(81,79,o),
(100,61,cs),
(121,41,o),
(148,30,o),
(180,29,cs),
(218,28,o),
(251,36,o),
(280,55,cs),
(301,68,o),
(312,92,o),
(312,125,cs),
(312,154,o),
(303,182,o),
(285,210,cs),
(259,251,o),
(246,286,o),
(246,315,cs),
(246,330,o),
(250,344,o),
(257,357,cs),
(266,373,o),
(278,384,o),
(292,390,c),
(289,417,o),
(293,440,o),
(305,459,cs),
(308,463,o),
(327,485,o),
(362,524,cs),
(373,535,o),
(378,552,o),
(378,573,cs),
(378,595,o),
(369,612,o),
(352,624,c),
(361,629,o),
(370,631,o),
(379,631,cs),
(406,631,o),
(429,608,o),
(429,583,cs),
(429,543,o),
(394,516,o),
(369,489,cs),
(359,478,o),
(352,468,o),
(349,459,cs),
(342,440,o),
(343,417,o),
(354,392,c),
(372,383,o),
(382,368,o),
(384,346,cs),
(387,318,o),
(371,307,o),
(352,310,cs),
(341,312,o),
(326,323,o),
(309,342,c),
(304,335,o),
(303,327,o),
(306,317,c),
(317,292,o),
(331,257,o),
(349,213,cs),
(358,191,o),
(362,169,o),
(362,148,cs),
(362,60,o),
(295,-1,o),
(176,-1,cs),
(155,-1,o),
(133,1,o),
(110,4,cs),
(80,9,o),
(55,21,o),
(36,40,cs),
(14,61,o),
(3,85,o),
(4,114,cs),
(5,153,o),
(25,189,o),
(65,221,c),
(127,266,l),
(141,277,o),
(148,291,o),
(148,308,cs),
(148,317,o),
(145,326,o),
(139,333,cs),
(131,342,o),
(120,347,o),
(106,347,cs),
(75,347,o),
(41,320,o),
(36,287,c),
(26,295,o),
(21,308,o),
(21,325,cs),
(21,336,o),
(23,345,o),
(27,353,cs),
(44,383,o),
(72,398,o),
(113,398,cs),
(117,398,l),
(101,413,o),
(91,438,o),
(92,465,cs),
(93,490,o),
(100,511,o),
(113,527,cs),
(129,546,o),
(152,556,o),
(182,557,cs),
(239,558,o),
(280,517,o),
(280,468,cs),
(280,449,o),
(274,431,o),
(262,415,cs),
(251,402,o),
(236,394,o),
(217,393,c),
(230,408,o),
(236,426,o),
(236,447,cs),
(236,458,o),
(234,470,o),
(229,481,cs),
(220,502,o),
(204,513,o),
(182,513,cs),
(153,513,o),
(130,493,o),
(130,461,cs),
(130,438,o),
(143,418,o),
(159,418,c),
(175,417,o),
(183,424,o),
(183,439,cs),
(183,454,o),
(174,464,o),
(155,467,c),
(164,484,o),
(174,492,o),
(183,492,cs),
(207,492,o),
(224,461,o),
(221,437,cs)
);
}
);
width = 384;
}
);
},
{
color = (166,255,153,255);
glyphname = bullet.032;
lastChange = "2024-05-05 02:07:47 +0000";
layers = (
{
layerId = "B33422F0-91E4-47C9-8809-C0A5C4DE8881";
shapes = (
{
closed = 1;
nodes = (
(359,-107,o),
(351,-119,o),
(351,-136,cs),
(351,-163,o),
(369,-176,o),
(406,-175,c),
(419,-175,o),
(456,-164,o),
(515,-142,cs),
(534,-135,o),
(550,-134,o),
(565,-138,c),
(569,-96,o),
(573,-39,o),
(583,26,c),
(573,16,o),
(561,8,o),
(550,3,cs),
(542,-1,o),
(531,-2,o),
(516,-1,cs),
(501,0,o),
(491,3,o),
(484,8,cs),
(472,18,o),
(464,30,o),
(460,44,cs),
(458,54,o),
(456,64,o),
(455,74,c),
(424,7,o),
(407,-10,o),
(367,1,cs),
(337,10,o),
(317,29,o),
(306,58,c),
(279,19,o),
(249,-1,o),
(218,-1,cs),
(179,-1,o),
(159,18,o),
(159,55,c),
(140,26,o),
(126,9,o),
(115,4,cs),
(105,0,o),
(96,-2,o),
(88,-2,cs),
(67,-2,o),
(53,10,o),
(46,34,cs),
(44,41,o),
(40,45,o),
(34,45,cs),
(29,45,o),
(23,41,o),
(16,32,c),
(13,31,o),
(9,38,o),
(8,38,c),
(5,36,l),
(17,89,o),
(51,157,o),
(107,240,cs),
(124,266,o),
(142,290,o),
(161,312,c),
(165,325,o),
(167,334,o),
(166,341,cs),
(165,354,o),
(158,360,o),
(143,360,cs),
(130,360,o),
(119,353,o),
(109,339,cs),
(104,332,o),
(101,322,o),
(101,310,cs),
(101,295,o),
(104,284,o),
(111,275,c),
(100,269,o),
(90,266,o),
(81,266,cs),
(58,266,o),
(47,280,o),
(47,308,cs),
(47,320,o),
(50,331,o),
(56,342,cs),
(77,379,o),
(106,397,o),
(143,397,cs),
(150,397,o),
(157,396,o),
(164,395,cs),
(176,392,o),
(185,384,o),
(191,370,cs),
(196,359,o),
(197,348,o),
(195,337,c),
(214,354,o),
(241,367,o),
(274,378,cs),
(305,388,o),
(336,394,o),
(365,395,cs),
(393,396,o),
(418,396,o),
(441,394,cs),
(491,390,o),
(519,375,o),
(524,348,cs),
(529,323,o),
(516,308,o),
(486,302,c),
(494,341,o),
(468,365,o),
(444,365,cs),
(421,365,o),
(402,352,o),
(386,325,c),
(373,306,o),
(364,283,o),
(359,256,cs),
(353,226,o),
(350,197,o),
(350,168,cs),
(350,114,o),
(361,73,o),
(383,46,cs),
(386,43,o),
(389,41,o),
(392,41,cs),
(399,41,o),
(407,50,o),
(416,68,cs),
(444,124,ls),
(453,143,o),
(468,153,o),
(488,153,cs),
(493,153,o),
(502,152,o),
(513,150,c),
(507,133,o),
(504,119,o),
(505,110,cs),
(506,87,o),
(508,62,o),
(517,49,cs),
(523,40,o),
(530,36,o),
(538,36,cs),
(562,36,o),
(588,74,o),
(601,126,cs),
(612,169,o),
(617,218,o),
(617,272,cs),
(617,321,o),
(613,357,o),
(604,380,cs),
(581,441,o),
(551,480,o),
(514,498,cs),
(495,507,o),
(475,511,o),
(452,511,cs),
(409,511,o),
(381,498,o),
(368,472,cs),
(366,467,o),
(365,463,o),
(365,458,cs),
(365,441,o),
(376,432,o),
(398,431,c),
(393,420,o),
(384,414,o),
(371,411,cs),
(364,410,o),
(357,409,o),
(352,409,cs),
(333,409,o),
(322,418,o),
(318,437,cs),
(311,470,o),
(334,499,o),
(385,522,cs),
(408,533,o),
(438,538,o),
(475,538,cs),
(526,538,o),
(566,526,o),
(597,501,cs),
(652,458,o),
(679,385,o),
(679,283,cs),
(679,227,o),
(670,178,o),
(653,135,c),
(631,-22,ls),
(622,-89,o),
(615,-168,o),
(614,-195,c),
(590,-184,o),
(569,-179,o),
(552,-179,cs),
(538,-179,o),
(516,-182,o),
(486,-188,cs),
(440,-197,o),
(406,-202,o),
(384,-202,cs),
(361,-202,o),
(341,-199,o),
(326,-192,cs),
(300,-181,o),
(287,-163,o),
(287,-138,cs),
(287,-123,o),
(293,-111,o),
(306,-102,cs),
(316,-95,o),
(328,-91,o),
(341,-91,cs),
(355,-91,o),
(367,-95,o),
(376,-102,c)
);
},
{
closed = 1;
nodes = (
(62,99,o),
(67,101,o),
(72,101,cs),
(85,101,o),
(93,92,o),
(98,75,cs),
(103,56,o),
(109,46,o),
(116,46,cs),
(119,46,o),
(128,58,o),
(142,82,cs),
(158,109,o),
(168,125,o),
(173,130,cs),
(183,140,o),
(204,143,o),
(236,139,c),
(219,121,o),
(211,97,o),
(211,68,cs),
(211,47,o),
(219,36,o),
(235,36,cs),
(258,36,o),
(274,59,o),
(283,104,cs),
(290,139,o),
(290,169,o),
(283,196,cs),
(269,251,o),
(239,279,o),
(192,279,cs),
(186,279,o),
(180,278,o),
(174,277,c),
(161,264,o),
(144,241,o),
(121,207,cs),
(94,167,o),
(73,130,o),
(57,96,c)
);
},
{
closed = 1;
nodes = (
(369,366,o),
(351,365,o),
(328,361,cs),
(295,355,o),
(264,345,o),
(237,330,cs),
(223,322,o),
(212,314,o),
(203,307,c),
(210,310,o),
(219,311,o),
(229,311,cs),
(264,311,o),
(292,299,o),
(313,274,c),
(325,299,o),
(338,320,o),
(353,337,cs),
(359,344,o),
(368,353,o),
(380,363,c)
);
}
);
width = 687;
}
);
},
